SplineFontDB: 3.0
FontName: NachlieliCLM-Bold
FullName: Nachlieli CLM Bold
FamilyName: Nachlieli CLM
Weight: Bold
Copyright: Copyright (c) 2002-2017 by Maxim Iorsh (iorsh@users.sourceforge.net). Distributed under the terms of GNU General Public License version 2(http://www.gnu.org/licenses/gpl.html). \nLatin glyphs, digits and punctuation copyright 1999 by (URW)++ Design & Development. \nAll rights reserved.
UComments: "2002-7-16: Created." 
Version: 0.131
ItalicAngle: 0
UnderlinePosition: -140
UnderlineWidth: 70
Ascent: 872
Descent: 218
LayerCount: 2
Layer: 0 0 "Back"  1
Layer: 1 0 "Fore"  0
FSType: 0
OS2Version: 0
OS2_WeightWidthSlopeOnly: 0
OS2_UseTypoMetrics: 0
CreationTime: 1163025778
ModificationTime: 1493835238
PfmFamily: 33
TTFWeight: 600
TTFWidth: 5
LineGap: 90
VLineGap: 0
Panose: 2 0 6 3 0 0 0 0 0 0
OS2TypoAscent: 0
OS2TypoAOffset: 1
OS2TypoDescent: 0
OS2TypoDOffset: 1
OS2TypoLinegap: 0
OS2WinAscent: 0
OS2WinAOffset: 1
OS2WinDescent: 0
OS2WinDOffset: 1
HheadAscent: 0
HheadAOffset: 1
HheadDescent: 0
HheadDOffset: 1
OS2Vendor: 'PfEd'
Lookup: 6 1 0 "ccmpAltAyin"  {"ccmpAltAyin subtable"  } ['ccmp' ('hebr' <'dflt' > ) ]
Lookup: 1 1 0 "Single Substitution lookup 11"  {"Single Substitution lookup 11 subtable"  } []
Lookup: 6 1 0 "ccmpVavHolam"  {"ccmpVavHolam subtable"  } ['ccmp' ('hebr' <'dflt' > ) ]
Lookup: 1 1 0 "salt MiscSAlt"  {"MiscSAlt"  } ['salt' ('hebr' <'dflt' > ) ]
Lookup: 4 1 0 "ccmp AlephLamed2"  {"AlephLamed2"  } ['ccmp' ('hebr' <'JUD ' > ) ]
Lookup: 4 1 0 "dlig AlephLamed"  {"AlephLamed"  } ['dlig' ('hebr' <'dflt' > ) ]
Lookup: 4 1 0 "ccmp CustomPrecomp"  {"CustomPrecomp"  } ['ccmp' ('hebr' <'dflt' > ) ]
Lookup: 1 1 0 "jalt WideLetters"  {"WideLetters"  } ['jalt' ('hebr' <'dflt' > ) ]
Lookup: 1 1 0 "ccmp Yiddish2"  {"Yiddish2"  } ['ccmp' ('hebr' <'JII ' > ) ]
Lookup: 4 1 0 "ccmp Yiddish_dflt"  {"Yiddish_dflt"  } ['ccmp' ('hebr' <'dflt' > ) ]
Lookup: 4 1 0 "ccmp Yiddish"  {"Yiddish"  } ['ccmp' ('hebr' <'JII ' > ) ]

StartChar: .notdef
Encoding: 65536 -1 0
Width: 736
VWidth: 1000
Flags: W
HStem: -80 90<150 586> 590 90<150 586>
VStem: 60 90<10 590> 586 90<10 590>
LayerCount: 2
Fore
SplineSet
150 590 m 1
 150 10 l 1
 586 10 l 5
 586 590 l 5
 150 590 l 1
60 680 m 1
 676 680 l 5
 676 -80 l 5
 60 -80 l 1
 60 680 l 1
EndSplineSet
Validated: 1
EndChar

StartChar: exclam
Encoding: 33 33 2
Width: 350
VWidth: 1000
Flags: W
HStem: 0 146<100 250>
VStem: 100 150<0 146 459.865 726>
LayerCount: 2
Fore
SplineSet
250 726 m 1
 250 516 l 1
 208 207 l 1
 141 207 l 1
 100 516 l 1
 100 726 l 1
 250 726 l 1
250 146 m 1
 250 0 l 1
 100 0 l 1
 100 146 l 1
 250 146 l 1
EndSplineSet
Validated: 1
EndChar

StartChar: quotedbl
Encoding: 34 34 3
Width: 434
VWidth: 1000
Flags: W
HStem: 459.1 259<35 111 266 342>
VStem: 35 133<588.1 718.1> 266 133<588.1 718.1>
LayerCount: 2
Back
SplineSet
52 709 m 5xc0
 140 709 l 5
 140 608 l 5xc0
 108 464 l 5
 52 464 l 5xa0
 52 709 l 5xc0
235 709 m 5x90
 323 709 l 261
 323 608 l 5x90
 291 464 l 5
 235 464 l 5x88
 235 709 l 5x90
EndSplineSet
Fore
SplineSet
399 718.1 m 5
 399 588.1 l 5
 342 459.1 l 1
 266 459.1 l 9
 266 718.1 l 17
 399 718.1 l 5
168 718.1 m 1
 168 588.1 l 1
 111 459.1 l 1
 35 459.1 l 9
 35 718.1 l 17
 168 718.1 l 1
EndSplineSet
Validated: 1
EndChar

StartChar: numbersign
Encoding: 35 35 4
Width: 578
VWidth: 1000
Flags: W
HStem: -8 21G<51 160.922 260 368.922> 196 99<14 91 216 300 424 524> 448 99<42 141 266 349 474 564> 701 20G<191.092 300 399.092 508>
LayerCount: 2
Fore
SplineSet
157 -8 m 1
 51 -8 l 1
 91 196 l 1
 14 196 l 1
 14 295 l 1
 111 295 l 1
 141 448 l 1
 42 448 l 1
 42 547 l 1
 161 547 l 1
 195 721 l 1
 300 721 l 1
 266 547 l 1
 369 547 l 1
 403 721 l 1
 508 721 l 1
 474 547 l 1
 564 547 l 1
 564 448 l 1
 455 448 l 1
 424 295 l 1
 524 295 l 1
 524 196 l 1
 405 196 l 1
 365 -8 l 1
 260 -8 l 1
 300 196 l 1
 197 196 l 1
 157 -8 l 1
216 295 m 1
 319 295 l 1
 349 448 l 1
 246 448 l 1
 216 295 l 1
EndSplineSet
Validated: 1
EndChar

StartChar: dollar
Encoding: 36 36 5
Width: 655
VWidth: 1000
Flags: W
HStem: -21 107<242.756 293 361 411.083> 608 101<241.84 293 361 405.945>
VStem: 72 131<127.611 207> 89 123<458.034 580.414> 293 68<-126 -18.4082 86 282 427 608 706.913 763> 439 128<498 577.975> 445 132<118.475 247.287>
LayerCount: 2
Fore
SplineSet
567 498 m 1xdc
 439 498 l 1xdc
 441 559 412 601 361 608 c 1
 361 407 l 1
 516 364 577 305 577 195 c 0
 577 120 545 55 491 20 c 0
 458 -1 416 -15 361 -21 c 1
 361 -126 l 1
 293 -126 l 1
 293 -21 l 1
 233 -15 196 -2 158 25 c 0
 102 65 72 125 72 198 c 2
 72 207 l 1
 203 207 l 1xea
 206 137 237 96 293 86 c 1
 293 299 l 1
 158 330 89 401 89 512 c 0
 89 624 164 697 293 709 c 1
 293 763 l 1
 361 763 l 1
 361 709 l 1
 487 702 565 623 567 498 c 1xdc
293 427 m 1
 293 608 l 1
 238 597 212 567 212 516 c 0
 212 472 237 445 293 427 c 1
361 282 m 1
 361 86 l 1
 417 100 445 133 445 183 c 0xca
 445 231 417 265 361 282 c 1
EndSplineSet
Validated: 33
EndChar

StartChar: percent
Encoding: 37 37 6
Width: 889
VWidth: 1000
Flags: W
HStem: -22.3672 90.0996<589.678 701.162> 0 21G<114.188 243.926> 228.533 90.1<589.375 701.589> 365.633 90.2<196.178 307.855> 617.433 90.2<195.875 308.089>
VStem: 81.3652 89.2998<481.543 592.57> 333.065 89.3<480.14 592.208> 474.865 89.3<93.3381 203.923> 726.565 89.3<92.0395 203.511>
LayerCount: 2
Back
SplineSet
206 701 m 0x1f80
 309 701 390 620 390 517 c 0
 390 419 306 337 206 337 c 0
 105 337 22 419 22 519 c 0
 22 619 105 701 206 701 c 0x1f80
206 602 m 0
 159 602 121 564 121 519 c 0
 121 473 159 435 206 435 c 0
 252 435 291 473 291 518 c 0
 291 565 253 602 206 602 c 0
606 709 m 1
 682 709 l 1
 287 -20 l 1
 210 -20 l 1x8f80
 606 709 l 1
679 352 m 0x6f80
 782 352 863 271 863 167 c 0
 863 69 779 -13 679 -13 c 0
 578 -13 495 69 495 170 c 0
 495 270 578 352 679 352 c 0x6f80
679 253 m 0
 632 253 594 215 594 169 c 0
 594 123 632 85 679 85 c 0
 725 85 764 123 764 168 c 0
 764 215 726 253 679 253 c 0
EndSplineSet
Fore
SplineSet
644.865 318.633 m 0xbf80
 740.865 318.633 815.865 242.633 815.865 146.633 c 0
 815.865 54.6328 737.865 -22.3672 645.865 -22.3672 c 0
 551.865 -22.3672 474.865 54.6328 474.865 148.633 c 0
 474.865 241.633 551.865 318.633 644.865 318.633 c 0xbf80
644.965 228.533 m 0
 600.965 228.533 564.165 192.533 564.165 148.533 c 0
 564.165 103.732 600.965 67.7324 645.765 67.7324 c 0
 689.765 67.7324 726.565 103.732 726.565 146.933 c 0
 726.565 192.533 690.565 228.533 644.965 228.533 c 0
251.365 707.633 m 0
 347.365 707.633 422.365 631.633 422.365 534.633 c 0
 422.365 442.633 345.365 365.633 252.365 365.633 c 0
 158.365 365.633 81.3652 442.633 81.3652 536.633 c 0
 81.3652 630.633 158.365 707.633 251.365 707.633 c 0
251.465 617.433 m 4
 207.465 617.433 170.665 581.433 170.665 536.633 c 4
 170.665 492.633 207.465 455.833 252.265 455.833 c 4
 296.265 455.833 333.065 491.833 333.065 535.833 c 4
 333.065 581.433 297.065 617.433 251.465 617.433 c 4
677.059 708.749 m 1
 791.211 708.748 l 1
 228.034 0 l 1x7f80
 114.188 0.00390625 l 1
 677.059 708.749 l 1
EndSplineSet
Validated: 1
EndChar

StartChar: ampersand
Encoding: 38 38 7
Width: 722
VWidth: 1000
Flags: W
HStem: -23 116<234.815 365.279> 0 21G<516.571 694> 614 109<270.075 367.422>
VStem: 55 133<141.432 272.034> 130 132<509.883 603.952> 377 120<498.54 605.357> 526 113<261.383 373>
LayerCount: 2
Fore
SplineSet
526 373 m 1xae
 639 373 l 1
 639 362 l 1
 639 357 l 1
 637 281 611 200 571 154 c 1
 694 0 l 1
 533 0 l 1x6e
 487 56 l 1
 406 -5 360 -23 292 -23 c 0
 150 -23 55 63 55 193 c 0xb6
 55 287 95 340 212 401 c 1
 206 409 202 414 200 416 c 2
 172 450 l 2
 144 483 130 519 130 556 c 0
 130 650 212 723 319 723 c 0
 426 723 497 661 497 568 c 0
 497 496 469 453 380 392 c 1
 496 248 l 1
 518 290 526 320 526 363 c 2
 526 373 l 1xae
278 319 m 1
 231 290 l 2
 204 272 188 243 188 210 c 0
 188 150 240 93 294 93 c 0xb6
 325 93 367 112 414 148 c 1
 278 319 l 1
317 470 m 1
 357 492 377 521 377 556 c 0
 377 593 356 614 320 614 c 0
 286 614 262 594 262 566 c 0x2e
 262 541 267 533 317 470 c 1
EndSplineSet
Validated: 1
EndChar

StartChar: quotesingle
Encoding: 39 39 8
Width: 223
VWidth: 1000
Flags: W
HStem: 459.1 259<45 121>
VStem: 45 133<588.1 718.1>
LayerCount: 2
Fore
SplineSet
178 718.1 m 5
 178 588.1 l 5
 121 459.1 l 1
 45 459.1 l 9
 45 718.1 l 17
 178 718.1 l 5
EndSplineSet
Validated: 1
EndChar

StartChar: parenleft
Encoding: 40 40 9
Width: 338
VWidth: 1030
Flags: W
VStem: 40 128<122.102 479.416>
LayerCount: 2
Fore
SplineSet
203 771 m 1
 308 771 l 5
 202 564 168 449 168 301 c 0
 168 152 202 39 308 -170 c 1
 203 -170 l 1
 88 5 40 145 40 301 c 0
 40 456 88 596 203 771 c 1
EndSplineSet
Validated: 1
EndChar

StartChar: parenright
Encoding: 41 41 10
Width: 338
VWidth: 1030
Flags: W
VStem: 162 128<121.584 478.898>
LayerCount: 2
Fore
SplineSet
127 -170 m 1
 22 -170 l 1
 128 37 162 152 162 300 c 0
 162 449 128 562 22 771 c 5
 127 771 l 1
 242 596 290 456 290 300 c 0
 290 145 242 5 127 -170 c 1
EndSplineSet
Validated: 1
EndChar

StartChar: asterisk
Encoding: 42 42 11
Width: 580
VWidth: 1000
Flags: W
VStem: 247.2 86.4004<441.899 581.1>
LayerCount: 2
Fore
SplineSet
220.801 359.1 m 5
 90 402.3 l 5
 116.4 485.1 l 5
 247.2 441.899 l 5
 247.2 581.1 l 5
 333.601 581.1 l 5
 333.601 441.899 l 5
 464.4 485.1 l 5
 490.801 401.1 l 5
 360 359.1 l 5
 440.4 246.3 l 5
 370.801 194.699 l 5
 290.4 307.499 l 5
 210 194.699 l 5
 140.4 246.3 l 5
 220.801 359.1 l 5
EndSplineSet
Validated: 1
EndChar

StartChar: plus
Encoding: 43 43 12
Width: 663
VWidth: 1000
Flags: W
HStem: 280 119<90 272 391 573>
VStem: 272 119<98 280 399 581>
LayerCount: 2
Fore
SplineSet
573 399 m 1
 573 280 l 1
 391 280 l 1
 391 98 l 1
 272 98 l 1
 272 280 l 1
 90 280 l 1
 90 399 l 5
 272 399 l 1
 272 581 l 1
 391 581 l 1
 391 399 l 1
 573 399 l 1
EndSplineSet
Validated: 1
Substitution2: "MiscSAlt" uniFB29
EndChar

StartChar: comma
Encoding: 44 44 13
Width: 298
VWidth: 1000
Flags: W
HStem: -149 279<80 134>
VStem: 80 138<-20 130>
LayerCount: 2
Back
SplineSet
64 146 m 1
 214 146 l 1
 214 9 l 2
 214 -69 200 -106 160 -137 c 0
 133 -158 105 -169 64 -174 c 1
 64 -118 l 1
 123 -106 150 -71 150 -3 c 2
 150 0 l 1
 64 0 l 1
 64 146 l 1
EndSplineSet
Fore
SplineSet
218 130 m 5
 218 -20 l 1
 134 -149 l 1
 80 -149 l 9
 80 130 l 21
 218 130 l 5
EndSplineSet
Validated: 1
EndChar

StartChar: hyphen
Encoding: 45 45 14
Width: 551
VWidth: 1000
Flags: W
HStem: 212 110<85 466>
LayerCount: 2
Back
SplineSet
298 342 m 1
 298 207 l 1
 26 207 l 1
 26 342 l 1
 298 342 l 1
EndSplineSet
Fore
SplineSet
85 212 m 5
 85 322 l 1
 466 322 l 1
 466 212 l 5
 85 212 l 5
EndSplineSet
Validated: 1
EndChar

StartChar: period
Encoding: 46 46 15
Width: 289
VWidth: 1000
Flags: W
HStem: 0 146<67 217>
VStem: 67 150<0 146>
LayerCount: 2
Fore
SplineSet
217 146 m 1
 217 0 l 1
 67 0 l 1
 67 146 l 1
 217 146 l 1
EndSplineSet
Validated: 1
EndChar

StartChar: slash
Encoding: 47 47 16
Width: 298
VWidth: 1000
Flags: W
HStem: -14 21G<2 94.6593> 694 20G<202.341 295>
VStem: 2 293
LayerCount: 2
Fore
SplineSet
208 714 m 1
 295 714 l 5
 89 -14 l 5
 2 -14 l 1
 208 714 l 1
EndSplineSet
Validated: 1
EndChar

StartChar: zero
Encoding: 48 48 17
Width: 556
VWidth: 1000
Flags: W
HStem: -23 120<213.538 332.069> 611 113<214.698 330.57>
VStem: 29 140<149.405 556.416> 377 140<148.851 557.457>
LayerCount: 2
Fore
SplineSet
273 724 m 0
 356 724 425 687 467 619 c 0
 501 564 517 476 517 346 c 0
 517 214 497 122 457 68 c 0
 413 8 350 -23 273 -23 c 0
 190 -23 121 15 79 82 c 0
 46 136 29 225 29 350 c 0
 29 487 48 578 89 633 c 0
 132 692 197 724 273 724 c 0
273 611 m 0
 233 611 203 587 187 544 c 0
 177 515 169 434 169 351 c 0
 169 257 177 182 191 152 c 0
 208 116 236 97 273 97 c 0
 313 97 343 120 359 162 c 0
 369 190 377 270 377 349 c 0
 377 446 369 524 355 554 c 0
 338 591 309 611 273 611 c 0
EndSplineSet
Validated: 1
EndChar

StartChar: one
Encoding: 49 49 18
Width: 556
VWidth: 1000
Flags: W
HStem: 0 21G<238 378> 489 93<68 196.093> 689 20G<274 378>
VStem: 238 140<0 489> 285 93<656.72 709>
LayerCount: 2
Fore
SplineSet
238 489 m 1xf0
 68 489 l 1
 68 582 l 1
 190 582 263 625 285 709 c 1
 378 709 l 1xe8
 378 0 l 1
 238 0 l 1
 238 489 l 1xf0
EndSplineSet
Validated: 1
EndChar

StartChar: two
Encoding: 50 50 19
Width: 556
VWidth: 1000
Flags: W
HStem: 0 125<212 512> 610 114<211.42 339.544>
VStem: 39 135<462 570.407> 375 137<410.849 575.967>
LayerCount: 2
Fore
SplineSet
512 125 m 1
 512 0 l 1
 30 0 l 1
 37 131 74 194 194 276 c 1
 350 387 375 418 375 496 c 0
 375 567 337 610 275 610 c 0
 211 610 174 564 174 485 c 2
 174 462 l 1
 40 462 l 1
 39 473 39 481 39 487 c 0
 39 637 125 724 272 724 c 0
 421 724 515 636 515 499 c 0
 515 403 479 349 356 259 c 0
 252 183 230 163 212 125 c 1
 512 125 l 1
EndSplineSet
Validated: 1
EndChar

StartChar: three
Encoding: 51 51 20
Width: 556
VWidth: 1000
Flags: W
HStem: -23 120<201.969 336.851> 317 94<217 317.783> 611 113<198.635 328.527>
VStem: 29 136<133.952 208> 38 130<486 580.729> 353 140<445.747 584.833> 376 140<136.06 274.378>
LayerCount: 2
Fore
SplineSet
217 317 m 1xf2
 217 411 l 1
 229 411 l 2
 312 411 353 447 353 518 c 0
 353 577 321 611 265 611 c 0
 224 611 192 592 179 561 c 0
 172 543 169 524 168 486 c 1
 38 486 l 1
 38 498 l 2
 38 561 51 609 79 644 c 0
 119 696 187 724 268 724 c 0
 405 724 493 649 493 531 c 0xec
 493 466 466 421 400 380 c 1
 480 341 516 287 516 204 c 0
 516 66 419 -23 268 -23 c 0
 123 -23 30 66 29 208 c 1
 165 208 l 1
 169 135 205 97 271 97 c 0
 332 97 376 142 376 204 c 0
 376 256 346 297 299 310 c 0
 275 316 266 317 217 317 c 1xf2
EndSplineSet
Validated: 1
EndChar

StartChar: four
Encoding: 52 52 21
Width: 556
VWidth: 1000
Flags: W
HStem: 0 21G<308 448> 157 116<123 308 448 522> 689 20G<271.065 448>
VStem: 308 140<0 157 273 576>
LayerCount: 2
Fore
SplineSet
522 273 m 1
 522 157 l 1
 448 157 l 1
 448 0 l 1
 308 0 l 1
 308 157 l 1
 24 157 l 1
 24 275 l 1
 283 709 l 1
 448 709 l 1
 448 273 l 1
 522 273 l 1
308 273 m 1
 308 576 l 1
 123 273 l 1
 308 273 l 1
EndSplineSet
Validated: 1
EndChar

StartChar: five
Encoding: 53 53 22
Width: 556
VWidth: 1000
Flags: W
HStem: -23 120<193.118 331.377> 368 111<202.427 332.107> 584 125<196 489>
VStem: 27 138<124.831 185> 377 140<144.66 322.279>
LayerCount: 2
Fore
SplineSet
489 709 m 1
 489 584 l 1
 196 584 l 1
 173 436 l 1
 214 467 249 479 296 479 c 0
 427 479 517 379 517 234 c 0
 517 81 413 -23 261 -23 c 0
 123 -23 29 61 27 185 c 1
 165 185 l 1
 168 128 202 97 263 97 c 0
 333 97 377 148 377 231 c 0
 377 317 334 368 263 368 c 0
 220 368 188 349 173 314 c 1
 47 314 l 1
 110 709 l 1
 489 709 l 1
EndSplineSet
Validated: 1
EndChar

StartChar: six
Encoding: 54 54 23
Width: 556
VWidth: 1000
Flags: W
HStem: -23 120<213.798 340.108> 357 110<220.502 343.217> 548 21G<368 507> 611 113<223.383 352.974>
VStem: 32 138<141.81 533.878> 386 133<143.296 313.551>
LayerCount: 2
Fore
SplineSet
507 548 m 1
 377 548 l 1
 359 593 335 611 290 611 c 0
 234 611 194 573 181 509 c 0
 175 479 175 479 172 404 c 1
 216 450 255 467 313 467 c 0
 435 467 519 373 519 237 c 0
 519 83 423 -23 282 -23 c 0
 198 -23 124 16 83 82 c 0
 47 139 32 215 32 337 c 0
 32 466 49 545 91 614 c 0
 134 685 206 724 294 724 c 4
 371 724 436 694 473 643 c 0
 491 617 500 594 507 548 c 1
279 357 m 0
 214 357 170 303 170 225 c 0
 170 150 214 97 278 97 c 0
 340 97 386 152 386 228 c 0
 386 306 344 357 279 357 c 0
EndSplineSet
Validated: 1
EndChar

StartChar: seven
Encoding: 55 55 24
Width: 556
VWidth: 1000
Flags: W
HStem: 0 21G<133 280.5> 584 125<29 382>
VStem: 133 141<0 140.404>
LayerCount: 2
Fore
SplineSet
528 709 m 1
 528 599 l 1
 360 396 287 224 274 0 c 1
 133 0 l 1
 152 151 177 244 226 347 c 0
 254 409 339 538 382 584 c 1
 29 584 l 1
 29 709 l 1
 528 709 l 1
EndSplineSet
Validated: 1
EndChar

StartChar: eight
Encoding: 56 56 25
Width: 556
VWidth: 1000
Flags: W
HStem: -23 120<201.588 345.388> 330 95<202.356 344.938> 611 113<202.951 345.393>
VStem: 22 140<137.48 289.896> 46 123<457.505 577.559> 380 121<457.743 577.787> 385 140<137.302 289.718>
LayerCount: 2
Fore
SplineSet
409 386 m 1xec
 491 342 525 288 525 204 c 0
 525 70 422 -23 274 -23 c 0
 125 -23 22 70 22 204 c 0xf2
 22 288 56 342 138 386 c 1
 74 420 46 463 46 531 c 0
 46 643 142 724 274 724 c 4
 405 724 501 643 501 532 c 0
 501 486 484 443 455 416 c 0
 444 406 433 399 409 386 c 1xec
275 611 m 0
 212 611 169 573 169 519 c 0
 169 464 213 425 275 425 c 0
 336 425 380 464 380 518 c 0xec
 380 573 337 611 275 611 c 0
273 330 m 0
 206 330 162 284 162 212 c 0
 162 142 205 97 273 97 c 0
 341 97 385 142 385 210 c 0xf2
 385 284 342 330 273 330 c 0
EndSplineSet
Validated: 1
EndChar

StartChar: nine
Encoding: 57 57 26
Width: 556
VWidth: 1000
Flags: W
HStem: -24 120<194.225 324.411> 228 116<200.054 328.063> 610 114<202.71 328.807>
VStem: 28 133<385.84 565.439> 373 143<177.764 550.427>
LayerCount: 2
Fore
SplineSet
38 165 m 1
 173 165 l 1
 176 123 210 96 259 96 c 0
 338 96 376 163 376 298 c 1
 353 272 345 263 332 254 c 0
 310 238 276 228 240 228 c 0
 114 228 28 328 28 474 c 0
 28 622 125 724 267 724 c 0
 352 724 422 684 467 608 c 0
 499 555 516 473 516 370 c 0
 516 256 494 149 457 86 c 0
 415 14 346 -24 255 -24 c 0
 133 -24 41 56 38 165 c 1
263 610 m 0
 201 610 161 558 161 476 c 0
 161 395 201 344 265 344 c 0
 329 344 373 396 373 474 c 0
 373 557 331 610 263 610 c 0
EndSplineSet
Validated: 1
EndChar

StartChar: colon
Encoding: 58 58 27
Width: 330
VWidth: 1000
Flags: W
HStem: 0 146<90 240> 374 146<90 240>
VStem: 90 150<0 146 374 520>
LayerCount: 2
Fore
SplineSet
240 146 m 1
 240 0 l 1
 90 0 l 1
 90 146 l 1
 240 146 l 1
240 520 m 1
 240 374 l 1
 90 374 l 1
 90 520 l 1
 240 520 l 1
EndSplineSet
Validated: 1
EndChar

StartChar: semicolon
Encoding: 59 59 28
Width: 330
VWidth: 1000
Flags: W
HStem: 374 146<90 240>
VStem: 96 138<5.59961 145.6 374 520>
LayerCount: 2
Back
SplineSet
113 146 m 5
 263 146 l 5
 263 9 l 6
 263 -69 249 -106 209 -137 c 4
 182 -158 154 -169 113 -174 c 5
 113 -118 l 5
 172 -106 199 -71 199 -3 c 6
 199 0 l 5
 113 0 l 5
 113 146 l 5
263 520 m 1
 263 374 l 1
 113 374 l 1
 113 520 l 1
 263 520 l 1
EndSplineSet
Fore
SplineSet
234 145.6 m 1
 234 5.59961 l 5
 150 -123.4 l 5
 96 -123.4 l 13
 96 145.6 l 17
 234 145.6 l 1
240 520 m 1
 240 374 l 1
 90 374 l 1
 90 520 l 1
 240 520 l 1
EndSplineSet
Validated: 1
EndChar

StartChar: less
Encoding: 60 60 29
Width: 669
VWidth: 1000
Flags: W
LayerCount: 2
Fore
SplineSet
579 582 m 1
 579 473 l 1
 197 340 l 1
 579 209 l 1
 579 98 l 1
 90 280 l 1
 90 401 l 1
 579 582 l 1
EndSplineSet
Validated: 1
EndChar

StartChar: equal
Encoding: 61 61 30
Width: 664
VWidth: 1000
Flags: W
HStem: 160 119<90 574> 400 119<90 574>
LayerCount: 2
Fore
SplineSet
574 519 m 1
 574 400 l 1
 90 400 l 1
 90 519 l 1
 574 519 l 1
574 279 m 1
 574 160 l 1
 90 160 l 1
 90 279 l 1
 574 279 l 1
EndSplineSet
Validated: 1
EndChar

StartChar: greater
Encoding: 62 62 31
Width: 669
VWidth: 1000
Flags: W
LayerCount: 2
Fore
SplineSet
90 98 m 1
 90 207 l 1
 472 340 l 1
 90 471 l 1
 90 582 l 1
 579 400 l 1
 579 279 l 1
 90 98 l 1
EndSplineSet
Validated: 1
EndChar

StartChar: question
Encoding: 63 63 32
Width: 641
VWidth: 1000
Flags: W
HStem: 0 146<235 385> 626 118<245.639 373.04>
VStem: 64 136<481 576.99> 235 150<0 146> 245 124<201 285.631> 415 141<443.572 582.454>
LayerCount: 2
Fore
SplineSet
369 201 m 1xec
 245 201 l 1
 242 286 265 331 344 399 c 1
 403 447 415 466 415 511 c 0
 415 576 370 626 310 626 c 0
 244 626 196 564 200 483 c 1
 200 481 l 1
 64 481 l 1
 65 563 78 611 111 655 c 0
 154 714 221 744 307 744 c 0
 454 744 556 650 556 514 c 0
 556 430 529 386 436 320 c 0
 376 278 369 267 369 201 c 1xec
385 146 m 1xf4
 385 0 l 1
 235 0 l 1
 235 146 l 1
 385 146 l 1xf4
EndSplineSet
Validated: 33
EndChar

StartChar: at
Encoding: 64 64 33
Width: 975
VWidth: 1000
Flags: W
HStem: -138 78<347.795 646.665> -39 20G<664 700.671> 56 81<388.76 506.102 653.8 758.237> 447 71<445.729 568.302> 668 77<375.943 645.466>
VStem: 27 97<144.616 401.614> 258 97<171.818 340.484> 595 53<186 345> 858 89<257.154 478.2>
LayerCount: 2
Fore
SplineSet
644 508 m 1
 734 508 l 1
 656 228 l 1
 648 198 648 198 648 186 c 0
 648 156 667 137 697 137 c 0
 732 137 774 165 807 209 c 0
 840 255 858 312 858 370 c 0
 858 449 826 517 760 576 c 0
 690 638 609 668 511 668 c 0
 395 668 299 625 227 542 c 0
 162 467 124 366 124 266 c 0
 124 166 164 82 242 21 c 0
 309 -31 395 -60 486 -60 c 0
 558 -60 635 -45 693 -19 c 1
 721 -92 l 1
 651 -124 578 -138 484 -138 c 0
 357 -138 261 -108 178 -43 c 0
 82 32 27 145 27 264 c 0
 27 380 82 510 170 601 c 0
 262 696 380 745 516 745 c 0
 642 745 751 702 836 620 c 0
 912 546 947 462 947 355 c 0
 947 272 920 203 865 140 c 0
 817 86 757 56 697 56 c 0
 664 56 633 65 608 82 c 0
 588 96 580 106 572 131 c 1
 533 84 477 56 422 56 c 0
 331 56 258 132 258 227 c 0
 258 294 286 370 332 427 c 0
 377 483 446 518 514 518 c 0
 570 518 604 496 628 446 c 1
 644 508 l 1
511 447 m 0
 433 447 355 346 355 244 c 0
 355 184 394 137 444 137 c 0
 473 137 508 156 532 184 c 0
 569 227 595 294 595 345 c 0
 595 408 563 447 511 447 c 0
EndSplineSet
Validated: 1
EndChar

StartChar: A
Encoding: 65 65 34
Width: 722
VWidth: 1000
Flags: W
HStem: 0 21G<26 185.667 542.469 703> 147 125<270 460> 709 20G<277.894 457.914>
LayerCount: 2
Fore
SplineSet
501 147 m 1
 228 147 l 1
 179 0 l 1
 26 0 l 1
 285 729 l 1
 451 729 l 1
 703 0 l 1
 549 0 l 1
 501 147 l 1
460 272 m 1
 365 557 l 1
 270 272 l 1
 460 272 l 1
EndSplineSet
Validated: 1
EndChar

StartChar: B
Encoding: 66 66 35
Width: 722
VWidth: 1000
Flags: W
HStem: 0 125<232 492.102> 314 125<232 476.003> 604 125<232 475.732>
VStem: 82 150<125 314 439 604> 501 144<462.805 579.75> 522 144<154.564 285.017>
LayerCount: 2
Fore
SplineSet
82 0 m 1xf4
 82 729 l 1
 407 729 l 2
 485 729 536 713 579 676 c 0
 620 640 645 587 645 537 c 0xf8
 645 475 617 433 545 387 c 1
 627 339 666 282 666 210 c 0
 666 152 638 90 594 53 c 0
 550 16 494 0 410 0 c 2
 82 0 l 1xf4
232 604 m 1
 232 439 l 1
 395 439 l 2
 464 439 501 468 501 521 c 0
 501 575 464 604 395 604 c 2
 232 604 l 1
232 314 m 1
 232 125 l 1
 411 125 l 2
 484 125 522 158 522 219 c 0xf4
 522 281 484 314 411 314 c 2
 232 314 l 1
EndSplineSet
Validated: 1
EndChar

StartChar: C
Encoding: 67 67 36
Width: 722
VWidth: 1000
Flags: W
HStem: -23 126<292.485 469.804> 613 128<295.492 470.857>
VStem: 44 150<216.903 491.352> 539 146<175.424 249 482 546.73>
LayerCount: 2
Fore
SplineSet
682 482 m 1
 539 482 l 1
 530 521 522 540 506 560 c 0
 478 595 435 613 383 613 c 0
 265 613 194 517 194 356 c 0
 194 197 262 103 378 103 c 0
 471 103 530 156 539 249 c 1
 685 249 l 1
 676 82 555 -23 374 -23 c 0
 171 -23 44 124 44 358 c 0
 44 594 172 741 378 741 c 0
 487 741 577 700 633 626 c 0
 664 585 677 545 682 482 c 1
EndSplineSet
Validated: 1
EndChar

StartChar: D
Encoding: 68 68 37
Width: 722
VWidth: 1000
Flags: W
HStem: 0 125<227 450.542> 604 125<227 450.982>
VStem: 77 150<125 604> 531 150<219.831 509.175>
LayerCount: 2
Fore
SplineSet
77 0 m 1
 77 729 l 1
 362 729 l 2
 474 729 543 704 592 645 c 0
 650 576 681 477 681 365 c 0
 681 252 650 153 592 85 c 0
 543 26 473 0 362 0 c 2
 77 0 l 1
227 125 m 1
 362 125 l 2
 475 125 531 204 531 364 c 0
 531 525 475 604 362 604 c 2
 227 604 l 1
 227 125 l 1
EndSplineSet
Validated: 1
EndChar

StartChar: E
Encoding: 69 69 38
Width: 667
VWidth: 1000
Flags: W
HStem: 0 125<229 624> 314 125<229 578> 604 125<229 606>
VStem: 79 150<125 314 439 604>
LayerCount: 2
Fore
SplineSet
229 314 m 1
 229 125 l 1
 624 125 l 1
 624 0 l 1
 79 0 l 1
 79 729 l 1
 606 729 l 1
 606 604 l 1
 229 604 l 1
 229 439 l 1
 578 439 l 1
 578 314 l 1
 229 314 l 1
EndSplineSet
Validated: 1
EndChar

StartChar: F
Encoding: 70 70 39
Width: 611
VWidth: 1000
Flags: W
HStem: 0 21G<74 224> 314 125<224 543> 604 125<224 586>
VStem: 74 150<0 314 439 604>
LayerCount: 2
Fore
SplineSet
224 314 m 1
 224 0 l 1
 74 0 l 1
 74 729 l 1
 586 729 l 1
 586 604 l 1
 224 604 l 1
 224 439 l 1
 543 439 l 1
 543 314 l 1
 224 314 l 1
EndSplineSet
Validated: 1
EndChar

StartChar: G
Encoding: 71 71 40
Width: 778
VWidth: 1000
Flags: W
HStem: -23 128<309.47 491.888> -2 21G<617.25 711> 267 125<419 585> 613 128<301.535 495.789>
VStem: 42 150<238.42 491.038> 621 90<-2 38.6933>
LayerCount: 2
Fore
SplineSet
711 392 m 1xbc
 711 -2 l 1
 621 -2 l 1x7c
 603 94 l 1
 547 12 481 -23 383 -23 c 0
 186 -23 42 138 42 359 c 0
 42 586 185 741 395 741 c 0
 571 741 693 646 711 496 c 1
 570 496 l 1
 557 534 546 551 525 569 c 0
 492 598 448 613 396 613 c 0
 269 613 192 518 192 361 c 0
 192 211 279 105 400 105 c 0
 458 105 513 131 549 175 c 0
 571 201 581 226 585 267 c 1
 419 267 l 1
 419 392 l 1
 711 392 l 1xbc
EndSplineSet
Validated: 1
EndChar

StartChar: H
Encoding: 72 72 41
Width: 722
VWidth: 1000
Flags: W
HStem: 0 21G<68 218 507 657> 331 125<218 506> 709 20G<68 218 506 657>
VStem: 68 150<0 331 456 729> 507 150<0 331 456 729>
LayerCount: 2
Fore
SplineSet
507 331 m 1
 218 331 l 1
 218 0 l 1
 68 0 l 1
 68 729 l 1
 218 729 l 1
 218 456 l 1
 506 456 l 1
 506 729 l 1
 657 729 l 1
 657 0 l 1
 507 0 l 1
 507 331 l 1
EndSplineSet
Validated: 1
EndChar

StartChar: I
Encoding: 73 73 42
Width: 278
VWidth: 1000
Flags: W
HStem: 0 21G<63 213> 709 20G<63 213>
VStem: 63 150<0 729>
LayerCount: 2
Fore
SplineSet
213 729 m 1
 213 0 l 1
 63 0 l 1
 63 729 l 1
 213 729 l 1
EndSplineSet
Validated: 1
EndChar

StartChar: J
Encoding: 74 74 43
Width: 556
VWidth: 1000
Flags: W
HStem: -23 128<192.963 313.637> 709 20G<336 486>
VStem: 24 150<123.574 270> 336 150<125.195 729>
LayerCount: 2
Fore
SplineSet
336 729 m 1
 486 729 l 1
 486 190 l 2
 486 54 401 -23 252 -23 c 0
 183 -23 127 -3 85 35 c 0
 42 75 24 122 24 198 c 2
 24 270 l 1
 174 270 l 1
 174 200 l 2
 174 133 198 105 255 105 c 0
 307 105 336 135 336 190 c 2
 336 729 l 1
EndSplineSet
Validated: 1
EndChar

StartChar: K
Encoding: 75 75 44
Width: 722
VWidth: 1000
Flags: W
HStem: 0 21G<74 224 523.155 717> 709 20G<74 224 491.188 686>
VStem: 74 150<0 244 409 729>
LayerCount: 2
Fore
SplineSet
224 244 m 1
 224 0 l 1
 74 0 l 1
 74 729 l 1
 224 729 l 1
 224 409 l 1
 509 729 l 1
 686 729 l 1
 395 415 l 1
 717 0 l 1
 538 0 l 1
 299 322 l 1
 224 244 l 1
EndSplineSet
Validated: 1
EndChar

StartChar: L
Encoding: 76 76 45
Width: 611
VWidth: 1000
Flags: W
HStem: 0 125<230 579> 709 20G<80 230>
VStem: 80 150<125 729>
LayerCount: 2
Fore
SplineSet
230 729 m 1
 230 125 l 1
 579 125 l 1
 579 0 l 1
 80 0 l 1
 80 729 l 1
 230 729 l 1
EndSplineSet
Validated: 1
EndChar

StartChar: M
Encoding: 77 77 46
Width: 833
VWidth: 1000
Flags: W
HStem: 0 21G<66 216 342.387 501.542 626 776> 709 20G<66 294.552 545.586 776>
VStem: 66 150<0 568> 626 150<0 568>
LayerCount: 2
Fore
SplineSet
216 568 m 1
 216 0 l 1
 66 0 l 1
 66 729 l 1
 290 729 l 1
 422 149 l 1
 550 729 l 1
 776 729 l 1
 776 0 l 1
 626 0 l 1
 626 568 l 1
 497 0 l 1
 347 0 l 1
 216 568 l 1
EndSplineSet
Validated: 1
EndChar

StartChar: N
Encoding: 78 78 47
Width: 722
VWidth: 1000
Flags: W
HStem: 0 21G<68 218 499.373 661> 709 20G<68 233.653 511 661>
VStem: 68 150<0 504> 511 150<233 729>
LayerCount: 2
Fore
SplineSet
511 0 m 1
 218 504 l 1
 218 0 l 1
 68 0 l 1
 68 729 l 1
 222 729 l 1
 511 233 l 1
 511 729 l 1
 661 729 l 1
 661 0 l 1
 511 0 l 1
EndSplineSet
Validated: 1
EndChar

StartChar: O
Encoding: 79 79 48
Width: 778
VWidth: 1000
Flags: W
HStem: -23 128<299.679 482.103> 613 128<299.637 482.494>
VStem: 40 150<231.648 486.205> 592 150<230.396 485.253>
LayerCount: 2
Fore
SplineSet
390 741 m 0
 495 741 576 709 640 640 c 0
 705 570 742 468 742 354 c 0
 742 251 703 145 640 78 c 0
 577 10 495 -23 391 -23 c 0
 287 -23 205 10 142 78 c 0
 77 147 40 250 40 359 c 0
 40 468 77 570 142 640 c 0
 204 707 288 741 390 741 c 0
391 613 m 0
 270 613 190 512 190 359 c 0
 190 206 270 105 391 105 c 0
 511 105 592 206 592 355 c 0
 592 513 514 613 391 613 c 0
EndSplineSet
Validated: 1
EndChar

StartChar: P
Encoding: 80 80 49
Width: 667
VWidth: 1000
Flags: W
HStem: 0 21G<76 226> 260 125<226 449.391> 604 125<226 445.38>
VStem: 76 150<0 260 385 604> 483 150<418.391 572.07>
LayerCount: 2
Fore
SplineSet
226 260 m 1
 226 0 l 1
 76 0 l 1
 76 729 l 1
 398 729 l 2
 550 729 633 649 633 503 c 0
 633 355 547 260 413 260 c 2
 226 260 l 1
226 385 m 1
 366 385 l 2
 446 385 483 420 483 494 c 0
 483 569 446 604 366 604 c 2
 226 604 l 1
 226 385 l 1
EndSplineSet
Validated: 1
EndChar

StartChar: Q
Encoding: 81 81 50
Width: 778
VWidth: 1000
Flags: W
HStem: -23 128<302.714 480.134> 613 128<302.679 485.539>
VStem: 43 150<231.648 486.352> 595 150<221.651 486.62>
LayerCount: 2
Fore
SplineSet
665 103 m 1
 745 27 l 1
 669 -54 l 1
 583 27 l 1
 525 -8 469 -23 394 -23 c 0
 291 -23 208 10 145 78 c 0
 81 147 43 250 43 359 c 0
 43 468 81 571 145 640 c 0
 208 708 290 741 394 741 c 0
 498 741 580 708 643 640 c 0
 707 571 745 468 745 361 c 0
 745 263 714 163 665 103 c 1
480 278 m 1
 562 200 l 1
 584 244 595 298 595 358 c 0
 595 513 516 613 394 613 c 0
 273 613 193 512 193 359 c 0
 193 206 273 105 393 105 c 0
 425 105 458 112 481 124 c 1
 404 197 l 1
 480 278 l 1
EndSplineSet
Validated: 1
EndChar

StartChar: R
Encoding: 82 82 51
Width: 722
VWidth: 1000
Flags: W
HStem: 0 21G<80 230 506.5 677> 289 125<230 475.616> 604 125<230 493.506>
VStem: 80 150<0 289 414 604> 493 152<32.6447 270.934> 517 150<437.073 582.045>
LayerCount: 2
Fore
SplineSet
230 289 m 1xf8
 230 0 l 1
 80 0 l 1
 80 729 l 1
 471 729 l 2
 533 729 579 713 612 679 c 0
 647 643 667 590 667 532 c 0xf4
 667 443 626 384 544 352 c 1
 637 312 641 302 645 87 c 0
 645 55 654 40 677 27 c 1
 677 0 l 1
 516 0 l 1
 497 35 493 57 493 125 c 0
 493 136 493 154 494 173 c 0
 495 186 495 196 495 202 c 0
 495 263 467 289 402 289 c 2
 230 289 l 1xf8
230 414 m 1
 411 414 l 2
 454 414 474 419 490 433 c 0
 507 448 517 476 517 511 c 0
 517 545 508 570 490 585 c 0
 472 600 454 604 411 604 c 2
 230 604 l 1
 230 414 l 1
EndSplineSet
Validated: 1
EndChar

StartChar: S
Encoding: 83 83 52
Width: 667
VWidth: 1000
Flags: W
HStem: -23 120<237.646 445.35> 621 120<223.975 415.196>
VStem: 32 146<150.295 218> 45 143<476.485 585.956> 467 140<507 571.205> 489 144<136.724 255.033>
LayerCount: 2
Fore
SplineSet
607 507 m 1xd8
 467 507 l 1
 462 581 409 621 314 621 c 0
 237 621 188 586 188 531 c 0xd8
 188 478 219 457 326 436 c 2
 440 414 l 2
 575 388 633 328 633 213 c 0
 633 65 522 -23 334 -23 c 0
 148 -23 41 62 32 218 c 1
 178 218 l 1
 183 140 240 97 342 97 c 0
 433 97 489 134 489 195 c 0xe4
 489 254 452 282 352 301 c 2
 250 321 l 2
 102 349 45 404 45 517 c 0
 45 659 146 741 321 741 c 4
 426 741 507 712 556 658 c 0
 592 618 607 574 607 507 c 1xd8
EndSplineSet
Validated: 1
EndChar

StartChar: T
Encoding: 84 84 53
Width: 611
VWidth: 1000
Flags: W
HStem: 0 21G<235 385> 604 125<14 235 385 598>
VStem: 235 150<0 604>
LayerCount: 2
Fore
SplineSet
385 604 m 1
 385 0 l 1
 235 0 l 1
 235 604 l 1
 14 604 l 1
 14 729 l 5
 598 729 l 1
 598 604 l 1
 385 604 l 1
EndSplineSet
Validated: 1
EndChar

StartChar: U
Encoding: 85 85 54
Width: 722
VWidth: 1000
Flags: W
HStem: -23 128<271.61 458.39> 709 20G<76 226 504 654>
VStem: 76 150<150.257 729> 504 150<150.257 729>
LayerCount: 2
Fore
SplineSet
504 729 m 1
 654 729 l 1
 654 235 l 2
 654 153 632 95 583 51 c 0
 530 3 453 -23 365 -23 c 0
 277 -23 200 3 147 51 c 0
 98 95 76 153 76 235 c 2
 76 729 l 1
 226 729 l 1
 226 235 l 2
 226 147 271 105 365 105 c 0
 459 105 504 147 504 235 c 2
 504 729 l 1
EndSplineSet
Validated: 1
EndChar

StartChar: V
Encoding: 86 86 55
Width: 667
VWidth: 1000
Flags: W
HStem: 0 21G<263.251 403.859> 709 20G<24 180.902 490.208 647>
LayerCount: 2
Fore
SplineSet
397 0 m 1
 270 0 l 1
 24 729 l 1
 175 729 l 1
 337 180 l 1
 496 729 l 1
 647 729 l 1
 397 0 l 1
EndSplineSet
Validated: 1
EndChar

StartChar: W
Encoding: 87 87 56
Width: 944
VWidth: 1000
Flags: W
HStem: 0 21G<213.348 358.183 590.712 735.542> 709 20G<13 176.139 393.861 550.314 769.015 932>
LayerCount: 2
Fore
SplineSet
730 0 m 1
 595 0 l 1
 473 569 l 1
 354 0 l 1
 219 0 l 1
 13 729 l 1
 172 729 l 1
 285 183 l 1
 398 729 l 1
 546 729 l 1
 664 182 l 1
 773 729 l 1
 932 729 l 1
 730 0 l 1
EndSplineSet
Validated: 1
EndChar

StartChar: X
Encoding: 88 88 57
Width: 667
VWidth: 1000
Flags: W
HStem: 0 21G<22 206.988 463.933 653> 709 20G<30 218.667 458.833 644>
LayerCount: 2
Fore
SplineSet
419 372 m 1
 653 0 l 1
 475 0 l 1
 335 253 l 1
 196 0 l 1
 22 0 l 1
 252 367 l 1
 30 729 l 1
 208 729 l 1
 336 489 l 1
 470 729 l 1
 644 729 l 1
 419 372 l 1
EndSplineSet
Validated: 1
EndChar

StartChar: Y
Encoding: 89 89 58
Width: 667
VWidth: 1000
Flags: W
HStem: 0 21G<269 419> 709 20G<27 203.255 473.366 650>
VStem: 269 150<0 270>
LayerCount: 2
Fore
SplineSet
419 270 m 1
 419 0 l 1
 269 0 l 1
 269 270 l 1
 27 729 l 1
 194 729 l 1
 343 407 l 1
 482 729 l 1
 650 729 l 1
 419 270 l 1
EndSplineSet
Validated: 1
EndChar

StartChar: Z
Encoding: 90 90 59
Width: 611
VWidth: 1000
Flags: W
HStem: 0 125<206 578> 604 125<30 403>
LayerCount: 2
Fore
SplineSet
578 729 m 1
 578 604 l 1
 206 125 l 1
 578 125 l 1
 578 0 l 1
 30 0 l 1
 30 125 l 1
 403 604 l 1
 30 604 l 1
 30 729 l 1
 578 729 l 1
EndSplineSet
Validated: 1
EndChar

StartChar: bracketleft
Encoding: 91 91 60
Width: 333
VWidth: 1000
Flags: W
HStem: -162 102<196 308> 669 102<196 308>
VStem: 66 242<-162 -60 669 771> 66 130<-60 669>
LayerCount: 2
Fore
SplineSet
308 771 m 5xe0
 308 669 l 5xe0
 196 669 l 5
 196 -60 l 1xd0
 308 -60 l 1
 308 -162 l 1
 66 -162 l 1
 66 771 l 5
 308 771 l 5xe0
EndSplineSet
Validated: 1
EndChar

StartChar: backslash
Encoding: 92 92 61
Width: 298
VWidth: 1000
Flags: W
HStem: -14 21G<215.571 309> 694 20G<-12 81.4286>
VStem: -12 321
LayerCount: 2
Fore
SplineSet
75 714 m 5
 309 -14 l 5
 222 -14 l 1
 -12 714 l 1
 75 714 l 5
EndSplineSet
Validated: 1
EndChar

StartChar: bracketright
Encoding: 93 93 62
Width: 333
VWidth: 1000
Flags: W
HStem: -162 102<18 130> 669 102<18 130>
VStem: 18 242<-162 -60 669 771> 130 130<-60 669>
LayerCount: 2
Fore
SplineSet
18 -162 m 1xe0
 18 -60 l 1xe0
 130 -60 l 1
 130 669 l 1xd0
 18 669 l 1
 18 771 l 5
 260 771 l 1
 260 -162 l 1
 18 -162 l 1xe0
EndSplineSet
Validated: 1
EndChar

StartChar: asciicircum
Encoding: 94 94 63
Width: 584
VWidth: 1000
Flags: W
LayerCount: 2
Fore
SplineSet
522 270 m 1
 409 270 l 1
 288 570 l 1
 173 270 l 1
 61 270 l 1
 226 695 l 1
 351 695 l 1
 522 270 l 1
EndSplineSet
Validated: 1
EndChar

StartChar: underscore
Encoding: 95 95 64
Width: 556
VWidth: 1000
Flags: W
HStem: -189 69<-22 578>
LayerCount: 2
Fore
SplineSet
578 -120 m 1
 578 -189 l 1
 -22 -189 l 1
 -22 -120 l 1
 578 -120 l 1
EndSplineSet
Validated: 1
EndChar

StartChar: grave
Encoding: 96 96 65
Width: 278
VWidth: 1000
Flags: W
HStem: 469 125<122 202> 683 46<147.591 202>
VStem: 67 135<469 593.413> 67 55<594 657.916>
LayerCount: 2
Fore
SplineSet
202 469 m 1xe0
 67 469 l 1
 67 578 l 2
 67 635 80 668 112 695 c 0
 136 715 168 727 202 729 c 1
 202 683 l 1xe0
 146 673 120 644 122 594 c 1xd0
 202 594 l 1
 202 469 l 1xe0
EndSplineSet
Validated: 33
EndChar

StartChar: a
Encoding: 97 97 66
Width: 556
VWidth: 1000
Flags: W
HStem: -23 113<182.837 285.919> 0 21G<365.5 524> 436 113<194.851 345.52>
VStem: 28 140<105.748 207.492> 355 137<25.291 54 129.473 255 340.381 421.715>
LayerCount: 2
Fore
SplineSet
524 17 m 1xb8
 524 0 l 1
 372 0 l 1x78
 359 16 356 26 356 54 c 1
 307 3 252 -23 192 -23 c 0
 144 -23 97 -4 66 28 c 0
 41 55 28 93 28 139 c 0
 28 236 80 291 187 309 c 2
 243 319 l 2
 312 330 312 330 331 340 c 0
 346 348 355 364 355 382 c 0
 355 418 328 436 274 436 c 0
 205 436 182 418 175 362 c 1
 40 362 l 1
 49 487 125 549 271 549 c 0
 417 549 492 493 492 383 c 2
 492 83 l 2
 492 55 499 40 524 17 c 1xb8
355 217 m 2
 355 255 l 1
 339 247 333 245 296 238 c 2
 248 229 l 2
 190 217 168 197 168 155 c 0
 168 115 197 90 244 90 c 0xb8
 315 90 355 136 355 217 c 2
EndSplineSet
Validated: 1
EndChar

StartChar: b
Encoding: 98 98 67
Width: 611
VWidth: 1000
Flags: W
HStem: -23 117<253.597 378.762> 0 21G<59 199> 432 117<253.987 379.358> 709 20G<59 199>
VStem: 59 140<0 55 155.806 370.544 470 729> 435 140<160.942 366.754>
LayerCount: 2
Fore
SplineSet
59 729 m 1x7c
 199 729 l 1
 199 470 l 1
 233 524 281 549 348 549 c 0
 414 549 480 515 517 462 c 0
 553 410 575 336 575 263 c 0
 575 100 477 -23 348 -23 c 0xbc
 280 -23 233 2 199 55 c 1
 199 0 l 1
 59 0 l 1
 59 729 l 1x7c
317 432 m 0
 247 432 199 363 199 265 c 0
 199 162 246 94 317 94 c 0
 386 94 435 164 435 262 c 0
 435 362 386 432 317 432 c 0
EndSplineSet
Validated: 1
EndChar

StartChar: c
Encoding: 99 99 68
Width: 556
VWidth: 1000
Flags: W
HStem: -23 113<223.273 351.898> 436 113<218.8 354.568>
VStem: 34 140<146.541 382.877> 388 134<130.173 187 338 395.894>
LayerCount: 2
Fore
SplineSet
522 338 m 1
 388 338 l 1
 372 409 345 436 288 436 c 0
 248 436 217 420 201 390 c 0
 184 358 174 310 174 259 c 0
 174 154 217 90 288 90 c 0
 342 90 370 117 388 187 c 1
 522 187 l 1
 509 58 418 -23 287 -23 c 0
 127 -23 34 81 34 259 c 0
 34 443 128 549 289 549 c 0
 424 549 512 470 522 338 c 1
EndSplineSet
Validated: 1
EndChar

StartChar: d
Encoding: 100 100 69
Width: 611
VWidth: 1000
Flags: W
HStem: -23 117<224.42 349.809> 0 21G<405 545> 432 117<225.016 348.806> 709 20G<405 545>
VStem: 29 140<156.741 369.315> 405 140<0 55 154.84 369.578 470 729>
LayerCount: 2
Fore
SplineSet
405 0 m 1x7c
 405 55 l 1
 370 2 323 -23 256 -23 c 0xbc
 190 -23 124 11 87 63 c 0
 51 115 29 189 29 262 c 0
 29 425 127 549 256 549 c 0
 323 549 370 524 405 470 c 1
 405 729 l 1
 545 729 l 1
 545 0 l 1
 405 0 l 1x7c
287 432 m 0
 217 432 169 362 169 262 c 0
 169 163 217 94 287 94 c 0
 357 94 405 162 405 260 c 0
 405 363 358 432 287 432 c 0
EndSplineSet
Validated: 1
EndChar

StartChar: e
Encoding: 101 101 70
Width: 556
VWidth: 1000
Flags: W
HStem: -23 107<205.466 346.566> 226 93<164 379> 442 107<203.958 335.853>
VStem: 22 140<126.798 226 319 391.388>
LayerCount: 2
Fore
SplineSet
524 226 m 1
 162 226 l 1
 164 175 169 151 182 131 c 0
 202 101 234 84 274 84 c 0
 325 84 364 109 381 152 c 1
 519 152 l 1
 488 46 390 -23 269 -23 c 0
 116 -23 22 83 22 256 c 0
 22 437 117 549 272 549 c 0
 381 549 468 490 504 392 c 0
 517 354 525 304 525 250 c 0
 525 243 525 238 524 226 c 1
164 319 m 1
 379 319 l 1
 376 356 370 377 357 397 c 0
 337 425 305 442 270 442 c 0
 208 442 173 401 164 319 c 1
EndSplineSet
Validated: 1
EndChar

StartChar: f
Encoding: 102 102 71
Width: 333
VWidth: 1000
Flags: W
HStem: 0 21G<90 230> 436 93<14 90 230 313> 624 105<181.5 308>
VStem: 90 140<0 436 529 622.177>
LayerCount: 2
Fore
SplineSet
313 529 m 1
 313 436 l 1
 230 436 l 1
 230 0 l 1
 90 0 l 1
 90 436 l 1
 14 436 l 1
 14 529 l 1
 90 529 l 1
 90 594 l 2
 90 685 135 729 228 729 c 0
 247 729 282 728 308 726 c 1
 308 621 l 1
 296 623 280 624 268 624 c 0
 242 624 230 610 230 582 c 2
 230 529 l 1
 313 529 l 1
EndSplineSet
Validated: 1
EndChar

StartChar: g
Encoding: 103 103 72
Width: 611
VWidth: 1000
Flags: W
HStem: -218 90<214.761 364.138> -23 117<225.378 346.921> 432 117<227.633 342.412> 520 20G<408 541>
VStem: 34 140<154.8 367.485> 408 133<-83.6169 55 154.224 367.692 457 540>
LayerCount: 2
Fore
SplineSet
408 540 m 1xdc
 541 540 l 1xdc
 541 -18 l 2
 541 -145 447 -218 284 -218 c 0
 201 -218 141 -201 98 -166 c 0
 62 -136 46 -107 45 -65 c 1
 190 -65 l 1
 201 -106 236 -128 289 -128 c 0
 359 -128 408 -83 408 -18 c 2
 408 55 l 1
 356 -4 318 -23 255 -23 c 0
 122 -23 34 89 34 257 c 0
 34 424 130 549 258 549 c 0xec
 320 549 366 521 408 457 c 1
 408 540 l 1xdc
288 432 m 0xec
 220 432 174 361 174 259 c 0
 174 161 220 94 286 94 c 0
 359 94 410 161 410 259 c 0
 410 359 358 432 288 432 c 0xec
EndSplineSet
Validated: 1
EndChar

StartChar: h
Encoding: 104 104 73
Width: 611
VWidth: 1000
Flags: W
HStem: 0 21G<67 207 401 541> 430 119<271.935 376.231> 709 20G<67 207>
VStem: 67 140<0 392.862 462 729> 401 140<0 405.629>
LayerCount: 2
Fore
SplineSet
67 729 m 1
 207 729 l 1
 207 462 l 1
 246 521 296 549 365 549 c 0
 410 549 455 534 486 508 c 0
 523 477 541 429 541 362 c 2
 541 0 l 1
 401 0 l 1
 401 330 l 2
 401 365 397 379 385 397 c 0
 369 419 345 430 315 430 c 0
 252 430 207 386 207 324 c 2
 207 0 l 1
 67 0 l 1
 67 729 l 1
EndSplineSet
Validated: 1
EndChar

StartChar: i
Encoding: 105 105 74
Width: 278
VWidth: 1000
Flags: W
HStem: 0 21G<67 207> 520 20G<67 207> 604 125<67 207>
VStem: 67 140<0 540 604 729>
LayerCount: 2
Fore
SplineSet
207 540 m 1
 207 0 l 1
 67 0 l 1
 67 540 l 1
 207 540 l 1
207 729 m 1
 207 604 l 1
 67 604 l 1
 67 729 l 1
 207 729 l 1
EndSplineSet
Validated: 1
EndChar

StartChar: j
Encoding: 106 106 75
Width: 278
VWidth: 1000
Flags: W
HStem: -218 113<4 130.5> 520 20G<70 210> 604 125<70 210>
VStem: 70 140<-102.098 540 604 729>
LayerCount: 2
Fore
SplineSet
210 540 m 1
 210 -94 l 2
 210 -182 174 -218 87 -218 c 0
 67 -218 32 -216 4 -213 c 1
 4 -101 l 1
 14 -104 20 -105 29 -105 c 0
 59 -105 70 -94 70 -63 c 2
 70 540 l 1
 210 540 l 1
210 729 m 1
 210 604 l 1
 70 604 l 1
 70 729 l 1
 210 729 l 1
EndSplineSet
Validated: 1
EndChar

StartChar: k
Encoding: 107 107 76
Width: 556
VWidth: 1000
Flags: W
HStem: 0 21G<59 199 373.16 548> 520 20G<359.143 535> 709 20G<59 199>
VStem: 59 140<0 177 330 729>
LayerCount: 2
Fore
SplineSet
199 330 m 1
 376 540 l 1
 535 540 l 1
 351 336 l 1
 548 0 l 1
 384 0 l 1
 255 238 l 1
 199 177 l 1
 199 0 l 1
 59 0 l 1
 59 729 l 1
 199 729 l 1
 199 330 l 1
EndSplineSet
Validated: 1
EndChar

StartChar: l
Encoding: 108 108 77
Width: 278
VWidth: 1000
Flags: W
HStem: 0 21G<67 207> 709 20G<67 207>
VStem: 67 140<0 729>
LayerCount: 2
Fore
SplineSet
207 729 m 1
 207 0 l 1
 67 0 l 1
 67 729 l 1
 207 729 l 1
EndSplineSet
Validated: 1
EndChar

StartChar: m
Encoding: 109 109 78
Width: 889
VWidth: 1000
Flags: W
HStem: 0 21G<60 200 372 512 684 824> 430 119<255.902 356.302 555.606 667.582> 520 20G<60 199>
VStem: 60 140<0 400.015 473 540> 372 140<0 399.65> 684 140<0 410.382>
CounterMasks: 1 1c
LayerCount: 2
Fore
SplineSet
60 540 m 1xbc
 199 540 l 1xbc
 199 473 l 1
 245 528 285 549 347 549 c 0
 414 549 468 520 494 469 c 1
 536 525 584 549 652 549 c 0
 760 549 824 487 824 382 c 2
 824 0 l 1
 684 0 l 1
 684 360 l 2
 684 403 655 430 608 430 c 0
 548 430 512 390 512 324 c 2
 512 0 l 1
 372 0 l 1
 372 360 l 2
 372 403 343 430 296 430 c 0xdc
 236 430 200 390 200 324 c 2
 200 0 l 1
 60 0 l 1
 60 540 l 1xbc
EndSplineSet
Validated: 1
EndChar

StartChar: n
Encoding: 110 110 79
Width: 611
VWidth: 1000
Flags: W
HStem: 0 21G<63 203 406 546> 430 119<266.91 381.459> 520 20G<63 203>
VStem: 63 140<0 391.752 462 540> 406 140<0 404.201>
LayerCount: 2
Fore
SplineSet
63 540 m 1xb8
 203 540 l 1xb8
 203 462 l 1
 243 522 292 549 365 549 c 0
 480 549 546 481 546 362 c 2
 546 0 l 1
 406 0 l 1
 406 333 l 2
 406 397 376 430 316 430 c 0xd8
 248 430 203 388 203 324 c 2
 203 0 l 1
 63 0 l 1
 63 540 l 1xb8
EndSplineSet
Validated: 1
EndChar

StartChar: o
Encoding: 111 111 80
Width: 611
VWidth: 1000
Flags: W
HStem: -23 113<234.734 368.732> 436 113<234.417 369.482>
VStem: 35 140<156.461 369.339> 429 140<158.873 368.791>
LayerCount: 2
Fore
SplineSet
301 549 m 0
 470 549 569 442 569 259 c 0
 569 86 466 -23 302 -23 c 0
 136 -23 35 85 35 263 c 0
 35 440 136 549 301 549 c 0
302 436 m 0
 226 436 175 366 175 263 c 0
 175 160 226 90 302 90 c 0
 377 90 429 160 429 261 c 0
 429 367 379 436 302 436 c 0
EndSplineSet
Validated: 1
EndChar

StartChar: p
Encoding: 112 112 81
Width: 611
VWidth: 1000
Flags: W
HStem: -218 21G<58 198> -24 117<257.778 378.353> 432 117<257.778 379.133> 520 20G<58 198>
VStem: 58 140<-218 64 154.42 369.964 460 540> 434 140<156.121 369.53>
LayerCount: 2
Fore
SplineSet
198 540 m 1xdc
 198 460 l 1
 232 520 280 549 348 549 c 0xec
 413 549 480 515 516 464 c 0
 552 414 574 338 574 262 c 0
 574 98 478 -24 348 -24 c 0
 280 -24 232 4 198 64 c 1
 198 -218 l 1
 58 -218 l 1
 58 540 l 1
 198 540 l 1xdc
316 432 m 0
 246 432 198 363 198 262 c 0
 198 161 246 93 316 93 c 0
 385 93 434 162 434 260 c 0
 434 363 387 432 316 432 c 0
EndSplineSet
Validated: 1
EndChar

StartChar: q
Encoding: 113 113 82
Width: 611
VWidth: 1000
Flags: W
HStem: -218 21G<404 544> -24 117<222.789 344.177> 432 117<223.425 343.184> 520 20G<404 544>
VStem: 28 140<154.525 369.938> 404 140<-218 64 153.84 369.807 460 540>
LayerCount: 2
Fore
SplineSet
404 540 m 1xdc
 544 540 l 1xdc
 544 -218 l 1
 404 -218 l 1
 404 64 l 1
 371 5 321 -24 253 -24 c 0
 189 -24 122 10 86 61 c 0
 50 110 28 186 28 262 c 0
 28 427 124 549 254 549 c 0xec
 321 549 371 519 404 460 c 1
 404 540 l 1xdc
286 432 m 0xec
 216 432 168 363 168 262 c 0
 168 161 216 93 286 93 c 0
 356 93 404 161 404 259 c 0
 404 364 357 432 286 432 c 0xec
EndSplineSet
Validated: 1
EndChar

StartChar: r
Encoding: 114 114 83
Width: 389
VWidth: 1000
Flags: W
HStem: 0 21G<63 203> 410 139<275.101 370> 520 20G<63 203>
VStem: 63 140<0 371.082 434 540>
LayerCount: 2
Fore
SplineSet
63 540 m 1xb0
 203 540 l 1xb0
 203 434 l 1
 233 507 289 549 353 549 c 0
 357 549 362 549 370 548 c 1
 370 406 l 1
 351 409 341 410 326 410 c 0xd0
 244 410 203 369 203 287 c 2
 203 0 l 1
 63 0 l 1
 63 540 l 1xb0
EndSplineSet
Validated: 1
EndChar

StartChar: s
Encoding: 115 115 84
Width: 556
VWidth: 1000
Flags: W
HStem: -23 110<190.672 366.632> 439 110<198.687 350.603>
VStem: 48 140<356.713 424.217> 380 140<104.259 173.93>
LayerCount: 2
Fore
SplineSet
505 366 m 1
 370 366 l 1
 369 415 336 439 269 439 c 0
 220 439 188 419 188 389 c 0
 188 367 198 359 237 347 c 2
 414 296 l 2
 485 275 520 230 520 160 c 0
 520 107 496 57 456 25 c 0
 416 -7 359 -23 284 -23 c 0
 120 -23 33 39 29 157 c 1
 166 157 l 1
 172 128 178 117 193 106 c 0
 211 94 240 87 276 87 c 0
 341 87 380 107 380 140 c 0
 380 162 368 173 333 184 c 2
 166 236 l 2
 114 253 97 262 78 281 c 0
 59 302 48 333 48 369 c 0
 48 480 133 549 270 549 c 0
 415 549 503 480 505 366 c 1
EndSplineSet
Validated: 1
EndChar

StartChar: t
Encoding: 116 116 85
Width: 333
VWidth: 1000
Flags: W
HStem: -23 106<174 300.088> 436 93<14 83 223 301>
VStem: 83 140<88.5662 436 529 674>
LayerCount: 2
Fore
SplineSet
301 529 m 1
 301 436 l 1
 223 436 l 1
 223 142 l 2
 223 94 232 83 269 83 c 0
 279 83 287 84 301 86 c 1
 301 -12 l 1
 276 -20 251 -23 220 -23 c 0
 128 -23 83 19 83 104 c 2
 83 436 l 1
 14 436 l 1
 14 529 l 1
 83 529 l 1
 83 674 l 1
 223 674 l 1
 223 529 l 1
 301 529 l 1
EndSplineSet
Validated: 1
EndChar

StartChar: u
Encoding: 117 117 86
Width: 611
VWidth: 1000
Flags: W
HStem: -23 119<222.541 337.09> 0 21G<401 541> 520 20G<58 198 401 541>
VStem: 58 140<121.799 540> 401 140<0 64 134.248 540>
LayerCount: 2
Fore
SplineSet
541 0 m 1x78
 401 0 l 1x78
 401 64 l 1
 361 4 312 -23 239 -23 c 0
 124 -23 58 45 58 164 c 2
 58 540 l 1
 198 540 l 1
 198 193 l 2
 198 128 228 96 288 96 c 0xb8
 356 96 401 138 401 202 c 2
 401 540 l 1
 541 540 l 1
 541 0 l 1x78
EndSplineSet
Validated: 1
EndChar

StartChar: v
Encoding: 118 118 87
Width: 556
VWidth: 1000
Flags: W
HStem: 0 21G<196 356.889> 520 20G<14 167.924 382.481 536>
LayerCount: 2
Fore
SplineSet
350 0 m 1
 203 0 l 1
 14 540 l 1
 162 540 l 1
 279 145 l 1
 388 540 l 1
 536 540 l 1
 350 0 l 1
EndSplineSet
Validated: 1
EndChar

StartChar: w
Encoding: 119 119 88
Width: 778
VWidth: 1000
Flags: W
HStem: 0 21G<151.37 305.514 463.748 618.667> 520 20G<5 154.55 313.661 462.286 616.661 766>
LayerCount: 2
Fore
SplineSet
613 0 m 1
 468 0 l 1
 387 381 l 1
 301 0 l 1
 157 0 l 1
 5 540 l 1
 150 540 l 1
 236 162 l 1
 318 540 l 1
 458 540 l 1
 539 162 l 1
 621 540 l 1
 766 540 l 1
 613 0 l 1
EndSplineSet
Validated: 1
EndChar

StartChar: x
Encoding: 120 120 89
Width: 556
VWidth: 1000
Flags: W
HStem: 0 21G<16 194.952 356.167 535> 520 20G<20 198.798 352.325 531>
LayerCount: 2
Fore
SplineSet
355 272 m 1
 535 0 l 1
 367 0 l 1
 276 168 l 1
 184 0 l 1
 16 0 l 1
 196 272 l 1
 20 540 l 1
 188 540 l 1
 276 377 l 1
 363 540 l 1
 531 540 l 1
 355 272 l 1
EndSplineSet
Validated: 1
EndChar

StartChar: y
Encoding: 121 121 90
Width: 556
VWidth: 1000
Flags: W
HStem: -219 103<86 182.016> 520 20G<9 169.056 388.3 538>
LayerCount: 2
Fore
SplineSet
394 540 m 1
 538 540 l 1
 316 -99 l 1
 293 -163 276 -186 237 -202 c 0
 213 -212 171 -219 136 -219 c 0
 119 -219 107 -218 86 -215 c 1
 86 -110 l 1
 104 -115 112 -116 123 -116 c 0
 172 -116 210 -77 210 -26 c 2
 210 -23 l 1
 210 -22 l 1
 9 540 l 1
 163 540 l 1
 282 147 l 1
 394 540 l 1
EndSplineSet
Validated: 1
EndChar

StartChar: z
Encoding: 122 122 91
Width: 500
VWidth: 1000
Flags: W
HStem: 0 113<194 468> 427 113<39 288>
LayerCount: 2
Fore
SplineSet
459 540 m 1
 459 427 l 1
 194 113 l 1
 468 113 l 1
 468 0 l 1
 21 0 l 1
 21 113 l 1
 288 427 l 1
 39 427 l 1
 39 540 l 1
 459 540 l 1
EndSplineSet
Validated: 1
EndChar

StartChar: braceleft
Encoding: 123 123 92
Width: 389
VWidth: 1000
Flags: W
HStem: -200 99<240.273 317> 222 93<37 108.547> 630 99<240.085 317>
VStem: 118 117<-96.55 212.24 324.786 625.55>
LayerCount: 2
Fore
SplineSet
317 729 m 1
 317 630 l 1
 280 630 l 2
 249 630 235 613 235 573 c 2
 235 378 l 2
 235 305 213 280 138 269 c 1
 213 257 235 232 235 159 c 2
 235 -36 l 2
 235 -85 246 -101 280 -101 c 2
 317 -101 l 1
 317 -200 l 1
 241 -200 l 2
 169 -200 118 -142 118 -60 c 2
 118 150 l 2
 118 190 110 206 87 217 c 0
 76 221 69 222 41 222 c 2
 37 223 l 1
 37 315 l 1
 41 315 l 1
 53 315 l 2
 98 316 118 335 118 378 c 2
 118 589 l 2
 118 671 169 729 241 729 c 2
 317 729 l 1
EndSplineSet
Validated: 1
EndChar

StartChar: bar
Encoding: 124 124 93
Width: 280
VWidth: 1000
Flags: W
HStem: -200 21G<100 180> 709 20G<100 180>
VStem: 100 80<-200 729>
LayerCount: 2
Fore
SplineSet
180 729 m 1
 180 -200 l 1
 100 -200 l 1
 100 729 l 1
 180 729 l 1
EndSplineSet
Validated: 1
EndChar

StartChar: braceright
Encoding: 125 125 94
Width: 389
VWidth: 1000
Flags: W
HStem: -200 99<72 148.915> 214 93<280.453 352> 630 99<72 148.727>
VStem: 154 117<-96.55 204.214 316.76 625.55>
LayerCount: 2
Fore
SplineSet
72 -200 m 1
 72 -101 l 1
 109 -101 l 2
 140 -101 154 -84 154 -44 c 2
 154 151 l 2
 154 224 176 249 251 260 c 1
 176 272 154 297 154 370 c 2
 154 565 l 2
 154 614 143 630 109 630 c 2
 72 630 l 1
 72 729 l 1
 148 729 l 2
 220 729 271 671 271 589 c 2
 271 379 l 2
 271 339 279 323 302 312 c 0
 313 308 320 307 348 307 c 2
 352 306 l 1
 352 214 l 1
 348 214 l 1
 336 214 l 2
 291 213 271 194 271 151 c 2
 271 -60 l 2
 271 -142 220 -200 148 -200 c 2
 72 -200 l 1
EndSplineSet
Validated: 1
EndChar

StartChar: asciitilde
Encoding: 126 126 95
Width: 584
VWidth: 1000
Flags: W
HStem: 142 80<329.452 433.66> 234 80<145.483 251.237>
VStem: 60 78<169 206.628> 441 78<249.372 288>
LayerCount: 2
Fore
SplineSet
441 288 m 1
 519 288 l 1
 513 190 472 142 392 142 c 0
 359 142 335 150 309 168 c 2
 252 210 l 2
 229 227 212 234 191 234 c 0
 167 234 151 225 143 207 c 0
 140 199 139 195 138 169 c 1
 60 169 l 1
 65 266 108 314 187 314 c 0
 220 314 246 306 270 289 c 2
 327 247 l 2
 353 228 367 222 388 222 c 0
 412 222 428 231 436 249 c 0
 439 257 440 261 441 288 c 1
EndSplineSet
Validated: 1
EndChar

StartChar: sterling
Encoding: 163 163 96
Width: 633
VWidth: 1000
Flags: W
HStem: -23 125<297.067 519.43> 9 114<216.074 361.865> 309 68<66 122.592 291.149 409.999> 604 111<244.214 384.522>
VStem: 73 141<442.445 573.459> 176 127<179.721 307.694> 424 133<484 564.509>
LayerCount: 2
Back
SplineSet
375 371 m 1x7a
 375 316 l 1
 253 316 l 1
 265 290 268 277 268 257 c 0
 268 199 237 153 152 86 c 1
 215 116 235 123 264 123 c 0x76
 281 123 289 122 328 112 c 0
 354 105 374 102 391 102 c 0
 424 102 456 111 496 131 c 1
 537 22 l 1
 481 -11 441 -23 392 -23 c 0xb6
 365 -23 343 -19 293 -7 c 0
 245 5 221 9 195 9 c 0
 157 9 130 1 86 -21 c 1
 31 80 l 1
 115 137 141 173 141 231 c 0x76
 141 256 136 277 120 316 c 1
 31 316 l 1
 31 371 l 1
 91 371 l 1
 46 450 38 472 38 516 c 0
 38 572 66 629 112 666 c 0
 154 698 209 715 276 715 c 0
 380 715 458 676 494 605 c 0
 509 576 517 543 522 484 c 1
 390 484 l 1
 389 495 l 1
 383 541 375 559 354 577 c 0
 334 595 307 604 277 604 c 0
 220 604 179 566 179 513 c 0
 179 493 182 485 206 436 c 0
 223 401 230 386 236 371 c 1
 375 371 l 1x7a
EndSplineSet
Fore
SplineSet
268.545 377 m 1x7a
 409.999 377 l 9
 409.999 309 l 17
 291.149 309 l 1
 300.537 287.496 303 275.121 303 257 c 0
 303 199 272 153 187 86 c 1
 250 116 270 123 299 123 c 0x76
 316 123 324 122 363 112 c 0
 389 105 409 102 426 102 c 0
 459 102 491 111 531 131 c 1
 572 22 l 1
 516 -11 476 -23 427 -23 c 0xb6
 400 -23 378 -19 328 -7 c 0
 280 5 256 9 230 9 c 0
 192 9 165 1 121 -21 c 1
 66 80 l 1
 150 137 176 173 176 231 c 0x76
 176 254.462 171.596 274.4 157.83 309 c 1
 66 309 l 9
 66 377 l 17
 122.592 377 l 1
 80.5928 451.149 73 473.135 73 516 c 0
 73 572 101 629 147 666 c 1
 189 698 244 715 311 715 c 0
 415 715 493 676 529 605 c 0
 544 576 552 543 557 484 c 1
 425 484 l 1
 424 495 l 1
 418 541 410 559 389 577 c 0
 369 595 342 604 312 604 c 0
 255 604 214 566 214 513 c 0
 214 493 217 485 241 436 c 0
 255.751 405.631 262.973 390.319 268.545 377 c 1x7a
EndSplineSet
Validated: 1
EndChar

StartChar: uni0591
Encoding: 1425 1425 97
Width: 0
VWidth: 1000
Flags: W
HStem: -206.703 146.703<-40.9813 40.9813>
VStem: -124.953 73.6561<-258 -216.963> -41 82<-151.495 -60> 51.2969 73.6561<-258 -216.963>
CounterMasks: 1 70
LayerCount: 2
Back
SplineSet
35 -144.374 m 1
 83.293 -159.562 119 -205.144 119 -258 c 9
 57 -258 l 17
 57 -227 31 -201 0 -201 c 0
 -31 -201 -57 -227 -57 -258 c 9
 -119 -258 l 17
 -119 -205.144 -83.293 -159.562 -35 -144.374 c 1
 -35 -60 l 5
 35 -60 l 5
 35 -144.374 l 1
EndSplineSet
Fore
SplineSet
41 -140.11 m 1
 89.5347 -157.341 124.953 -204.062 124.953 -258 c 9
 51.2969 -258 l 17
 51.2969 -230.094 27.9062 -206.703 0 -206.703 c 0
 -27.9062 -206.703 -51.2969 -230.094 -51.2969 -258 c 9
 -124.953 -258 l 17
 -124.953 -204.062 -89.5347 -157.341 -41 -140.11 c 1
 -41 -60 l 1
 41 -60 l 1
 41 -140.11 l 1
EndSplineSet
Validated: 1
EndChar

StartChar: uni0592
Encoding: 1426 1426 98
Width: 0
VWidth: 1000
Flags: W
HStem: 660 82.354<-105.883 -23.5293 23.5293 105.883> 771.766 82.351<-41.1758 41.1758>
VStem: -105.883 82.3537<660 742.354> -41.1758 82.3516<771.766 854.117> 23.5293 82.3537<660 742.354>
LayerCount: 2
Back
SplineSet
-100 660 m 5
 -100 730.588 l 5
 -29.4121 730.588 l 5
 -29.4121 660 l 5
 -100 660 l 5
29.4111 660 m 5
 29.4111 730.588 l 5
 100 730.588 l 5
 100 660 l 5
 29.4111 660 l 5
-35.2939 783.529 m 5
 -35.2939 854.117 l 5
 35.2939 854.117 l 5
 35.2939 783.529 l 5
 -35.2939 783.529 l 5
EndSplineSet
Fore
SplineSet
-41.1758 771.766 m 1xd0
 -41.1758 854.117 l 1
 41.1758 854.117 l 1
 41.1758 771.766 l 1
 -41.1758 771.766 l 1xd0
-105.883 660 m 1xe0
 -105.883 742.354 l 1
 -23.5293 742.354 l 1
 -23.5293 660 l 1
 -105.883 660 l 1xe0
23.5293 660 m 1xc8
 23.5293 742.354 l 1
 105.883 742.354 l 1
 105.883 660 l 1
 23.5293 660 l 1xc8
EndSplineSet
Validated: 1
EndChar

StartChar: uni0593
Encoding: 1427 1427 99
Width: 0
VWidth: 1000
Flags: W
HStem: 610 283
VStem: -86 172
LayerCount: 2
Back
SplineSet
86 871 m 1
 86 825 l 1
 -1 791 l 1
 86 758 l 1
 86 711 l 1
 -86 650 l 1
 -86 701 l 1
 1 735 l 1
 -86 768 l 1
 -86 815 l 1
 4 847 l 1
 -86 881 l 1
 -86 933 l 1
 86 871 l 1
EndSplineSet
Fore
SplineSet
86 831 m 1
 86 780 l 1
 12 751 l 1
 86 723 l 1
 86 671 l 1
 -86 610 l 1
 -86 666 l 1
 -12 695 l 1
 -86 723 l 1
 -86 780 l 1
 -10 807 l 1
 -86 836 l 1
 -86 893 l 1
 86 831 l 1
EndSplineSet
Validated: 1
EndChar

StartChar: uni0594
Encoding: 1428 1428 100
Width: 0
VWidth: 1000
Flags: W
HStem: 660 82.353<-41.1758 41.1758> 771.765 82.352<-41.1758 41.1758>
VStem: -41.1758 82.3516<660 742.353 771.765 854.117>
LayerCount: 2
Back
SplineSet
-35.2949 730.588 m 1
 35.2949 730.588 l 1
 35.2949 660 l 1
 -35.2949 660 l 1
 -35.2949 730.588 l 1
-35.2949 854.117 m 1
 35.2949 854.117 l 1
 35.2949 783.529 l 1
 -35.2949 783.529 l 1
 -35.2949 854.117 l 1
EndSplineSet
Fore
SplineSet
-41.1758 742.353 m 1
 41.1758 742.353 l 1
 41.1758 660 l 1
 -41.1758 660 l 1
 -41.1758 742.353 l 1
-41.1758 854.117 m 1
 41.1758 854.117 l 1
 41.1758 771.765 l 1
 -41.1758 771.765 l 1
 -41.1758 854.117 l 1
EndSplineSet
Validated: 1
EndChar

StartChar: uni0595
Encoding: 1429 1429 101
Width: 0
VWidth: 1000
Flags: W
HStem: 660 82.353<20.8242 103.176> 771.765 82.352<20.8242 103.176>
VStem: -103.176 82.3518<660 854> 20.8242 82.3518<660 742.353 771.765 854.117>
LayerCount: 2
Back
SplineSet
26.5 731 m 1
 97.5 731 l 1
 97.5 660 l 1
 26.5 660 l 1
 26.5 731 l 1
26.5 854 m 1
 97.5 854 l 1
 97.5 784 l 1
 26.5 784 l 1
 26.5 854 l 1
-27.5 854 m 1
 -27.5 660 l 1
 -97.5 660 l 1
 -97.5 854 l 1
 -27.5 854 l 1
EndSplineSet
Fore
SplineSet
-20.8242 854 m 1
 -20.8242 660 l 1
 -103.176 660 l 1
 -103.176 854 l 1
 -20.8242 854 l 1
20.8242 742.353 m 1
 103.176 742.353 l 1
 103.176 660 l 1
 20.8242 660 l 1
 20.8242 742.353 l 1
20.8242 854.117 m 1
 103.176 854.117 l 1
 103.176 771.765 l 1
 20.8242 771.765 l 1
 20.8242 854.117 l 1
EndSplineSet
Validated: 1
EndChar

StartChar: uni0596
Encoding: 1430 1430 102
Width: 0
VWidth: 1000
Flags: W
HStem: -273 213<-10.6593 -0.402344>
VStem: -88.4023 88<-177.333 -60>
LayerCount: 2
Back
SplineSet
0.402344 -273 m 21
 -54.4277 -218.63 -82.4023 -143.258 -82.4023 -60 c 13
 -6.40234 -60 l 21
 -6.40234 -143.258 27.5723 -218.63 82.4023 -273 c 13
 0.402344 -273 l 21
EndSplineSet
Fore
SplineSet
-5.59766 -273 m 17
 -60.4277 -218.63 -88.4023 -143.258 -88.4023 -60 c 9
 -0.402344 -60 l 21
 -0.402344 -143.258 33.5723 -218.63 88.4023 -273 c 13
 -5.59766 -273 l 17
EndSplineSet
Validated: 1
EndChar

StartChar: uni0597
Encoding: 1431 1431 103
Width: 0
VWidth: 1000
Flags: W
HStem: 641.359 208.641
VStem: -104.32 208.64
LayerCount: 2
Back
SplineSet
-94.8379 755.084 m 5
 0.000976562 849.923 l 5
 94.8359 755.088 l 5
 -0.00292969 660.249 l 5
 -94.8379 755.084 l 5
EndSplineSet
Fore
SplineSet
-104.32 745.678 m 5
 0.00195312 850 l 5
 104.32 745.682 l 5
 -0.00195312 641.359 l 5
 -104.32 745.678 l 5
EndSplineSet
Validated: 1
EndChar

StartChar: uni0598
Encoding: 1432 1432 104
Width: 0
VWidth: 1000
Flags: W
HStem: 650 62.418<36.9285 95.0866> 777.5 62.5<-96.7589 -36.638>
VStem: -166.5 69<660 774.262> 96.498 70.002<715.545 830>
LayerCount: 2
Back
SplineSet
-101.932 660 m 25
 -160.436 660 l 25
 -160.436 691.149 -160.436 692.502 -160.436 744.87 c 0
 -160.436 797.238 -117.934 839.739 -65.5645 839.739 c 0
 -13.1953 839.739 29.3047 797.238 29.1973 744.87 c 0
 29.1973 724.796 45.4902 708.503 65.5645 708.503 c 0
 85.6406 708.503 101.932 724.796 101.932 744.87 c 0
 101.932 764.945 101.932 796.799 101.932 830 c 25
 160.436 830 l 25
 160.436 796.799 160.436 797.238 160.436 744.87 c 0
 160.436 692.502 117.934 650 65.5645 650 c 0
 13.1953 650 -29.3047 692.502 -29.3047 744.87 c 0
 -29.1973 764.945 -45.4902 781.237 -65.5645 781.237 c 0
 -85.6406 781.237 -101.932 764.945 -101.932 744.87 c 0
 -101.932 724.796 -101.932 693.1 -101.932 660 c 25
EndSplineSet
Fore
SplineSet
35 744.5 m 0
 38.5264 723.004 48.8691 712.418 65.5811 712.418 c 0
 82.293 712.418 96.498 725.788 96.498 742.5 c 0
 96.498 759.212 96.499 795.875 96.5 830 c 25
 166.5 830 l 25
 166.5 752 l 2
 166.5 686 132.5 650 65.5 650 c 0
 4.5 650 -22.5 681.5 -34 746.5 c 0
 -37.6758 767.278 -49.5 777.5 -66.5 777.5 c 0
 -83.5 777.5 -97.6738 763.499 -97.5 747.5 c 2
 -97.5 660 l 25
 -166.5 660 l 25
 -166.5 738 l 2
 -166.5 803.5 -131.5 840 -65.5 840 c 0
 -6.5 840 24.5 808.5 35 744.5 c 0
EndSplineSet
Validated: 33
EndChar

StartChar: uni0599
Encoding: 1433 1433 105
Width: 0
VWidth: 1000
Flags: W
HStem: 660 213<0.402344 10.6593>
VStem: 0.402344 88<660 777.333>
LayerCount: 2
Back
SplineSet
-0.402344 873 m 21
 54.4277 818.63 82.4023 743.258 82.4023 660 c 9
 6.40234 660 l 17
 6.40234 743.258 -27.5723 818.63 -82.4023 873 c 9
 -0.402344 873 l 21
EndSplineSet
Fore
SplineSet
5.59766 873 m 21
 60.4277 818.63 88.4023 743.258 88.4023 660 c 13
 0.402344 660 l 17
 0.402344 743.258 -33.5723 818.63 -88.4023 873 c 9
 5.59766 873 l 21
EndSplineSet
Validated: 1
EndChar

StartChar: uni059A
Encoding: 1434 1434 106
Width: 0
VWidth: 1000
Flags: W
HStem: -281.504 261.008
VStem: -94.75 189.334
LayerCount: 2
Back
SplineSet
35.6709 -38.4961 m 1
 85.584 -88.4092 l 1
 14.0762 -159.917 l 1
 85.75 -231.591 l 1
 35.8369 -281.504 l 1
 -85.75 -159.917 l 1
 35.6709 -38.4961 l 1
EndSplineSet
Fore
SplineSet
35.6709 -20.4961 m 1
 94.584 -79.4092 l 1
 23.0762 -150.917 l 1
 94.75 -222.591 l 1
 35.8369 -281.504 l 1
 -94.75 -150.917 l 1
 35.6709 -20.4961 l 1
EndSplineSet
Validated: 1
EndChar

StartChar: uni059B
Encoding: 1435 1435 107
Width: 0
VWidth: 1000
Flags: W
HStem: -142.353 82.353<-117.85 -35.498>
VStem: -117.85 82.352<-142.353 -60> 29.8496 88.0004<-177.333 -60>
LayerCount: 2
Back
SplineSet
-108.849 -60 m 1
 -38.2588 -60 l 1
 -38.2588 -130.588 l 1
 -108.849 -130.588 l 1
 -108.849 -60 l 1
26.0439 -273 m 13
 -55.9561 -273 l 17
 -1.12598 -218.63 32.8486 -143.258 32.8486 -60 c 9
 108.849 -60 l 17
 108.849 -143.258 80.874 -218.63 26.0439 -273 c 13
EndSplineSet
Fore
SplineSet
-117.85 -60 m 1
 -35.498 -60 l 1
 -35.498 -142.353 l 1
 -117.85 -142.353 l 1
 -117.85 -60 l 1
35.0449 -273 m 13
 -58.9551 -273 l 17
 -4.125 -218.63 29.8496 -143.258 29.8496 -60 c 9
 117.85 -60 l 21
 117.85 -143.258 89.875 -218.63 35.0449 -273 c 13
EndSplineSet
Validated: 1
EndChar

StartChar: uni059C
Encoding: 1436 1436 108
Width: 0
VWidth: 1000
Flags: W
HStem: 660 213<-10.6593 -0.402344>
VStem: -88.4023 88<660 777.333>
LayerCount: 2
Back
SplineSet
0.402344 873 m 13
 82.4023 873 l 17
 27.5723 818.63 -6.40234 743.258 -6.40234 660 c 9
 -82.4023 660 l 17
 -82.4023 743.258 -54.4277 818.63 0.402344 873 c 13
EndSplineSet
Fore
SplineSet
-5.59766 873 m 9
 88.4023 873 l 21
 33.5723 818.63 -0.402344 743.258 -0.402344 660 c 13
 -88.4023 660 l 17
 -88.4023 743.258 -60.4277 818.63 -5.59766 873 c 9
EndSplineSet
Validated: 1
EndChar

StartChar: uni059D
Encoding: 1437 1437 109
Width: 0
VWidth: 1000
Flags: W
HStem: 660 213<-10.6593 -0.402344>
VStem: -88.4023 88<660 777.333>
LayerCount: 2
Back
SplineSet
0.402344 873 m 13
 82.4023 873 l 17
 27.5723 818.63 -6.40234 743.258 -6.40234 660 c 9
 -82.4023 660 l 17
 -82.4023 743.258 -54.4277 818.63 0.402344 873 c 13
EndSplineSet
Fore
SplineSet
-5.59766 873 m 9
 88.4023 873 l 21
 33.5723 818.63 -0.402344 743.258 -0.402344 660 c 13
 -88.4023 660 l 17
 -88.4023 743.258 -60.4277 818.63 -5.59766 873 c 9
EndSplineSet
Validated: 1
EndChar

StartChar: uni059E
Encoding: 1438 1438 110
Width: 0
VWidth: 1000
Flags: W
HStem: 660 213<-80.6593 -70.4023 59.3407 69.5977>
VStem: -158.402 87.9997<660 777.333> -18.4023 88<660 777.333>
LayerCount: 2
Back
SplineSet
70.4023 873 m 13
 152.402 873 l 17
 97.5723 818.63 63.5977 743.258 63.5977 660 c 9
 -12.4023 660 l 17
 -12.4023 743.258 15.5723 818.63 70.4023 873 c 13
-69.5977 873 m 13
 12.4023 873 l 17
 -42.4277 818.63 -76.4023 743.258 -76.4023 660 c 9
 -152.402 660 l 17
 -152.402 743.258 -124.428 818.63 -69.5977 873 c 13
EndSplineSet
Fore
SplineSet
64.4023 873 m 9
 158.402 873 l 21
 103.572 818.63 69.5977 743.258 69.5977 660 c 13
 -18.4023 660 l 17
 -18.4023 743.258 9.57227 818.63 64.4023 873 c 9
-75.5977 873 m 9
 18.4023 873 l 21
 -36.4277 818.63 -70.4023 743.258 -70.4023 660 c 13
 -158.402 660 l 17
 -158.402 743.258 -130.428 818.63 -75.5977 873 c 9
EndSplineSet
Validated: 1
EndChar

StartChar: uni059F
Encoding: 1439 1439 111
Width: 0
VWidth: 1000
Flags: W
HStem: 663.953 58.498<-198.102 -131.041 131.041 198.102> 795.188 58.5<-198.102 -131.335 131.335 198.102>
VStem: -259.594 58.513<725.438 792.206> -128.356 58.5122<753.098 791.432> 69.8438 58.5122<753.098 791.432> 201.081 58.513<725.438 792.206>
LayerCount: 2
Back
SplineSet
164.719 804.281 m 0
 139.625 804.281 119.266 783.922 119.266 758.828 c 0
 119.266 733.734 139.625 713.359 164.719 713.359 c 0
 189.812 713.359 210.172 733.734 210.172 758.828 c 0
 210.172 783.922 189.812 804.281 164.719 804.281 c 0
100.192 689.291 m 1
 45.25 663.672 l 1
 15.4062 727.641 l 1
 70.0146 753.098 l 1
 69.9014 754.993 69.8438 756.904 69.8438 758.828 c 0
 69.8438 811.188 112.344 853.688 164.719 853.688 c 0
 217.094 853.688 259.594 811.188 259.594 758.828 c 0
 259.594 706.453 217.094 663.953 164.719 663.953 c 0
 139.805 663.953 117.126 673.569 100.192 689.291 c 1
-164.719 804.281 m 0
 -189.812 804.281 -210.172 783.922 -210.172 758.828 c 0
 -210.172 733.734 -189.812 713.359 -164.719 713.359 c 0
 -139.625 713.359 -119.266 733.734 -119.266 758.828 c 0
 -119.266 783.922 -139.625 804.281 -164.719 804.281 c 0
-100.192 689.291 m 1
 -117.126 673.569 -139.805 663.953 -164.719 663.953 c 0
 -217.094 663.953 -259.594 706.453 -259.594 758.828 c 0
 -259.594 811.188 -217.094 853.688 -164.719 853.688 c 0
 -112.344 853.688 -69.8438 811.188 -69.8438 758.828 c 0
 -69.8438 756.904 -69.9014 754.993 -70.0146 753.098 c 1
 -15.4062 727.641 l 1
 -45.25 663.672 l 1
 -100.192 689.291 l 1
EndSplineSet
Fore
SplineSet
164.719 795.188 m 4
 144.644 795.188 128.356 778.901 128.356 758.826 c 4
 128.356 738.751 144.644 722.451 164.719 722.451 c 4
 184.793 722.451 201.081 738.751 201.081 758.826 c 4
 201.081 778.901 184.793 795.188 164.719 795.188 c 4
100.192 689.291 m 1
 45.25 663.672 l 1
 15.4062 727.641 l 1
 70.0146 753.098 l 1
 69.9014 754.993 69.8438 756.904 69.8438 758.828 c 0
 69.8438 811.188 112.344 853.688 164.719 853.688 c 0
 217.094 853.688 259.594 811.188 259.594 758.828 c 0
 259.594 706.453 217.094 663.953 164.719 663.953 c 0
 139.805 663.953 117.126 673.569 100.192 689.291 c 1
-164.719 795.188 m 0
 -184.793 795.188 -201.081 778.901 -201.081 758.826 c 0
 -201.081 738.751 -184.793 722.451 -164.719 722.451 c 0
 -144.644 722.451 -128.356 738.751 -128.356 758.826 c 0
 -128.356 778.901 -144.644 795.188 -164.719 795.188 c 0
-100.192 689.291 m 1
 -117.126 673.569 -139.805 663.953 -164.719 663.953 c 0
 -217.094 663.953 -259.594 706.453 -259.594 758.828 c 0
 -259.594 811.188 -217.094 853.688 -164.719 853.688 c 0
 -112.344 853.688 -69.8438 811.188 -69.8438 758.828 c 0
 -69.8438 756.904 -69.9014 754.993 -70.0146 753.098 c 1
 -15.4062 727.641 l 1
 -45.25 663.672 l 1
 -100.192 689.291 l 1
EndSplineSet
Validated: 1
EndChar

StartChar: uni05A0
Encoding: 1440 1440 112
Width: 0
VWidth: 1000
Flags: W
HStem: 663.953 58.498<-6.45897 60.6023> 795.188 58.5<-6.16474 60.6023>
VStem: -67.6562 58.5126<753.098 791.432> 63.5811 58.5129<725.438 792.206>
LayerCount: 2
Back
SplineSet
27.2188 804.281 m 0
 2.125 804.281 -18.2344 783.922 -18.2344 758.828 c 0
 -18.2344 733.734 2.125 713.359 27.2188 713.359 c 0
 52.3125 713.359 72.6719 733.734 72.6719 758.828 c 0
 72.6719 783.922 52.3125 804.281 27.2188 804.281 c 0
-37.3076 689.291 m 1
 -92.25 663.672 l 1
 -122.094 727.641 l 1
 -67.4854 753.098 l 1
 -67.5986 754.993 -67.6562 756.904 -67.6562 758.828 c 0
 -67.6562 811.188 -25.1562 853.688 27.2188 853.688 c 0
 79.5938 853.688 122.094 811.188 122.094 758.828 c 0
 122.094 706.453 79.5938 663.953 27.2188 663.953 c 0
 2.30469 663.953 -20.374 673.569 -37.3076 689.291 c 1
EndSplineSet
Fore
SplineSet
27.2188 795.188 m 4
 7.14355 795.188 -9.14355 778.901 -9.14355 758.826 c 4
 -9.14355 738.751 7.14355 722.451 27.2188 722.451 c 4
 47.2939 722.451 63.5811 738.751 63.5811 758.826 c 4
 63.5811 778.901 47.2939 795.188 27.2188 795.188 c 4
-37.3076 689.291 m 1
 -92.25 663.672 l 1
 -122.094 727.641 l 1
 -67.4854 753.098 l 1
 -67.5986 754.993 -67.6562 756.904 -67.6562 758.828 c 0
 -67.6562 811.188 -25.1562 853.688 27.2188 853.688 c 0
 79.5938 853.688 122.094 811.188 122.094 758.828 c 0
 122.094 706.453 79.5938 663.953 27.2188 663.953 c 0
 2.30469 663.953 -20.374 673.569 -37.3076 689.291 c 1
EndSplineSet
Validated: 1
EndChar

StartChar: uni05A1
Encoding: 1441 1441 113
Width: 0
VWidth: 1000
Flags: W
HStem: 704 74<-36.5 32.1761>
VStem: -118.5 82<660 704 778 848> 44.5 74<790.678 848>
LayerCount: 2
Back
SplineSet
-42.5 710 m 1
 -42.5 660 l 1
 -112.5 660 l 1
 -112.5 848 l 1
 -42.5 848 l 1
 -42.5 772 l 1
 -6.5 772 l 2
 25.5 772 50.5 798 50.5 829 c 1
 50.5 848 l 1
 112.5 848 l 1
 112.5 829 l 1
 112.5 764 59.5 710 -6.5 710 c 2
 -42.5 710 l 1
EndSplineSet
Fore
SplineSet
-36.5 704 m 1
 -36.5 660 l 1
 -118.5 660 l 1
 -118.5 848 l 1
 -36.5 848 l 1
 -36.5 778 l 1
 -12.5 778 l 2
 19.5 778 44.5 804 44.5 835 c 1
 44.5 848 l 1
 118.5 848 l 1
 118.5 823 l 1
 118.5 758 65.5 704 -0.5 704 c 2
 -36.5 704 l 1
EndSplineSet
Validated: 1
EndChar

StartChar: uni05A3
Encoding: 1443 1443 114
Width: 0
VWidth: 1000
Flags: W
HStem: -260 82.588<-125.117 42.5293>
VStem: 42.5293 82.5877<-177.412 -60>
LayerCount: 2
Back
SplineSet
125.117 -60 m 1
 125.117 -260 l 1
 -125.117 -260 l 1
 -125.117 -189.412 l 1
 54.5293 -189.412 l 1
 54.5293 -60 l 1
 125.117 -60 l 1
EndSplineSet
Fore
SplineSet
125.117 -60 m 1
 125.117 -260 l 1
 -125.117 -260 l 1
 -125.117 -177.412 l 1
 42.5293 -177.412 l 5
 42.5293 -60 l 5
 125.117 -60 l 1
EndSplineSet
Validated: 1
EndChar

StartChar: uni05A4
Encoding: 1444 1444 115
Width: 0
VWidth: 1000
Flags: W
HStem: -281.504 261.008
VStem: -94.75 189.334
LayerCount: 2
Back
SplineSet
35.6709 -38.4961 m 1
 85.584 -88.4092 l 1
 14.0762 -159.917 l 1
 85.75 -231.591 l 1
 35.8369 -281.504 l 1
 -85.75 -159.917 l 1
 35.6709 -38.4961 l 1
EndSplineSet
Fore
SplineSet
35.6709 -20.4961 m 1
 94.584 -79.4092 l 1
 23.0762 -150.917 l 1
 94.75 -222.591 l 1
 35.8369 -281.504 l 1
 -94.75 -150.917 l 1
 35.6709 -20.4961 l 1
EndSplineSet
Validated: 1
EndChar

StartChar: uni05A5
Encoding: 1445 1445 116
Width: 0
VWidth: 1000
Flags: W
HStem: -273 213<0.402344 10.6593>
VStem: 0.402344 88<-177.333 -60>
LayerCount: 2
Back
SplineSet
-0.402344 -273 m 13
 -82.4023 -273 l 17
 -27.5723 -218.63 6.40234 -143.258 6.40234 -60 c 9
 82.4023 -60 l 17
 82.4023 -143.258 54.4277 -218.63 -0.402344 -273 c 13
EndSplineSet
Fore
SplineSet
5.59766 -273 m 13
 -88.4023 -273 l 17
 -33.5723 -218.63 0.402344 -143.258 0.402344 -60 c 9
 88.4023 -60 l 21
 88.4023 -143.258 60.4277 -218.63 5.59766 -273 c 13
EndSplineSet
Validated: 1
EndChar

StartChar: uni05A6
Encoding: 1446 1446 117
Width: 0
VWidth: 1000
Flags: W
HStem: -273 213<18.4023 28.6593 158.402 168.659>
VStem: -69.5977 88<-177.333 -60> 70.4023 87.9997<-177.333 -60>
LayerCount: 2
Back
SplineSet
-70.4023 -273 m 13
 -152.402 -273 l 17
 -97.5723 -218.63 -63.5977 -143.258 -63.5977 -60 c 9
 12.4023 -60 l 17
 12.4023 -143.258 -15.5723 -218.63 -70.4023 -273 c 13
69.5977 -273 m 13
 -12.4023 -273 l 17
 42.4277 -218.63 76.4023 -143.258 76.4023 -60 c 9
 152.402 -60 l 17
 152.402 -143.258 124.428 -218.63 69.5977 -273 c 13
EndSplineSet
Fore
SplineSet
-64.4023 -273 m 9
 -158.402 -273 l 17
 -103.572 -218.63 -69.5977 -143.258 -69.5977 -60 c 9
 18.4023 -60 l 17
 18.4023 -143.258 -9.57227 -218.63 -64.4023 -273 c 9
75.5977 -273 m 13
 -18.4023 -273 l 21
 36.4277 -218.63 70.4023 -143.258 70.4023 -60 c 13
 158.402 -60 l 21
 158.402 -143.258 130.428 -218.63 75.5977 -273 c 13
EndSplineSet
Validated: 1
EndChar

StartChar: uni05A7
Encoding: 1447 1447 118
Width: 0
VWidth: 1000
Flags: W
HStem: -257.647 68.47<-108.883 -12> -128.471 68.471<11.998 108.883>
VStem: -109 218<-257.647 -201.177 -116.471 -60>
LayerCount: 2
Back
SplineSet
99 -60 m 1
 98.8828 -116.471 l 1
 -14.0596 -116.471 l 1
 98.7637 -201.177 l 1
 99 -257.647 l 1
 -99 -257.647 l 1
 -98.8828 -201.177 l 1
 14.0576 -201.177 l 1
 -98.7656 -116.471 l 1
 -99 -60 l 1
 99 -60 l 1
EndSplineSet
Fore
SplineSet
109 -60 m 1
 108.883 -128.471 l 1
 11.998 -128.471 l 1
 108.764 -201.177 l 1
 109 -257.647 l 1
 -109 -257.647 l 1
 -108.883 -189.177 l 1
 -12 -189.177 l 1
 -108.766 -116.471 l 1
 -109 -60 l 1
 109 -60 l 1
EndSplineSet
Validated: 1
EndChar

StartChar: uni05A8
Encoding: 1448 1448 119
Width: 0
VWidth: 1000
Flags: W
HStem: 660 213<0.402344 10.6593>
VStem: 0.402344 88<660 777.333>
LayerCount: 2
Back
SplineSet
-0.402344 873 m 21
 54.4277 818.63 82.4023 743.258 82.4023 660 c 9
 6.40234 660 l 17
 6.40234 743.258 -27.5723 818.63 -82.4023 873 c 9
 -0.402344 873 l 21
EndSplineSet
Fore
SplineSet
5.59766 873 m 21
 60.4277 818.63 88.4023 743.258 88.4023 660 c 13
 0.402344 660 l 17
 0.402344 743.258 -33.5723 818.63 -88.4023 873 c 9
 5.59766 873 l 21
EndSplineSet
Validated: 1
EndChar

StartChar: uni05A9
Encoding: 1449 1449 120
Width: 0
VWidth: 1000
Flags: W
HStem: 663.953 58.498<-60.6023 6.45897> 795.188 58.5<-60.6023 6.16474>
VStem: -122.094 58.5129<725.438 792.206> 9.14355 58.5126<753.098 791.432>
LayerCount: 2
Back
SplineSet
-27.2188 804.281 m 0
 -52.3125 804.281 -72.6719 783.922 -72.6719 758.828 c 0
 -72.6719 733.734 -52.3125 713.359 -27.2188 713.359 c 0
 -2.125 713.359 18.2344 733.734 18.2344 758.828 c 0
 18.2344 783.922 -2.125 804.281 -27.2188 804.281 c 0
37.3076 689.291 m 1
 20.374 673.569 -2.30469 663.953 -27.2188 663.953 c 0
 -79.5938 663.953 -122.094 706.453 -122.094 758.828 c 0
 -122.094 811.188 -79.5938 853.688 -27.2188 853.688 c 0
 25.1562 853.688 67.6562 811.188 67.6562 758.828 c 0
 67.6562 756.904 67.5986 754.993 67.4854 753.098 c 1
 122.094 727.641 l 1
 92.25 663.672 l 1
 37.3076 689.291 l 1
EndSplineSet
Fore
SplineSet
-27.2188 795.188 m 4
 -47.2939 795.188 -63.5811 778.901 -63.5811 758.826 c 4
 -63.5811 738.751 -47.2939 722.451 -27.2188 722.451 c 4
 -7.14355 722.451 9.14355 738.751 9.14355 758.826 c 4
 9.14355 778.901 -7.14355 795.188 -27.2188 795.188 c 4
37.3076 689.291 m 1
 20.374 673.569 -2.30469 663.953 -27.2188 663.953 c 0
 -79.5938 663.953 -122.094 706.453 -122.094 758.828 c 0
 -122.094 811.188 -79.5938 853.688 -27.2188 853.688 c 0
 25.1562 853.688 67.6562 811.188 67.6562 758.828 c 0
 67.6562 756.904 67.5986 754.993 67.4854 753.098 c 1
 122.094 727.641 l 1
 92.25 663.672 l 1
 37.3076 689.291 l 1
EndSplineSet
Validated: 1
EndChar

StartChar: uni05AA
Encoding: 1450 1450 121
Width: 0
VWidth: 1000
Flags: W
HStem: -185 73.703<-43.0376 43.0376>
VStem: -125 73.7031<-102.965 -60> 51.2969 73.7001<-102.965 -60>
LayerCount: 2
Back
SplineSet
35 -173.626 m 1
 35 -258 l 1
 -35 -258 l 1
 -35 -173.626 l 1
 -83.293 -158.438 -119 -112.855 -119 -60 c 9
 -57 -60 l 17
 -57 -91 -31 -117 0 -117 c 0
 31 -117 57 -91 57 -60 c 9
 119 -60 l 17
 119 -112.855 83.293 -158.438 35 -173.626 c 1
EndSplineSet
Fore
SplineSet
124.997 -60 m 17
 125 -129 69 -185 0 -185 c 0
 -69 -185 -125 -129 -125 -60 c 9
 -51.2969 -60 l 17
 -51.2969 -87.9062 -27.9062 -111.297 0 -111.297 c 0
 27.9062 -111.297 51.2969 -87.9062 51.2969 -60 c 9
 124.997 -60 l 17
EndSplineSet
Validated: 33
EndChar

StartChar: uni05AB
Encoding: 1451 1451 122
Width: 0
VWidth: 1000
Flags: W
HStem: 618.992 261.008
VStem: -94.75 189.334
LayerCount: 2
Back
SplineSet
35.6709 879.504 m 5
 85.584 829.591 l 5
 14.0762 758.083 l 5
 85.75 686.409 l 5
 35.8369 636.496 l 5
 -85.75 758.083 l 5
 35.6709 879.504 l 5
EndSplineSet
Fore
SplineSet
35.6709 880 m 1
 94.584 821.087 l 1
 23.0762 749.579 l 1
 94.75 677.905 l 1
 35.8369 618.992 l 1
 -94.75 749.579 l 1
 35.6709 880 l 1
EndSplineSet
Validated: 1
EndChar

StartChar: uni05AC
Encoding: 1452 1452 123
Width: 0
VWidth: 1000
Flags: W
HStem: 660 82.588<-125.117 42.5293>
VStem: 42.5293 82.5877<742.588 860>
LayerCount: 2
Back
SplineSet
125.117 860 m 1
 125.117 660 l 1
 -125.117 660 l 1
 -125.117 730.588 l 1
 54.5293 730.588 l 1
 54.5293 860 l 1
 125.117 860 l 1
EndSplineSet
Fore
SplineSet
125.117 860 m 1
 125.117 660 l 1
 -125.117 660 l 1
 -125.117 742.588 l 5
 42.5293 742.588 l 5
 42.5293 860 l 1
 125.117 860 l 1
EndSplineSet
Validated: 1
EndChar

StartChar: uni05AD
Encoding: 1453 1453 124
Width: 0
VWidth: 1000
Flags: W
HStem: -273 213<-10.6593 -0.402344>
VStem: -88.4023 88<-177.333 -60>
LayerCount: 2
Back
SplineSet
0.402344 -273 m 21
 -54.4277 -218.63 -82.4023 -143.258 -82.4023 -60 c 9
 -6.40234 -60 l 17
 -6.40234 -143.258 27.5723 -218.63 82.4023 -273 c 9
 0.402344 -273 l 21
EndSplineSet
Fore
SplineSet
-5.59766 -273 m 17
 -60.4277 -218.63 -88.4023 -143.258 -88.4023 -60 c 9
 -0.402344 -60 l 21
 -0.402344 -143.258 33.5723 -218.63 88.4023 -273 c 13
 -5.59766 -273 l 17
EndSplineSet
Validated: 1
EndChar

StartChar: uni05AE
Encoding: 1454 1454 125
Width: 0
VWidth: 1000
Flags: W
HStem: 650 62.418<36.9285 95.0866> 777.5 62.5<-96.7589 -36.638>
VStem: -166.5 69<660 774.262> 96.498 70.002<715.545 830>
LayerCount: 2
Back
SplineSet
-101.932 660 m 25
 -160.436 660 l 25
 -160.436 691.149 -160.436 692.502 -160.436 744.87 c 0
 -160.436 797.238 -117.934 839.739 -65.5645 839.739 c 0
 -13.1953 839.739 29.3047 797.238 29.1973 744.87 c 0
 29.1973 724.796 45.4902 708.503 65.5645 708.503 c 0
 85.6406 708.503 101.932 724.796 101.932 744.87 c 0
 101.932 764.945 101.932 796.799 101.932 830 c 25
 160.436 830 l 25
 160.436 796.799 160.436 797.238 160.436 744.87 c 0
 160.436 692.502 117.934 650 65.5645 650 c 0
 13.1953 650 -29.3047 692.502 -29.3047 744.87 c 0
 -29.1973 764.945 -45.4902 781.237 -65.5645 781.237 c 0
 -85.6406 781.237 -101.932 764.945 -101.932 744.87 c 0
 -101.932 724.796 -101.932 693.1 -101.932 660 c 25
EndSplineSet
Fore
SplineSet
35 744.5 m 0
 38.5264 723.004 48.8691 712.418 65.5811 712.418 c 0
 82.293 712.418 96.498 725.788 96.498 742.5 c 0
 96.498 759.212 96.499 795.875 96.5 830 c 25
 166.5 830 l 25
 166.5 752 l 2
 166.5 686 132.5 650 65.5 650 c 0
 4.5 650 -22.5 681.5 -34 746.5 c 0
 -37.6758 767.278 -49.5 777.5 -66.5 777.5 c 0
 -83.5 777.5 -97.6738 763.499 -97.5 747.5 c 2
 -97.5 660 l 25
 -166.5 660 l 25
 -166.5 738 l 2
 -166.5 803.5 -131.5 840 -65.5 840 c 0
 -6.5 840 24.5 808.5 35 744.5 c 0
EndSplineSet
Validated: 33
EndChar

StartChar: uni05AF
Encoding: 1455 1455 126
Width: 0
VWidth: 1000
Flags: W
HStem: 640.235 73.129<-38.9958 38.9958> 804.281 73.129<-38.9958 38.9958>
VStem: -118.588 73.129<719.828 797.818> 45.459 73.129<719.828 797.818>
LayerCount: 2
Back
SplineSet
0 815.646 m 0
 -31.3672 815.646 -56.8242 790.19 -56.8242 758.823 c 0
 -56.8242 727.457 -31.3672 702 0 702 c 4
 31.3672 702 56.8242 727.457 56.8242 758.823 c 4
 56.8242 790.19 31.3672 815.646 0 815.646 c 0
0 877.41 m 0
 65.4609 877.41 118.588 824.284 118.588 758.823 c 4
 118.588 693.363 65.4609 640.235 0 640.235 c 4
 -65.4609 640.235 -118.588 693.363 -118.588 758.823 c 0
 -118.588 824.284 -65.4609 877.41 0 877.41 c 0
EndSplineSet
Fore
SplineSet
0 804.281 m 4
 -25.0938 804.281 -45.459 783.917 -45.459 758.823 c 4
 -45.459 733.73 -25.0938 713.364 0 713.364 c 4
 25.0938 713.364 45.459 733.73 45.459 758.823 c 4
 45.459 783.917 25.0938 804.281 0 804.281 c 4
0 877.41 m 0
 65.4609 877.41 118.588 824.284 118.588 758.823 c 0
 118.588 693.363 65.4609 640.235 0 640.235 c 0
 -65.4609 640.235 -118.588 693.363 -118.588 758.823 c 0
 -118.588 824.284 -65.4609 877.41 0 877.41 c 0
EndSplineSet
Validated: 1
EndChar

StartChar: afii57674
Encoding: 1498 1498 127
Width: 533
VWidth: 1000
Flags: W
HStem: -200 21G<344 483> 485 115<25 286.003>
VStem: 344 139<-200 428.37>
AnchorPoint: "DiaToBaseD" 204 0 basechar 0
AnchorPoint: "DiaToBaseU" 254 0 basechar 0
AnchorPoint: "DiaToBase3" 254 0 basechar 0
AnchorPoint: "DiaToBase2" 150 0 basechar 0
AnchorPoint: "DiaToBase1" 200 0 basechar 0
LayerCount: 2
Back
SplineSet
520 374 m 130
 520 -200 l 1
 381 -200 l 17
 381 365 l 130
 381 431.3 321.482 485 248 485 c 2
 62 485 l 5
 62 600 l 1
 260 600 l 2
 403.65 600 520 498.865 520 374 c 130
EndSplineSet
Fore
SplineSet
344 -200 m 25
 344 320 l 18
 344 345 343 378 336 398 c 0
 329 418 319 436 302 450 c 0
 285 464 265 473 242 479 c 0
 225 483 203 485 180 485 c 2
 25 485 l 1
 25 600 l 1
 187 600 l 2
 226 600 257 598 289 592 c 0
 332 584 368 568 399 543 c 0
 431 517 454 485 467 448 c 0
 481 408 483 355 483 308 c 10
 483 -200 l 25
 344 -200 l 25
EndSplineSet
Validated: 1
Comment: "%DiaToBase1+AD0A-200+AAoA%DiaToBase2+AD0A-150+AAoA%DiaToBase3+AD0A-254+AAoA%DiaToBaseO+AD0A-0+AAoA%DiaToBaseU+AD0A-254+AAoA" 
EndChar

StartChar: afii57675
Encoding: 1499 1499 128
Width: 542
VWidth: 1000
Flags: W
HStem: 0 115<55 315> 485 115<55 315.003>
VStem: 374 138<169.54 428.37>
AnchorPoint: "DiaToBaseD" 236 0 basechar 0
AnchorPoint: "DiaToBaseU" 255 0 basechar 0
AnchorPoint: "DiaToBase3" 283 0 basechar 0
AnchorPoint: "DiaToBase2" 265 0 basechar 0
AnchorPoint: "DiaToBase1" 273 0 basechar 0
LayerCount: 2
Back
SplineSet
274 0 m 130
 76 0 l 257
 76 115 l 257
 262 115 l 130
 335.482 115 395 168.7 395 235 c 386
 395 365 l 386
 395 431.3 335.482 485 262 485 c 2
 76 485 l 257
 76 600 l 257
 274 600 l 2
 417.65 600 534 498.865 534 374 c 386
 534 226 l 130
 534 101.135 417.65 0 274 0 c 130
EndSplineSet
Fore
SplineSet
216 0 m 6
 55 0 l 1
 55 115 l 1
 210 115 l 6
 233 115 254 117 271 121 c 4
 294 127 315 136 332 150 c 4
 349 164 359 181 366 201 c 4
 373 221 374 255 374 280 c 6
 374 320 l 6
 374 345 373 378 366 398 c 4
 359 418 349 436 332 450 c 4
 315 464 294 473 271 479 c 4
 254 483 233 485 210 485 c 6
 55 485 l 1
 55 600 l 1
 216 600 l 6
 255 600 286 598 318 592 c 4
 361 584 398 568 429 543 c 4
 461 517 483 485 496 448 c 4
 510 408 512 355 512 308 c 6
 512 291 l 6
 512 244 510 192 496 152 c 4
 483 115 461 83 429 57 c 4
 398 32 361 16 318 8 c 4
 286 2 254 0 216 0 c 6
EndSplineSet
Validated: 1
Substitution2: "WideLetters" uniFB24
Comment: "%DiaToBase1+AD0A-273+AAoA%DiaToBase2+AD0A-265+AAoA%DiaToBase3+AD0A-283+AAoA%DiaToBaseO+AD0A-0+AAoA%DiaToBaseU+AD0A-255+AAoA" 
EndChar

StartChar: afii57676
Encoding: 1500 1500 129
Width: 598
VWidth: 1000
Flags: W
HStem: 0 115<204 333.578> 485 115<179 406>
VStem: 40 139<600 750>
AnchorPoint: "DiaToBaseD" 264 20 basechar 0
AnchorPoint: "DiaToBaseO" -60 0 basechar 0
AnchorPoint: "DiaToBaseU" 293 0 basechar 0
AnchorPoint: "DiaToBase3" 293 0 basechar 0
AnchorPoint: "DiaToBase2" 300 0 basechar 0
AnchorPoint: "DiaToBase1" 265 0 basechar 0
LayerCount: 2
Back
SplineSet
447.5 485 m 1
 62 485 l 1
 62 750 l 1
 201 750 l 1
 201 600 l 1
 595 600 l 1
 574 300 l 2
 569 225 559 161 542 121 c 0
 526 84 504 54 472 32 c 0
 443 12 402 0 348 0 c 2
 246 0 l 25
 246 115 l 25
 290.5 115 l 18
 333.5 115 361.5 128 378.5 145 c 0
 396.5 162 409.5 189 418.5 215 c 0
 429.5 247 434.107 285.022 436.5 321 c 2
 447.5 485 l 1
410 101 m 2
 410 0 l 1
 271 0 l 1
 271 91 l 2
 271 138.382 275 188 307 233 c 0
 355 299 417 312 433 337 c 0
 452 365 456 385.541 456 425 c 10
 456 485 l 257
 62 485 l 257
 62 750 l 257
 201 750 l 257
 201 600 l 257
 595 600 l 257
 595 412 l 274
 595 371.888 590 333 559 287 c 0
 513 218 449 202 433 183 c 0
 412 157 410 141 410 101 c 2
EndSplineSet
Fore
SplineSet
406 485 m 5
 40 485 l 1
 40 750 l 1
 179 750 l 1
 179 600 l 1
 553 600 l 5
 536 360 l 6
 530 270 518 193 498 145 c 4
 479 101 452 64 414 38 c 4
 379 14 330 0 265 0 c 6
 204 0 l 29
 204 115 l 29
 248 115 l 22
 291 115 320 126 338 142 c 4
 357 160 372 182 380 212 c 4
 390 250 392 285 394 321 c 6
 406 485 l 5
EndSplineSet
Validated: 1
Substitution2: "WideLetters" uniFB25
Comment: "%DiaToBase1+AD0A-265+AAoA%DiaToBase2+AD0A-300+AAoA%DiaToBase3+AD0A-293+AAoA%DiaToBaseO+AD0A--60+AAoA%DiaToBaseU+AD0A-293+AAoA" 
EndChar

StartChar: afii57677
Encoding: 1501 1501 130
Width: 669
VWidth: 1000
Flags: W
HStem: 0 115<219 475> 485 115<219 436.201>
VStem: 80 139<115 485> 475 139<115 447.779>
AnchorPoint: "DiaToBaseD" 349 0 basechar 0
AnchorPoint: "DiaToBaseU" 337 0 basechar 0
AnchorPoint: "DiaToBase3" 337 0 basechar 0
AnchorPoint: "DiaToBase2" 337 0 basechar 0
AnchorPoint: "DiaToBase1" 337 0 basechar 0
LayerCount: 2
Back
SplineSet
613 374 m 386
 613 0 l 1
 80 0 l 1
 80 600 l 1
 353 600 l 2
 496.65 600 613 498.865 613 374 c 386
341 485 m 2
 219 485 l 1
 219 115 l 1
 474 115 l 1
 474 365 l 130
 474 431.3 414.482 485 341 485 c 2
EndSplineSet
Fore
SplineSet
475 115 m 1
 475 341 l 2
 475 369 475 392 469 415 c 0
 464 432 455 447 441 458 c 0
 427 469 407 476 389 480 c 0
 370 484 348 485 322 485 c 2
 219 485 l 1
 219 115 l 1
 475 115 l 1
614 0 m 9
 80 0 l 17
 80 600 l 1
 332 600 l 2
 370 600 411 597 440 593 c 0
 477 587 511 575 540 554 c 0
 567 535 587 510 600 478 c 0
 609 455 614 418 614 367 c 2
 614 0 l 9
EndSplineSet
Validated: 1
Substitution2: "WideLetters" uniFB26
Comment: "%DiaToBase1+AD0A-337+AAoA%DiaToBase2+AD0A-337+AAoA%DiaToBase3+AD0A-337+AAoA%DiaToBaseO+AD0A-0+AAoA%DiaToBaseU+AD0A-337+AAoA" 
EndChar

StartChar: afii57678
Encoding: 1502 1502 131
Width: 667
VWidth: 1000
Flags: W
HStem: 0 115<300 471> 485 115<64 156 264.481 401.621>
AnchorPoint: "DiaToBaseD" 340 0 basechar 0
AnchorPoint: "DiaToBaseU" 330 0 basechar 0
AnchorPoint: "DiaToBase3" 335 0 basechar 0
AnchorPoint: "DiaToBase2" 345 0 basechar 0
AnchorPoint: "DiaToBase1" 345 0 basechar 0
LayerCount: 2
Back
SplineSet
171 485 m 1xe0
 79 485 l 1
 79 600 l 1
 287 600 l 2
 333 600 367 598 403 592 c 0
 451 584 493 570 529 546 c 0
 565 522 592 490 606 455 c 0
 622 417 627 374 629 323 c 2xe0
 640 0 l 1
 308 0 l 1
 320 115 l 1
 496 115 l 1xd0
 487 299 l 2
 485 334 481 364 474 387 c 0
 467 409 454 429 436 445 c 0
 417 461 395 472 369 478 c 0
 349 483 328 485 300 485 c 2
 291 485 l 1
 267 440 253 400 243 354 c 0
 232 303 226 257 221 208 c 2
 200 0 l 1
 60 0 l 1
 80 192 l 2
 84 236 90 286 100 337 c 0
 111 395 135 445 171 485 c 1xe0
EndSplineSet
Fore
SplineSet
156 485 m 1
 64 485 l 1
 64 600 l 1
 295.199 600 l 6
 336.6 600 367.199 598.199 399.6 592.8 c 4
 442.8 585.6 480.6 573 513 551.399 c 4
 545.399 529.8 569.699 501 582.3 469.5 c 4
 596.699 435.3 601.199 396.6 603 350.699 c 6
 615 0 l 1
 288 0 l 1
 300 115 l 1
 471 115 l 1
 459.949 326.9 l 6
 458.25 356.65 454.85 382.15 448.899 401.7 c 4
 442.949 420.4 431.899 437.4 416.6 451 c 4
 400.449 464.601 381.75 473.95 359.649 479.05 c 4
 342.649 483.3 324.8 485 301 485 c 6
 276 485 l 1
 252 440 238 400 228 354 c 0
 217 303 211 257 206 208 c 2
 185 0 l 1
 45 0 l 1
 65 192 l 2
 69 236 75 286 85 337 c 0
 96 395 120 445 156 485 c 1
EndSplineSet
Validated: 1
Comment: "%DiaToBase1+AD0A-345+AAoA%DiaToBase2+AD0A-345+AAoA%DiaToBase3+AD0A-335+AAoA%DiaToBaseO+AD0A-0+AAoA%DiaToBaseU+AD0A-330+AAoA" 
EndChar

StartChar: afii57679
Encoding: 1503 1503 132
Width: 274
VWidth: 1000
Flags: W
HStem: -200 21G<65 204> 580 20G<65 204>
VStem: 65 139<-200 600>
AnchorPoint: "DiaToBaseD" 71 0 basechar 0
AnchorPoint: "DiaToBaseU" 149 0 basechar 0
AnchorPoint: "DiaToBase3" 149 0 basechar 0
AnchorPoint: "DiaToBase2" 149 0 basechar 0
AnchorPoint: "DiaToBase1" 149 0 basechar 0
LayerCount: 2
Fore
SplineSet
65 -200 m 1
 65 600 l 1
 204 600 l 5
 204 -200 l 1
 65 -200 l 1
EndSplineSet
Validated: 1
Comment: "%DiaToBase1+AD0A-149+AAoA%DiaToBase2+AD0A-149+AAoA%DiaToBase3+AD0A-149+AAoA%DiaToBaseO+AD0A-0+AAoA%DiaToBaseU+AD0A-149+AAoA" 
EndChar

StartChar: afii57680
Encoding: 1504 1504 133
Width: 391
VWidth: 1000
Flags: W
HStem: 0 115<50 197> 485 115<61 171.84>
VStem: 197 139<115 459.041>
AnchorPoint: "DiaToBaseD" 107 0 basechar 0
AnchorPoint: "DiaToBaseU" 190 0 basechar 0
AnchorPoint: "DiaToBase3" 198 0 basechar 0
AnchorPoint: "DiaToBase2" 198 0 basechar 0
AnchorPoint: "DiaToBase1" 198 0 basechar 0
LayerCount: 2
Back
SplineSet
87 485 m 258
 84 485 l 269
 84 600 l 273
 99 600 l 2
 242.65 600 359 498.865 359 374 c 386
 359 0 l 1
 73 0 l 257
 73 115 l 257
 220 115 l 257
 220 365 l 386
 220 431.3 160.482 485 87 485 c 258
EndSplineSet
Fore
SplineSet
96 485 m 2
 61 485 l 9
 61 600 l 17
 124 600 l 6
 153 600 174 599 197 595 c 4
 228 590 255 577 277 559 c 4
 300 541 316 517 325 490 c 4
 335 461 336 423 336 390 c 6
 336 0 l 1
 50 0 l 1
 50 115 l 1
 197 115 l 1
 197 384 l 2
 197 399 195 420 191 432 c 0
 187 444 180 454 170 463 c 0
 160 472 148 478 134 481 c 0
 123 484 111 485 96 485 c 2
EndSplineSet
Validated: 1
Comment: "%DiaToBase1+AD0A-198+AAoA%DiaToBase2+AD0A-198+AAoA%DiaToBase3+AD0A-198+AAoA%DiaToBaseO+AD0A-0+AAoA%DiaToBaseU+AD0A-190+AAoA" 
EndChar

StartChar: afii57681
Encoding: 1505 1505 134
Width: 653
VWidth: 1000
Flags: W
HStem: -8 115<266.703 417.941> 485 115<209.001 431.88>
VStem: 70 139.001<162.989 485> 473.999 139.001<162.989 442.062>
AnchorPoint: "DiaToBaseD" 343 0 basechar 0
AnchorPoint: "DiaToBaseU" 321 0 basechar 0
AnchorPoint: "DiaToBase3" 330 0 basechar 0
AnchorPoint: "DiaToBase2" 345 0 basechar 0
AnchorPoint: "DiaToBase1" 340 0 basechar 0
LayerCount: 2
Back
SplineSet
449 348 m 6
 449 369 446 396 441 413 c 4
 436 430 428 443 416 455 c 4
 403 467 388 475 370 479 c 4
 357 482 341 485 323 485 c 6
 194 485 l 1
 194 286 l 2
 194 247 193 212 207 180 c 0
 225 138 270 107 321 107 c 0
 372 107 418 138 436 180 c 0
 450 212 449 247 449 286 c 2
 449 348 l 6
55 600 m 1
 320 600 l 6
 356 600 384 598 413 593 c 4
 452 586 485 573 513 551 c 4
 542 529 562 500 574 468 c 4
 587 433 588 389 588 348 c 6
 588 294 l 2
 588 233 588 172 559 118 c 0
 520 45 426 -8 321 -8 c 0
 216 -8 123 45 84 118 c 0
 55 172 55 232 55 294 c 2
 55 600 l 1
EndSplineSet
Fore
SplineSet
473.999 348 m 2
 473.999 369 470.882 396 465.686 413 c 0
 460.489 430 452.176 443 439.705 455 c 0
 426.195 467 410.607 475 391.901 479 c 0
 378.392 482 361.765 485 343.059 485 c 2
 209.001 485 l 1
 209.001 286 l 2
 209.001 247 207.962 212 222.511 180 c 0
 241.216 138 287.98 107 340.98 107 c 0
 393.98 107 441.784 138 460.489 180 c 0
 475.038 212 473.999 247 473.999 286 c 2
 473.999 348 l 2
70 600 m 1
 339.972 600 l 2
 376.647 600 405.173 598 434.717 593 c 0
 474.448 586 508.067 573 536.593 551 c 0
 566.137 529 586.512 500 598.737 468 c 0
 611.98 433 613 389 613 348 c 2
 613 294 l 2
 613 233 613 172 583.455 118 c 0
 543.724 45 447.96 -8 340.99 -8 c 0
 234.021 -8 139.276 45 99.5449 118 c 0
 70 172 70 232 70 294 c 2
 70 600 l 1
EndSplineSet
Validated: 33
Comment: "%DiaToBase1+AD0A-340+AAoA%DiaToBase2+AD0A-345+AAoA%DiaToBase3+AD0A-330+AAoA%DiaToBaseO+AD0A-0+AAoA%DiaToBaseU+AD0A-321+AAoA" 
EndChar

StartChar: afii57682
Encoding: 1506 1506 135
Width: 645
VWidth: 1000
Flags: W
HStem: 580 20G<60 204.515 456.563 600>
AnchorPoint: "DiaToBaseD" 347 66 basechar 0
AnchorPoint: "DiaToBaseU" 315 0 basechar 0
AnchorPoint: "DiaToBase3" 315 0 basechar 0
AnchorPoint: "DiaToBase2" 315 0 basechar 0
AnchorPoint: "DiaToBase1" 315 0 basechar 0
LayerCount: 2
Back
SplineSet
346 136 m 1
 404 154 440 202 440 262 c 2
 440 600 l 1
 579 600 l 257
 579 252 l 2
 579 143 483.625 46.5632 377 21 c 2
 60 -55 l 1
 60 65 l 1
 212 101 l 1
 99 600 l 1
 241 600 l 1
 346 136 l 1
EndSplineSet
Fore
SplineSet
600 600 m 17
 575 248 l 2
 566 124 481 47 373 22 c 2
 50 -55 l 1
 51 66 l 1
 173 96 l 1
 60 600 l 5
 200 600 l 1
 307 126 l 1
 349 138 l 2
 401 152 429 192 433 252 c 2
 458 600 l 1
 600 600 l 17
EndSplineSet
Validated: 1
Substitution2: "MiscSAlt" uniFB20
Substitution2: "Single Substitution lookup 11 subtable" uniFB20
Comment: "%DiaToBase1+AD0A-315+AAoA%DiaToBase2+AD0A-315+AAoA%DiaToBase3+AD0A-315+AAoA%DiaToBaseO+AD0A-0+AAoA%DiaToBaseU+AD0A-315+AAoA" 
EndChar

StartChar: afii57683
Encoding: 1507 1507 136
Width: 623
VWidth: 1000
Flags: W
HStem: -200 21G<434 573> 177 114<211.658 302> 485 115<194 395.201>
VStem: 55 139<308.448 485> 434 139<-200 447.779>
AnchorPoint: "DiaToBaseD" 321 80 basechar 0
AnchorPoint: "DiaToBaseU" 314 0 basechar 0
AnchorPoint: "DiaToBase3" 314 0 basechar 0
AnchorPoint: "DiaToBase2" 314 0 basechar 0
AnchorPoint: "DiaToBase1" 314 0 basechar 0
LayerCount: 2
Back
SplineSet
211 407 m 130
 211 378.822 235.612 356 266 356 c 130
 319 356 l 1
 319 241 l 1
 254 241 l 130
 153.445 241 72 311.258 72 398 c 130
 72 600 l 1
 330 600 l 2
 473.65 600 590 498.865 590 374 c 130
 590 -200 l 1
 451 -200 l 17
 451 365 l 130
 451 431.3 391.482 485 318 485 c 2
 211 485 l 1
 211 407 l 130
EndSplineSet
Fore
SplineSet
194 384 m 6
 194 370 196 351 199 340 c 4
 202 329 207 319 215 311 c 4
 223 303 234 297 245 294 c 4
 253 292 264 291 276 291 c 12
 286 291 302 293 302 293 c 5
 302 179 l 5
 302 179 276 177 259 177 c 20
 233 177 211 178 189 182 c 4
 160 187 136 197 114 212 c 4
 92 228 78 248 69 271 c 4
 56 305 55 340 55 382 c 6
 55 600 l 1
 291 600 l 2
 329 600 370 597 399 593 c 0
 436 587 470 575 499 554 c 0
 526 535 546 510 559 478 c 0
 568 455 573 418 573 367 c 2
 573 -200 l 1
 434 -200 l 17
 434 341 l 2
 434 369 434 392 428 415 c 0
 423 432 414 447 400 458 c 0
 386 469 366 476 348 480 c 0
 329 484 307 485 281 485 c 2
 194 485 l 1
 194 384 l 6
EndSplineSet
Validated: 1
Comment: "%DiaToBase1+AD0A-314+AAoA%DiaToBase2+AD0A-314+AAoA%DiaToBase3+AD0A-314+AAoA%DiaToBaseO+AD0A-0+AAoA%DiaToBaseU+AD0A-314+AAoA" 
EndChar

StartChar: afii57684
Encoding: 1508 1508 137
Width: 632
VWidth: 1000
Flags: W
HStem: 0 115<80 399.042> 239 114<235.699 321.998> 485 115<219 399.053>
VStem: 80 139<370.819 485> 453.999 138.887<167.78 431.882>
AnchorPoint: "DiaToBaseD" 379 84 basechar 0
AnchorPoint: "DiaToBaseU" 320 0 basechar 0
AnchorPoint: "DiaToBase3" 326 0 basechar 0
AnchorPoint: "DiaToBase2" 320 0 basechar 0
AnchorPoint: "DiaToBase1" 326 0 basechar 0
LayerCount: 2
Back
SplineSet
70 444 m 130
 70 600 l 1
 291 600 l 2
 330 600 361 598 393 592 c 0
 436 584 473 568 504 543 c 0
 536 517 558 485 571 448 c 0
 585 408 587 355 587 308 c 2
 587 291 l 2
 587 244 585 192 571 152 c 0
 558 115 536 83 504 57 c 0
 473 32 436 16 393 8 c 0
 361 2 329 0 291 0 c 130
 70 0 l 257
 70 115 l 257
 285 115 l 130
 308 115 329 117 346 121 c 0
 369 127 390 136 407 150 c 0
 424 164 434 181 441 201 c 0
 448 221 449 255 449 280 c 2
 449 320 l 2
 449 345 448 378 441 398 c 0
 434 418 424 436 407 450 c 0
 390 464 369 473 346 479 c 0
 329 483 308 485 285 485 c 258
 209 485 l 257
 209 446 l 386
 209 432 211 413 214 402 c 0
 217 391 222 381 230 373 c 0
 238 365 249 359 260 356 c 0
 268 354 279 353 291 353 c 8
 301 353 317 355 317 355 c 1
 317 241 l 1
 317 241 291 239 274 239 c 16
 248 239 226 240 204 244 c 0
 175 249 151 259 129 274 c 0
 107 290 93 310 84 333 c 0
 71 367 70 404 70 444 c 130
EndSplineSet
Fore
SplineSet
80 444 m 2
 80 600 l 1
 306 600 l 2
 343.799 600 373.845 598 404.859 592 c 0
 446.535 584 482.396 568 512.441 543 c 0
 543.456 517 564.779 485 577.379 448 c 0
 590.947 408 592.886 355 592.886 308 c 2
 592.886 291 l 2
 592.886 244 590.947 192 577.379 152 c 0
 564.779 115 543.456 83 512.441 57 c 0
 482.396 32 446.535 16 404.859 8 c 0
 373.845 2 342.83 0 306 0 c 2
 80 0 l 257
 80 115 l 257
 300 115 l 2
 321.598 115 341.316 117 357.28 121 c 0
 378.878 127 398.597 136 414.561 150 c 0
 430.523 164 439.914 181 446.487 201 c 0
 453.061 221 453.999 255 453.999 280 c 2
 453.999 320 l 2
 453.999 345 453.061 378 446.487 398 c 0
 439.914 418 430.523 436 414.561 450 c 0
 398.597 464 378.878 473 357.28 479 c 0
 341.316 483 321.598 485 300 485 c 258
 219 485 l 257
 219 446 l 258
 219 432 220.907 413 223.769 402 c 0
 226.63 391 231.398 381 239.027 373 c 0
 246.657 365 257.148 359 267.639 356 c 0
 275.269 354 285.759 353 297.203 353 c 8
 306.905 353 322 355 322 355 c 1
 321.998 241 l 1
 321.998 241 296.317 239 279.869 239 c 16
 254.396 239 232.841 240 211.286 244 c 0
 182.874 249 159.359 259 137.806 274 c 0
 116.251 290 102.534 310 93.7168 333 c 0
 80.9795 367 80 404 80 444 c 2
EndSplineSet
Validated: 1
Comment: "%DiaToBase1+AD0A-326+AAoA%DiaToBase2+AD0A-320+AAoA%DiaToBase3+AD0A-326+AAoA%DiaToBaseO+AD0A-0+AAoA%DiaToBaseU+AD0A-320+AAoA" 
EndChar

StartChar: afii57685
Encoding: 1509 1509 138
Width: 598
VWidth: 1000
Flags: W
HStem: -200 21G<206 345> 580 20G<0.9375 166.099 416.014 558>
VStem: 206 139<-200 199>
AnchorPoint: "DiaToBaseD" 319 173 basechar 0
AnchorPoint: "DiaToBaseU" 279 0 basechar 0
AnchorPoint: "DiaToBase3" 279 0 basechar 0
AnchorPoint: "DiaToBase2" 279 0 basechar 0
AnchorPoint: "DiaToBase1" 279 0 basechar 0
LayerCount: 2
Back
SplineSet
309 297 m 1
 327 302 344 311 355 322 c 0
 369 336 380 354 387 375 c 0
 394 397 401 432 404 459 c 2
 418 600 l 1
 558 600 l 1
 544 464 l 2
 539 416 531 362 514 322 c 0
 498 285 477 255 445 233 c 0
 416 213 383 204 345 201 c 1
 345 -200 l 1
 206 -200 l 1
 206 199 l 5
 5 592 l 5
 156 600 l 1
 309 297 l 1
309 317 m 1
 327 322 344 331 355 342 c 0
 369 356 380 374 387 395 c 0
 394 417 401 452 404 479 c 2
 418 600 l 1
 558 600 l 1
 544 484 l 2
 539 436 531 382 514 342 c 0
 498 305 477 275 445 253 c 0
 416 233 383 224 345 221 c 1
 345 -200 l 1
 206 -200 l 1
 206 227 l 1
 5 600 l 1
 156 600 l 1
 309 317 l 1
EndSplineSet
Fore
SplineSet
309 297 m 1
 327 302 344 311 355 322 c 0
 369 336 380 354 387 375 c 0
 394 397 401 432 404 459 c 2
 418 600 l 1
 558 600 l 1
 544 464 l 2
 539 416 531 362 514 322 c 0
 498 285 477 255 445 233 c 0
 416 213 383 204 345 201 c 1
 345 -200 l 1
 206 -200 l 1
 206 199 l 1
 0.9375 600 l 1
 156 600 l 1
 309 297 l 1
EndSplineSet
Validated: 1
Comment: "%DiaToBase1+AD0A-279+AAoA%DiaToBase2+AD0A-279+AAoA%DiaToBase3+AD0A-279+AAoA%DiaToBaseO+AD0A-0+AAoA%DiaToBaseU+AD0A-279+AAoA" 
EndChar

StartChar: afii57686
Encoding: 1510 1510 139
Width: 609
VWidth: 1000
Flags: W
HStem: 0 115<55.2334 353.466> 580 20G<30 219.811 419.233 558.233>
VStem: 419.233 139<340.062 600>
AnchorPoint: "DiaToBaseD" 161 -83 basechar 0
AnchorPoint: "DiaToBaseU" 315 0 basechar 0
AnchorPoint: "DiaToBase3" 314 0 basechar 0
AnchorPoint: "DiaToBase2" 305 0 basechar 0
AnchorPoint: "DiaToBase1" 304 0 basechar 0
LayerCount: 2
Back
SplineSet
540 71 m 5
 540 0 l 5
 66 0 l 1
 66 115 l 1
 355 115 l 5
 40 600 l 5
 199 600 l 5
 259 507 319 414 379 321 c 5
 394 333 403 346 409 361 c 4
 418 381 420 405 420 442 c 6
 420 600 l 5
 559 600 l 5
 559 461 l 6
 559 418 555 383 545 352 c 4
 535 323 519 298 494 276 c 4
 478 262 456.667 247.667 431.668 239.333 c 5
 465.668 186.333 506 124 540 71 c 5
EndSplineSet
Fore
SplineSet
539.233 71 m 1
 539.233 0 l 1
 55.2334 0 l 1
 55.2334 115 l 1
 353.466 115 l 1
 30 600 l 1
 189 600 l 1
 250.623 507 312.246 414 373.87 321 c 1
 391.733 333.5 402.233 346 408.233 361 c 0
 417.233 381 419.233 405 419.233 442 c 2
 419.233 600 l 1
 558.233 600 l 1
 558.233 461 l 2
 558.233 418 554.233 383 544.233 352 c 0
 534.233 323 518.233 298 493.233 276 c 0
 477.233 262 452.816 247.667 427.963 239.333 c 1
 462.889 186.333 504.309 124 539.233 71 c 1
EndSplineSet
Validated: 1
Comment: "%DiaToBase1+AD0A-304+AAoA%DiaToBase2+AD0A-305+AAoA%DiaToBase3+AD0A-314+AAoA%DiaToBaseO+AD0A-0+AAoA%DiaToBaseU+AD0A-315+AAoA" 
EndChar

StartChar: afii57687
Encoding: 1511 1511 140
Width: 669
VWidth: 1000
Flags: W
HStem: -200 21G<80 219> 0 115<304 428.572> 485 115<80 470>
VStem: 80 139<-200 371> 470 139<156.247 485>
AnchorPoint: "DiaToBaseD" 344 0 basechar 0
AnchorPoint: "DiaToBaseU" 440 0 basechar 0
AnchorPoint: "DiaToBase3" 440 0 basechar 0
AnchorPoint: "DiaToBase2" 405 0 basechar 0
AnchorPoint: "DiaToBase1" 350 0 basechar 0
LayerCount: 2
Back
SplineSet
335 115 m 6
 354 115 368 118 381 121 c 4
 399 125 414 133 427 145 c 4
 439 157 447 170 452 187 c 4
 457 204 460 231 460 252 c 134
 460 485 l 5
 80 485 l 1
 80 600 l 1
 599 600 l 5
 599 252 l 134
 599 212 598 167 585 132 c 4
 573 100 553 71 524 49 c 4
 496 27 463 14 424 7 c 4
 395 2 367 0 331 0 c 134
 299 0 l 9
 299 115 l 129
 335 115 l 6
219 371 m 1
 219 -200 l 1
 80 -200 l 1
 80 371 l 1
 219 371 l 1
EndSplineSet
Fore
SplineSet
345 115 m 2
 364 115 378 118 391 121 c 0
 409 125 424 133 437 145 c 0
 449 157 457 170 462 187 c 0
 467 204 470 231 470 252 c 2
 470 485 l 1
 80 485 l 1
 80 600 l 1
 609 600 l 1
 609 252 l 2
 609 212 608 167 595 132 c 0
 583 100 563 71 534 49 c 0
 506 27 473 14 434 7 c 0
 405 2 377 0 341 0 c 2
 304 0 l 9
 304 115 l 1
 345 115 l 2
219 371 m 1
 219 -200 l 1
 80 -200 l 1
 80 371 l 1
 219 371 l 1
EndSplineSet
Validated: 1
Comment: "%DiaToBase1+AD0A-350+AAoA%DiaToBase2+AD0A-405+AAoA%DiaToBase3+AD0A-440+AAoA%DiaToBaseO+AD0A-0+AAoA%DiaToBaseU+AD0A-440+AAoA" 
EndChar

StartChar: afii57688
Encoding: 1512 1512 141
Width: 542
VWidth: 1000
Flags: W
HStem: 0 21G<348 487> 485 115<20 309.201>
VStem: 348 139<0 447.779>
AnchorPoint: "DiaToBaseD" 210 0 basechar 0
AnchorPoint: "DiaToBaseU" 350 0 basechar 0
AnchorPoint: "DiaToBase3" 280 0 basechar 0
AnchorPoint: "DiaToBase2" 370 0 basechar 0
AnchorPoint: "DiaToBase1" 410 0 basechar 0
LayerCount: 2
Back
SplineSet
530 374 m 386
 530 0 l 257
 391 0 l 257
 391 365 l 386
 391 431.3 331.482 485 258 485 c 258
 63 485 l 257
 63 600 l 257
 270 600 l 2
 413.65 600 530 498.865 530 374 c 386
EndSplineSet
Fore
SplineSet
20 485 m 1
 20 600 l 1
 205 600 l 2
 243 600 284 597 313 593 c 0
 350 587 384 575 413 554 c 0
 440 535 460 510 473 478 c 0
 482 455 487 418 487 367 c 2
 487 0 l 1
 348 0 l 1
 348 341 l 2
 348 369 348 392 342 415 c 0
 337 432 328 447 314 458 c 0
 300 469 280 476 262 480 c 0
 243 484 221 485 195 485 c 2
 20 485 l 1
EndSplineSet
Validated: 1
Substitution2: "WideLetters" uniFB27
Comment: "%DiaToBase1+AD0A-410+AAoA%DiaToBase2+AD0A-370+AAoA%DiaToBase3+AD0A-280+AAoA%DiaToBaseO+AD0A-0+AAoA%DiaToBaseU+AD0A-350+AAoA" 
EndChar

StartChar: afii57689
Encoding: 1513 1513 142
Width: 795
VWidth: 1000
Flags: W
HStem: -5 114.045<294.666 525.334> 223.928 100.072<211.989 312.227> 580 20G<65 204 340 479 616 755>
VStem: 65 139<324 600> 340 139<351.04 600> 616 139<199.414 600>
AnchorPoint: "DiaToBaseD" 510 -56 basechar 0
AnchorPoint: "DiaToBaseU" 405 0 basechar 0
AnchorPoint: "DiaToBase3" 405 0 basechar 0
AnchorPoint: "DiaToBase2" 405 0 basechar 0
AnchorPoint: "DiaToBase1" 405 0 basechar 0
LayerCount: 2
Back
SplineSet
335 434 m 6
 335 600 l 5
 474 600 l 5
 474 423 l 6
 474 395 471 369 466 348 c 4
 460 320 449 296 433 276 c 4
 417 256 398 244 375 236 c 4
 352 228 317 224 288 224 c 4
 258 224 231 229 207 241 c 5
 214 214 226 188 239 172 c 4
 254 151 274 139 296 131 c 4
 319 123 355 115 383 115 c 6
 399 115 l 6
 431 115 466 119 500 131 c 4
 525 139 547 151 565 172 c 4
 584 193 596 218 603 247 c 4
 608 268 611 294 611 324 c 6
 611 600 l 5
 750 600 l 5
 750 355 l 6
 750 308 747 270 740 232 c 4
 730 181 709 136 678 99 c 4
 646 61 604 35 557 19 c 4
 511 4 452 -5 398 -5 c 4
 339 -5 280 3 236 19 c 4
 193 34 155 61 126 99 c 4
 98 136 78 181 69 232 c 4
 62 270 60 309 60 355 c 6
 60 600 l 5
 199 600 l 5
 199 324 l 5
 230 324 l 6
 246 324 267 326 280 330 c 4
 293 334 303 341 312 352 c 4
 321 363 328 376 331 392 c 4
 334 404 335 418 335 434 c 6
EndSplineSet
Fore
SplineSet
211.833 241.405 m 1
 218.275 214.855 229.91 190.904 246.137 171.143 c 0
 264.864 148.453 289.443 132.929 316.948 123.375 c 0
 343.869 114.418 378.397 109.045 409.999 109.045 c 0
 441.603 109.045 476.131 114.418 503.052 123.375 c 0
 530.557 132.929 555.136 148.453 573.863 171.143 c 0
 592.005 193.235 604.295 220.105 610.146 250.558 c 0
 614.244 273.247 616 295.938 616 324 c 2
 616 600 l 1
 755 600 l 1
 755 355 l 2
 755 308 752.06 270 745.199 232 c 0
 735.396 181 714.815 136 684.432 99 c 0
 653.068 61 611.904 35 565.839 19 c 0
 520.754 4 462.927 -5 409.999 -5 c 0
 357.073 -5 299.246 4 254.161 19 c 0
 208.096 35 166.932 61 135.568 99 c 0
 105.185 136 84.6025 181 74.8008 232 c 0
 67.9404 270 65 308 65 355 c 2
 65 600 l 1
 204 600 l 1
 204 324 l 1
 235 324 l 2
 251 324 272 326 285 330 c 0
 298 334 308 341 317 352 c 0
 326 363 333 376 336 392 c 0
 339 404 340 418 340 434 c 2
 340 600 l 1
 479 600 l 1
 479 423 l 2
 479 397.01 477.491 375.997 473.97 354.984 c 0
 468.939 326.782 458.376 301.896 442.783 281.438 c 0
 426.688 260.424 405.561 246.047 381.92 237.199 c 0
 358.781 228.904 329.104 223.928 301.94 223.928 c 0
 274.778 223.928 245.102 228.904 221.963 237.199 c 0
 218.531 238.484 215.152 239.885 211.833 241.405 c 1
EndSplineSet
Validated: 1
Comment: "%DiaToBase1+AD0A-405+AAoA%DiaToBase2+AD0A-405+AAoA%DiaToBase3+AD0A-405+AAoA%DiaToBaseO+AD0A-0+AAoA%DiaToBaseU+AD0A-405+AAoA" 
EndChar

StartChar: afii57690
Encoding: 1514 1514 143
Width: 723
VWidth: 1000
Flags: W
HStem: -10 115<45.7269 132.025> 0 21G<529 668> 485 115<76 142 281 475.742>
VStem: 142 139<114.188 485> 529 139<0 434.822>
AnchorPoint: "DiaToBaseD" 408 0 basechar 0
AnchorPoint: "DiaToBaseU" 380 0 basechar 0
AnchorPoint: "DiaToBase3" 360 0 basechar 0
AnchorPoint: "DiaToBase2" 360 0 basechar 0
AnchorPoint: "DiaToBase1" 375 0 basechar 0
LayerCount: 2
Back
SplineSet
63 -4 m 1xb8
 63 115 l 1
 77 107 89 105 106 105 c 128xb8
 147 105 160 128 160 191 c 130
 160 485 l 1
 114 485 l 1
 114 600 l 1
 416 600 l 2
 560 600 676 499 676 374 c 130
 676 0 l 1
 537 0 l 1x78
 537 365 l 130
 537 431 477 485 404 485 c 2
 299 485 l 1
 299 191 l 130
 299 52 224 -10 106 -10 c 128
 92.5 -10 79 -10 63 -4 c 1xb8
EndSplineSet
Fore
SplineSet
343 485 m 6x78
 281 485 l 1
 281 207 l 2
 281 168 280 120 268 87 c 0
 255 49 231 24 199 9 c 0
 174 -3 142 -10 102 -10 c 0
 82 -10 62 -8 45 -4 c 1
 45 115 l 1
 59 107 71 105 88 105 c 0xb8
 111 105 130 117 137 140 c 0
 142 157 142 173 142 191 c 2
 142 485 l 1
 76 485 l 1
 76 600 l 1
 326 600 l 6
 372 600 422 597 457 592 c 4
 502 585 543 569 578 544 c 4
 611 521 636 491 651 452 c 4
 662 425 668 380 668 318 c 6
 668 0 l 5
 529 0 l 5
 529 311 l 6
 529 344 530 373 522 400 c 4
 516 421 505 439 488 453 c 4
 471 467 447 475 425 479 c 4
 402 483 374 485 343 485 c 6x78
EndSplineSet
Validated: 33
Substitution2: "WideLetters" uniFB28
Comment: "%DiaToBase1+AD0A-375+AAoA%DiaToBase2+AD0A-360+AAoA%DiaToBase3+AD0A-360+AAoA%DiaToBaseO+AD0A-0+AAoA%DiaToBaseU+AD0A-380+AAoA" 
EndChar

StartChar: uni05F3
Encoding: 1523 1523 147
Width: 228
VWidth: 1000
Flags: W
HStem: 470 259<85 141>
VStem: 45 138<575.565 729>
LayerCount: 2
Fore
SplineSet
183 729 m 257
 183 599 l 1
 141 470 l 1
 85 470 l 1
 45 599 l 1
 45 729 l 1
 183 729 l 257
EndSplineSet
Validated: 1
EndChar

StartChar: uni05F4
Encoding: 1524 1524 148
Width: 444
VWidth: 1000
Flags: W
HStem: 470 259<75 131 311 367>
VStem: 35 138<575.565 729> 271 138<575.565 729>
LayerCount: 2
Fore
SplineSet
173 729 m 1
 173 599 l 1
 131 470 l 1
 75 470 l 1
 35 599 l 1
 35 729 l 1
 173 729 l 1
409 729 m 257
 409 599 l 1
 367 470 l 1
 311 470 l 1
 271 599 l 1
 271 729 l 1
 409 729 l 257
EndSplineSet
Validated: 1
EndChar

StartChar: uni05F5
Encoding: 1525 1525 149
Width: 274
VWidth: 1000
Flags: W
HStem: 0 21G<65 204> 580 20G<65 204>
VStem: 65 139<0 250 360 600>
LayerCount: 2
Fore
SplineSet
204 360 m 1
 65 338 l 1
 65 600 l 1
 204 600 l 1
 204 360 l 1
65 250 m 1
 204 272 l 5
 204 0 l 1
 65 0 l 1
 65 250 l 1
EndSplineSet
Validated: 1
EndChar

StartChar: uni05F7
Encoding: 1527 1527 150
Width: 669
VWidth: 1000
Flags: W
HStem: -200 21G<80 219> 0 115<304 428.572> 485 115<219 470>
VStem: 80 139<-200 485> 470 139<156.247 485>
LayerCount: 2
Back
SplineSet
219 485 m 1
 219 -200 l 1
 80 -200 l 1
 80 600 l 1
 599 600 l 1
 599 276 l 2
 599 151.135 482.65 50 339 50 c 2
 327 50 l 9
 327 165 l 1
 339.625 165 l 2
 403 165 460 222.504 460 285 c 2
 460 485 l 1
 219 485 l 1
EndSplineSet
Fore
SplineSet
345 115 m 2
 364 115 378 118 391 121 c 0
 409 125 424 133 437 145 c 0
 449 157 457 170 462 187 c 0
 467 204 470 231 470 252 c 2
 470 485 l 1
 219 485 l 1
 219 -200 l 1
 80 -200 l 9
 80 600 l 21
 609 600 l 1
 609 252 l 2
 609 212 608 167 595 132 c 0
 583 100 563 71 534 49 c 0
 506 27 473 14 434 7 c 0
 405 2 377 0 341 0 c 2
 304 0 l 1
 304 115 l 1
 345 115 l 2
EndSplineSet
Validated: 1
EndChar

StartChar: endash
Encoding: 8211 8211 155
Width: 736
VWidth: 1000
Flags: W
HStem: 207 104<85 651>
LayerCount: 2
Fore
SplineSet
651 311 m 1
 651 207 l 1
 85 207 l 1
 85 311 l 1
 651 311 l 1
EndSplineSet
Validated: 1
EndChar

StartChar: emdash
Encoding: 8212 8212 156
Width: 1180
VWidth: 1000
Flags: W
HStem: 207 104<85 1095>
LayerCount: 2
Fore
SplineSet
1095 311 m 1
 1095 207 l 1
 85 207 l 5
 85 311 l 1
 1095 311 l 1
EndSplineSet
Validated: 1
EndChar

StartChar: afii00208
Encoding: 8213 8213 157
Width: 1380
VWidth: 1000
Flags: W
HStem: 207 104<85 1295>
LayerCount: 2
Fore
SplineSet
1295 311 m 5
 1295 207 l 5
 85 207 l 1
 85 311 l 1
 1295 311 l 5
EndSplineSet
Validated: 1
EndChar

StartChar: uniFB24
Encoding: 64292 64292 162
Width: 1097
VWidth: 1000
Flags: W
HStem: 0 115<55 870> 485 115<55 870.003>
VStem: 929 138<169.54 428.37>
LayerCount: 2
Back
SplineSet
824 0 m 134
 76 0 l 1
 76 115 l 1
 812 115 l 134
 885.482 115 945 168.7 945 235 c 134
 945 365 l 134
 945 431.3 885.482 485 812 485 c 6
 76 485 l 1
 76 600 l 1
 824 600 l 6
 967.65 600 1084 498.865 1084 374 c 134
 1084 226 l 134
 1084 101.135 967.65 0 824 0 c 134
EndSplineSet
Fore
SplineSet
771 0 m 6
 55 0 l 1
 55 115 l 1
 765 115 l 6
 788 115 809 117 826 121 c 4
 849 127 870 136 887 150 c 4
 904 164 914 181 921 201 c 4
 928 221 929 255 929 280 c 6
 929 320 l 6
 929 345 928 378 921 398 c 4
 914 418 904 436 887 450 c 4
 870 464 849 473 826 479 c 4
 809 483 788 485 765 485 c 6
 55 485 l 1
 55 600 l 1
 771 600 l 6
 810 600 841 598 873 592 c 4
 916 584 953 568 984 543 c 4
 1016 517 1038 485 1051 448 c 4
 1065 408 1067 355 1067 308 c 6
 1067 291 l 6
 1067 244 1065 192 1051 152 c 4
 1038 115 1016 83 984 57 c 4
 953 32 916 16 873 8 c 4
 841 2 809 0 771 0 c 6
EndSplineSet
Validated: 1
EndChar

StartChar: uniFB25
Encoding: 64293 64293 163
Width: 1153
VWidth: 1000
Flags: W
HStem: 0 115<484.25 819.282> 485 115<179 958>
VStem: 40 139<600 750>
LayerCount: 2
Back
SplineSet
955 484.998 m 5
 37 485 l 1
 37 750 l 1
 176 750 l 1
 176 600 l 1
 1125.5 600 l 1
 1052.5 300 l 2
 1034.26 225.057 1012.5 161 988.5 121 c 0
 965.5 84 938.5 54 902.5 32 c 0
 869.5 12 827.5 0 773.5 0 c 2
 528.5 0 l 25
 528.5 76 l 25
 723.501 76 l 22
 766.501 76 795.501 89 815.501 106 c 4
 836.501 123 856.501 150 869.501 176 c 4
 886.501 208 896.712 245.956 905.501 282 c 6
 955 484.998 l 5
835 101 m 6
 835 0 l 5
 696 0 l 5
 696 107 l 6
 696 188 783 264 846 298 c 4
 919 338 1006 352 1006 434 c 6
 1006 485 l 5
 62 485 l 5
 62 750 l 5
 201 750 l 5
 201 600 l 5
 1145 600 l 5
 1145 412 l 6
 1145 315 1045 273 976 243 c 4
 908 213 835 181 835 101 c 6
EndSplineSet
Fore
SplineSet
958 484.998 m 1
 40 485 l 1
 40 750 l 1
 179 750 l 1
 179 600 l 1
 1128.5 600 l 1
 1055.5 300 l 2
 1037.26 225.057 1015.5 161 991.5 121 c 0
 968.5 84 941.5 54 905.5 32 c 0
 872.5 12 830.5 0 776.5 0 c 2
 484.25 0 l 29
 484.25 115 l 29
 736.004 115 l 18
 779.005 115 808.004 128 828.004 145 c 0
 849.004 162 869.004 189 882.004 215 c 0
 899.004 247 909.215 284.956 918.004 321 c 2
 958 484.998 l 1
EndSplineSet
Validated: 1
EndChar

StartChar: uniFB26
Encoding: 64294 64294 164
Width: 1215
VWidth: 1000
Flags: W
HStem: 0 115<219 1021.5> 485 115<219 982.701>
VStem: 80 139<115 485> 1021.5 139<115 447.779>
LayerCount: 2
Back
SplineSet
1163 374 m 134
 1163 0 l 5
 80 0 l 1
 80 600 l 1
 903 600 l 6
 1046.65 600 1163 498.865 1163 374 c 134
891 485 m 6
 219 485 l 1
 219 115 l 1
 1024 115 l 5
 1024 365 l 134
 1024 431.3 964.482 485 891 485 c 6
EndSplineSet
Fore
SplineSet
1021.5 115 m 5
 1021.5 341 l 6
 1021.5 369 1021.5 392 1015.5 415 c 4
 1010.5 432 1001.5 447 987.5 458 c 4
 973.5 469 953.5 476 935.5 480 c 4
 916.5 484 894.5 485 868.5 485 c 6
 219 485 l 1
 219 115 l 1
 1021.5 115 l 5
1160.5 0 m 13
 80 0 l 17
 80 600 l 1
 878.5 600 l 6
 916.5 600 957.5 597 986.5 593 c 4
 1023.5 587 1057.5 575 1086.5 554 c 4
 1113.5 535 1133.5 510 1146.5 478 c 4
 1155.5 455 1160.5 418 1160.5 367 c 6
 1160.5 0 l 13
EndSplineSet
Validated: 1
EndChar

StartChar: uniFB27
Encoding: 64295 64295 165
Width: 1088
VWidth: 1000
Flags: W
HStem: 0 21G<894.5 1033.5> 485 115<20 855.701>
VStem: 894.5 139<0 447.779>
LayerCount: 2
Back
SplineSet
1080 374 m 134
 1080 0 l 5
 941 0 l 5
 941 365 l 134
 941 431.3 881.482 485 808 485 c 6
 63 485 l 1
 63 600 l 1
 820 600 l 6
 963.65 600 1080 498.865 1080 374 c 134
EndSplineSet
Fore
SplineSet
20 485 m 1
 20 600 l 1
 751.5 600 l 6
 789.5 600 830.5 597 859.5 593 c 4
 896.5 587 930.5 575 959.5 554 c 4
 986.5 535 1006.5 510 1019.5 478 c 4
 1028.5 455 1033.5 418 1033.5 367 c 6
 1033.5 0 l 5
 894.5 0 l 5
 894.5 341 l 6
 894.5 369 894.5 392 888.5 415 c 4
 883.5 432 874.5 447 860.5 458 c 4
 846.5 469 826.5 476 808.5 480 c 4
 789.5 484 767.5 485 741.5 485 c 6
 20 485 l 1
EndSplineSet
Validated: 1
EndChar

StartChar: uniFB28
Encoding: 64296 64296 166
Width: 1259
VWidth: 1000
Flags: W
HStem: -10 115<45.7269 132.025> 0 21G<1065 1204> 485 115<76 142 281 1011.74>
VStem: 142 139<114.188 485> 1065 139<0 434.822>
LayerCount: 2
Back
SplineSet
63 -4 m 1xb8
 63 115 l 1
 77 107 89 105 106 105 c 128xb8
 147 105 160 128 160 191 c 130
 160 485 l 1
 114 485 l 1
 114 600 l 1
 966 600 l 6
 1110 600 1226 499 1226 374 c 134
 1226 0 l 5
 1087 0 l 5x78
 1087 365 l 134
 1087 431 1027 485 954 485 c 6
 299 485 l 1
 299 191 l 130
 299 52 224 -10 106 -10 c 128
 92.5 -10 79 -10 63 -4 c 1xb8
EndSplineSet
Fore
SplineSet
879 485 m 6x78
 281 485 l 1
 281 207 l 2
 281 168 280 120 268 87 c 0
 255 49 231 24 199 9 c 0
 174 -3 142 -10 102 -10 c 0
 82 -10 62 -8 45 -4 c 1
 45 115 l 1
 59 107 71 105 88 105 c 0xb8
 111 105 130 117 137 140 c 0
 142 157 142 173 142 191 c 2
 142 485 l 1
 76 485 l 1
 76 600 l 1
 862 600 l 6
 908 600 958 597 993 592 c 4
 1038 585 1079 569 1114 544 c 4
 1147 521 1172 491 1187 452 c 4
 1198 425 1204 380 1204 318 c 6
 1204 0 l 5
 1065 0 l 5
 1065 311 l 6
 1065 344 1066 373 1058 400 c 4
 1052 421 1041 439 1024 453 c 4
 1007 467 983 475 961 479 c 4
 938 483 910 485 879 485 c 6x78
EndSplineSet
Validated: 33
EndChar

StartChar: uniFB29
Encoding: 64297 64297 167
Width: 663
VWidth: 1000
Flags: W
HStem: 232 119<90 272 391 573>
VStem: 272 119<351 533>
LayerCount: 2
Fore
SplineSet
573 351 m 257
 573 232 l 261
 90 232 l 261
 90 351 l 257
 272 351 l 257
 272 533 l 257
 391 533 l 257
 391 351 l 257
 573 351 l 257
EndSplineSet
Validated: 1
EndChar

StartChar: uniFB4F
Encoding: 64335 64335 200
Width: 645
VWidth: 1000
Flags: W
HStem: 0 21G<418.708 600.422> 580 20G<425.093 563.105>
VStem: 30 138.997<587.005 750> 425.093 138.013<338.312 600>
LayerCount: 2
Back
SplineSet
498 212 m 1
 650 0 l 1
 487 0 l 1
 83 569 l 5
 83 750 l 5
 222 750 l 5
 222 600 l 5
 425 315 l 1
 464 348 482 402 482 444 c 2
 482 600 l 1
 621 600 l 1
 621 433 l 2
 621 341 566 263 498 212 c 1
EndSplineSet
Fore
SplineSet
30 549.005 m 1
 30.001 750 l 1
 169.001 750 l 1
 168.997 587.005 l 1
 370.973 310.665 l 1
 392.001 323.5 405.593 340.315 414.291 360 c 0
 423.129 380 425.093 405 425.093 442 c 2
 425.093 600 l 1
 563.105 600 l 1
 563.105 451 l 2
 563.105 408 560.16 373 550.341 342 c 0
 540.521 313 524.81 288 500.26 266 c 0
 482.591 249.901 462.501 237.5 434.35 226.484 c 1
 600.422 0 l 1
 433.404 0 l 1
 30 549.005 l 1
EndSplineSet
Validated: 1
Ligature2: "AlephLamed2" afii57664 afii57676
Ligature2: "AlephLamed" afii57664 afii57676
LCarets2: 1 0 
EndChar

StartChar: afii57799
Encoding: 1456 1456 201
Width: 0
VWidth: 1000
Flags: W
HStem: -264.117 82.352<-41.1758 41.1758> -137.353 82.353<-41.1758 41.1758>
VStem: -41.1758 82.3516<-264.117 -181.765 -137.353 -55>
AnchorPoint: "DiaToBase1" 0 0 mark 0
LayerCount: 2
Fore
SplineSet
-41.1758 -181.765 m 5
 41.1758 -181.765 l 5
 41.1758 -264.117 l 5
 -41.1758 -264.117 l 5
 -41.1758 -181.765 l 5
-41.1758 -55 m 1
 41.1758 -55 l 1
 41.1758 -137.353 l 1
 -41.1758 -137.353 l 1
 -41.1758 -55 l 1
EndSplineSet
Validated: 1
EndChar

StartChar: afii57801
Encoding: 1457 1457 202
Width: 0
VWidth: 1000
Flags: W
HStem: -264.117 82.3525<-108.823 -26.4707 96.1768 178.529> -137.353 82.3525<-178.529 -96.1768 -39.1182 43.2354 96.1768 178.529>
VStem: -178.529 82.3525<-137.353 -55> -108.823 82.3525<-264.117 -181.765> -39.1182 82.3535<-137.353 -55> 96.1768 82.3525<-264.117 -181.765 -137.353 -55>
AnchorPoint: "DiaToBase3" 0 0 mark 0
LayerCount: 2
Fore
SplineSet
-108.823 -181.765 m 1xd4
 -26.4707 -181.765 l 1
 -26.4707 -264.117 l 1
 -108.823 -264.117 l 1
 -108.823 -181.765 l 1xd4
-178.529 -55 m 5xe4
 -96.1768 -55 l 5
 -96.1768 -137.353 l 5
 -178.529 -137.353 l 5
 -178.529 -55 l 5xe4
-39.1182 -55 m 1xcc
 43.2354 -55 l 1
 43.2354 -137.353 l 1
 -39.1182 -137.353 l 1
 -39.1182 -55 l 1xcc
96.1768 -55 m 1
 178.529 -55 l 1
 178.529 -137.353 l 1
 96.1768 -137.353 l 1
 96.1768 -55 l 1
96.1768 -181.765 m 1
 178.529 -181.765 l 1
 178.529 -264.117 l 1
 96.1768 -264.117 l 1
 96.1768 -181.765 l 1
EndSplineSet
Validated: 1
EndChar

StartChar: afii57800
Encoding: 1458 1458 203
Width: 0
VWidth: 1000
Flags: W
HStem: -264.117 82.352<93.2354 175.589> -137.353 82.353<-175.589 34.4111 93.2354 175.589>
VStem: 93.2354 82.3536<-264.117 -181.765 -137.353 -55>
AnchorPoint: "DiaToBase3" 0 0 mark 0
LayerCount: 2
Fore
SplineSet
-175.589 -55 m 5
 34.4111 -55 l 1
 34.4111 -137.353 l 1
 -175.589 -137.353 l 5
 -175.589 -55 l 5
93.2354 -55 m 1
 175.589 -55 l 1
 175.589 -137.353 l 1
 93.2354 -137.353 l 1
 93.2354 -55 l 1
93.2354 -181.765 m 1
 175.589 -181.765 l 1
 175.589 -264.117 l 1
 93.2354 -264.117 l 1
 93.2354 -181.765 l 1
EndSplineSet
Validated: 1
EndChar

StartChar: afii57802
Encoding: 1459 1459 204
Width: 0
VWidth: 1000
Flags: W
HStem: -264.118 82.353<98.2354 180.589> -137.354 82.354<-180.589 -111.765 -29.4111 39.4111 98.2354 180.589>
VStem: -111.765 82.3539<-258.235 -137.354> 98.2354 82.3536<-264.118 -181.765 -137.354 -55>
AnchorPoint: "DiaToBase3" 0 0 mark 0
LayerCount: 2
Fore
SplineSet
98.2354 -181.765 m 1
 180.589 -181.765 l 1
 180.589 -264.118 l 1
 98.2354 -264.118 l 1
 98.2354 -181.765 l 1
98.2354 -55 m 1
 180.589 -55 l 1
 180.589 -137.354 l 1
 98.2354 -137.354 l 1
 98.2354 -55 l 1
-29.4111 -137.354 m 257
 -29.4111 -258.235 l 261
 -111.765 -258.235 l 261
 -111.765 -137.354 l 257
 -180.589 -137.354 l 257
 -180.589 -55 l 257
 39.4111 -55 l 257
 39.4111 -137.354 l 257
 -29.4111 -137.354 l 257
EndSplineSet
Validated: 1
EndChar

StartChar: afii57793
Encoding: 1460 1460 205
Width: 0
VWidth: 1000
Flags: W
HStem: -137.353 82.353<-41.1758 41.1758>
VStem: -41.1758 82.3516<-137.353 -55>
AnchorPoint: "DiaToBase1" 0 0 mark 0
LayerCount: 2
Fore
SplineSet
-41.1758 -55 m 1
 41.1758 -55 l 1
 41.1758 -137.353 l 1
 -41.1758 -137.353 l 1
 -41.1758 -55 l 1
EndSplineSet
Validated: 1
EndChar

StartChar: afii57794
Encoding: 1461 1461 206
Width: 0
VWidth: 1000
Flags: W
HStem: -137.353 82.353<-110.883 -28.5303 28.5283 110.883>
VStem: -110.883 82.3527<-137.353 -55> 28.5283 82.3547<-137.353 -55>
AnchorPoint: "DiaToBase2" 0 0 mark 0
LayerCount: 2
Fore
SplineSet
-110.883 -55 m 5
 -28.5303 -55 l 5
 -28.5303 -137.353 l 5
 -110.883 -137.353 l 5
 -110.883 -55 l 5
28.5283 -55 m 1
 110.883 -55 l 1
 110.883 -137.353 l 1
 28.5283 -137.353 l 1
 28.5283 -55 l 1
EndSplineSet
Validated: 1
EndChar

StartChar: afii57795
Encoding: 1462 1462 207
Width: 0
VWidth: 1000
Flags: W
HStem: -264.117 82.352<-41.1768 41.1768> -137.353 82.353<-110.883 -28.5303 28.5283 110.883>
VStem: -110.883 82.3527<-137.353 -55> -41.1768 82.3536<-264.117 -181.765> 28.5283 82.3547<-137.353 -55>
AnchorPoint: "DiaToBase2" 0 0 mark 0
LayerCount: 2
Fore
SplineSet
-41.1768 -181.765 m 1xd0
 41.1768 -181.765 l 1
 41.1768 -264.117 l 1
 -41.1768 -264.117 l 5
 -41.1768 -181.765 l 1xd0
-110.883 -55 m 1xe0
 -28.5303 -55 l 1
 -28.5303 -137.353 l 1
 -110.883 -137.353 l 1
 -110.883 -55 l 1xe0
28.5283 -55 m 1xc8
 110.883 -55 l 1
 110.883 -137.353 l 1
 28.5283 -137.353 l 1
 28.5283 -55 l 1xc8
EndSplineSet
Validated: 1
EndChar

StartChar: afii57798
Encoding: 1463 1463 208
Width: 0
VWidth: 1000
Flags: W
HStem: -137.353 82.353<-130 130>
VStem: -130 260<-137.353 -55>
AnchorPoint: "DiaToBase2" 0 0 mark 0
LayerCount: 2
Fore
SplineSet
-130 -55 m 5
 130 -55 l 5
 130 -137.353 l 5
 -130 -137.353 l 5
 -130 -55 l 5
EndSplineSet
Validated: 1
EndChar

StartChar: afii57797
Encoding: 1464 1464 209
Width: 0
VWidth: 1000
Flags: W
HStem: -137.354 82.354<-130 -41.1758 41.1768 130>
VStem: -41.1758 82.3526<-243.235 -137.354>
AnchorPoint: "DiaToBase2" 0 0 mark 0
LayerCount: 2
Fore
SplineSet
41.1768 -137.354 m 5
 41.1768 -243.235 l 5
 -41.1758 -243.235 l 5
 -41.1758 -137.354 l 5
 -130 -137.354 l 5
 -130 -55 l 5
 130 -55 l 5
 130 -137.354 l 5
 41.1768 -137.354 l 5
EndSplineSet
Validated: 1
EndChar

StartChar: afii57806
Encoding: 1465 1465 210
Width: 0
VWidth: 1000
Flags: W
HStem: 660 82.354<-41.1758 41.1758>
VStem: -41.1758 82.3516<660 742.354>
AnchorPoint: "DiaToBaseO" 0 0 mark 0
LayerCount: 2
Fore
SplineSet
-41.1758 742.354 m 5
 41.1758 742.354 l 5
 41.1758 660 l 5
 -41.1758 660 l 5
 -41.1758 742.354 l 5
EndSplineSet
Validated: 1
EndChar

StartChar: afii57796
Encoding: 1467 1467 211
Width: 0
VWidth: 1000
Flags: W
HStem: -264.117 82.352<88.2344 170.589> -197.794 82.353<-41.1768 41.1768> -137.353 82.353<-170.589 -88.2363>
VStem: -170.589 82.3527<-137.353 -55> -41.1768 82.3536<-197.794 -115.441> 88.2344 82.3546<-264.117 -181.765>
AnchorPoint: "DiaToBaseU" 0 0 mark 0
LayerCount: 2
Fore
SplineSet
88.2344 -181.765 m 1x9c
 170.589 -181.765 l 1
 170.589 -264.117 l 1
 88.2344 -264.117 l 1
 88.2344 -181.765 l 1x9c
-41.1768 -115.441 m 5x5c
 41.1768 -115.441 l 5
 41.1768 -197.794 l 5
 -41.1768 -197.794 l 5
 -41.1768 -115.441 l 5x5c
-170.589 -55 m 1x3c
 -88.2363 -55 l 1
 -88.2363 -137.353 l 1
 -170.589 -137.353 l 1
 -170.589 -55 l 1x3c
EndSplineSet
Validated: 1
EndChar

StartChar: afii57807
Encoding: 1468 1468 212
Width: 0
VWidth: 1000
Flags: W
HStem: 256.647 82.353<-41.1758 41.1758>
VStem: -41.1758 82.3516<256.647 339>
AnchorPoint: "DiaToBaseD" 0 0 mark 0
LayerCount: 2
Fore
SplineSet
-41.1758 339 m 5
 41.1758 339 l 5
 41.1758 256.647 l 5
 -41.1758 256.647 l 5
 -41.1758 339 l 5
EndSplineSet
Validated: 1
EndChar

StartChar: afii57839
Encoding: 1469 1469 213
Width: 0
VWidth: 1000
Flags: W
HStem: -248.235 193.235<-41.1758 41.1758>
VStem: -41.1758 82.3516<-248.235 -55>
LayerCount: 2
Fore
SplineSet
41.1758 -55 m 5
 41.1758 -248.235 l 1
 -41.1758 -248.235 l 1
 -41.1758 -55 l 5
 41.1758 -55 l 5
EndSplineSet
Validated: 1
EndChar

StartChar: afii57645
Encoding: 1470 1470 214
Width: 551
VWidth: 1000
Flags: W
HStem: 485 115<85 466>
LayerCount: 2
Fore
SplineSet
85 485 m 1
 85 600 l 1
 466 600 l 5
 466 485 l 5
 85 485 l 1
EndSplineSet
Validated: 1
EndChar

StartChar: afii57841
Encoding: 1471 1471 215
Width: 0
VWidth: 1000
Flags: W
HStem: 660 82.354<-100 100>
VStem: -100 200<660 742.354>
LayerCount: 2
Fore
SplineSet
-100 742.354 m 5
 100 742.354 l 5
 100 660 l 5
 -100 660 l 5
 -100 742.354 l 5
EndSplineSet
Validated: 1
EndChar

StartChar: afii57842
Encoding: 1472 1472 216
Width: 297
VWidth: 1000
Flags: W
VStem: 79 139<-100 700>
LayerCount: 2
Fore
SplineSet
79 -100 m 5
 79 700 l 1
 218 700 l 257
 218 -100 l 5
 79 -100 l 5
EndSplineSet
Validated: 1
EndChar

StartChar: afii57804
Encoding: 1473 1473 217
Width: -6
VWidth: 1000
Flags: W
HStem: 639 82.3535<643.646 726>
VStem: 643.646 82.3535<639 721.354>
LayerCount: 2
Fore
SplineSet
643.646 721.354 m 1
 726 721.354 l 257
 726 639 l 1
 643.646 639 l 1
 643.646 721.354 l 1
EndSplineSet
Validated: 1
EndChar

StartChar: afii57803
Encoding: 1474 1474 218
Width: -6
VWidth: 1000
Flags: W
HStem: 639 82.3535<94.6475 177>
VStem: 94.6475 82.3525<639 721.354>
LayerCount: 2
Fore
SplineSet
94.6475 721.354 m 5
 177 721.354 l 261
 177 639 l 5
 94.6475 639 l 5
 94.6475 721.354 l 5
EndSplineSet
Validated: 1
EndChar

StartChar: uni05C4
Encoding: 1476 1476 220
Width: 0
VWidth: 1000
Flags: W
HStem: 660 123.531<-61.7637 61.7637>
VStem: -61.7637 123.527<660 783.531>
LayerCount: 2
Back
SplineSet
-41.1758 742.354 m 5
 41.1758 742.354 l 5
 41.1758 660 l 5
 -41.1758 660 l 5
 -41.1758 742.354 l 5
EndSplineSet
Fore
SplineSet
-61.7637 783.531 m 5
 61.7637 783.531 l 5
 61.7637 660 l 5
 -61.7637 660 l 5
 -61.7637 783.531 l 5
EndSplineSet
Validated: 1
EndChar

StartChar: afii57664
Encoding: 1488 1488 221
Width: 698
VWidth: 1000
Flags: W
HStem: 0 21G<71.1064 210.102 471.935 653.421> 580 20G<45.3291 227.204 478.092 616.105>
VStem: 71.1064 138.996<0 242.941> 478.092 138.013<338.312 600>
AnchorPoint: "DiaToBaseD" 299 -187 basechar 0
AnchorPoint: "DiaToBaseU" 340 0 basechar 0
AnchorPoint: "DiaToBase3" 360 0 basechar 0
AnchorPoint: "DiaToBase2" 349 0 basechar 0
AnchorPoint: "DiaToBase1" 349 0 basechar 0
LayerCount: 2
Back
SplineSet
487.868 226.484 m 1xb8
 659 0 l 1
 494.25 0 l 1
 275.958 289.375 l 1
 244.501 270.303 221.902 238.619 213 204 c 0
 206 178 205 145 205 97 c 2
 205 0 l 1
 66 0 l 1
 66 88 l 2
 66 141 68 198 79 232 c 0
 92 272 111 300 137 325 c 0
 158.815 345.867 183.33 362.236 212.25 372.399 c 1
 39.75 600 l 1
 204.75 600 l 1
 425.126 310.665 l 1
 448.471 324.536 463.142 341.315 472 361 c 0
 481 381 483 405 483 442 c 2
 483 600 l 1xd8
 621 600 l 1xb8
 621 451 l 2
 621 408 618 373 608 342 c 0
 598 313 582 288 557 266 c 0
 539.007 249.901 516.53 235.595 487.868 226.484 c 1xb8
EndSplineSet
Fore
SplineSet
487.349 226.484 m 1
 653.421 0 l 1
 486.403 0 l 1
 277.07 289.375 l 1
 246.014 270.303 226.699 238.619 217.957 204 c 0
 211.084 178 210.102 145 210.102 97 c 2
 210.102 0 l 1
 71.1064 0 l 1
 71.1064 88 l 2
 71.1064 141 73.0703 198 83.8721 232 c 0
 96.6377 272 115.296 300 140.827 325 c 0
 162.249 345.867 184 360.5 212.734 372.399 c 1
 45.3291 600 l 1
 212.593 600 l 1
 423.972 310.665 l 1
 445 323.5 458.592 340.315 467.29 360 c 0
 476.128 380 478.092 405 478.092 442 c 2
 478.092 600 l 1
 616.105 600 l 1
 616.105 451 l 2
 616.105 408 613.159 373 603.34 342 c 0
 593.52 313 577.809 288 553.259 266 c 0
 535.59 249.901 515.5 237.5 487.349 226.484 c 1
EndSplineSet
Validated: 1
Substitution2: "WideLetters" uniFB21
Comment: "%DiaToBase1+AD0A-349+AAoA%DiaToBase2+AD0A-349+AAoA%DiaToBase3+AD0A-360+AAoA%DiaToBaseO+AD0A-0+AAoA%DiaToBaseU+AD0A-340+AAoA" 
EndChar

StartChar: afii57665
Encoding: 1489 1489 222
Width: 583
VWidth: 1000
Flags: W
HStem: 0 115<45 368 507 573> 485 115<55 329.201>
VStem: 368 139<115 447.779>
AnchorPoint: "DiaToBaseD" 223 0 basechar 0
AnchorPoint: "DiaToBaseU" 300 0 basechar 0
AnchorPoint: "DiaToBase3" 309 0 basechar 0
AnchorPoint: "DiaToBase2" 300 0 basechar 0
AnchorPoint: "DiaToBase1" 300 0 basechar 0
LayerCount: 2
Back
SplineSet
236.896 485 m 6
 77 485 l 1
 77 600 l 1
 252.996 600 l 2
 290.996 600 321.662 598 344.996 594 c 0
 382.329 588 415.663 574.667 444.996 554 c 0
 472.329 535.333 492.329 510 504.996 478 c 0
 514.329 455.333 518.996 418.333 518.996 367 c 2
 518.996 115 l 1
 609.996 115 l 1
 609.996 0 l 1
 76.9912 0 l 1
 76.9922 115 l 1
 379.996 115 l 1
 379.996 350 l 6
 379.996 376.399 377.296 397.7 371.896 413.9 c 132
 366.496 430.1 356.895 443.899 343.096 455.3 c 4
 328.696 466.7 311.296 474.801 290.896 479.6 c 4
 275.895 483.2 257.895 485 236.896 485 c 6
380 365 m 130
 380 431.3 320.482 485 247 485 c 2
 77 485 l 1
 77 600 l 5
 259 600 l 2
 402.65 600 519 498.865 519 374 c 130
 519 115 l 1
 610 115 l 1
 610 0 l 1
 77 0 l 1
 77 115 l 1
 380 115 l 1
 380 365 l 130
EndSplineSet
Fore
SplineSet
215 485 m 6
 55 485 l 1
 55 600 l 1
 225 600 l 6
 263 600 304 597 333 593 c 4
 370 587 404 575 433 554 c 4
 460 535 480 510 493 478 c 4
 502 455 507 418 507 367 c 6
 507 115 l 5
 573 115 l 5
 573 0 l 5
 45 0 l 1
 45 115 l 1
 368 115 l 5
 368 341 l 6
 368 369 368 392 362 415 c 4
 357 432 348 447 334 458 c 4
 320 469 300 476 282 480 c 4
 263 484 241 485 215 485 c 6
EndSplineSet
Validated: 1
Comment: "%DiaToBase1+AD0A-300+AAoA%DiaToBase2+AD0A-300+AAoA%DiaToBase3+AD0A-309+AAoA%DiaToBaseO+AD0A-0+AAoA%DiaToBaseU+AD0A-300+AAoA" 
EndChar

StartChar: afii57666
Encoding: 1490 1490 223
Width: 491
VWidth: 1000
Flags: W
HStem: 0 21G<-5 186.406 308.681 451> 485 115<88 228.196>
AnchorPoint: "DiaToBaseD" 181 0 basechar 0
AnchorPoint: "DiaToBaseO" 50 0 basechar 0
AnchorPoint: "DiaToBaseU" 235 0 basechar 0
AnchorPoint: "DiaToBase3" 240 0 basechar 0
AnchorPoint: "DiaToBase2" 235 0 basechar 0
AnchorPoint: "DiaToBase1" 223 0 basechar 0
LayerCount: 2
Back
SplineSet
459.11 374 m 6
 502.2 0 l 5
 362.04 0 l 5
 346.371 138.326 l 5
 219.48 0 l 5
 45.9697 0 l 5
 222.687 194.4 l 5
 340.02 194.4 l 5
 321.168 360.829 l 134
 312.167 440.292 260.786 485 187.304 485 c 2
 114.475 485 l 1
 114.475 600 l 1
 199.11 600 l 2
 342.761 600 444.277 502.744 459.11 374 c 6
EndSplineSet
Fore
SplineSet
408 373 m 2
 451 0 l 1
 311 0 l 1
 295 138 l 1
 168 0 l 1
 -5 0 l 1
 171 194 l 1
 289 194 l 1
 270 361 l 2
 267 388 263 407 256 425 c 0
 244 453 222 472 194 479 c 0
 174 484 153 485 130 485 c 2
 88 485 l 29
 88 600 l 21
 147 600 l 2
 193 600 230 599 266 589 c 0
 320 575 359 540 378 495 c 0
 393 458 403 416 408 373 c 2
EndSplineSet
Validated: 1
Comment: "%DiaToBase1+AD0A-223+AAoA%DiaToBase2+AD0A-235+AAoA%DiaToBase3+AD0A-240+AAoA%DiaToBaseO+AD0A-50+AAoA%DiaToBaseU+AD0A-235+AAoA" 
EndChar

StartChar: afii57667
Encoding: 1491 1491 224
Width: 553
VWidth: 1000
Flags: W
HStem: 0 21G<301 440> 485 115<10 301 440 523>
VStem: 301 139<0 485>
AnchorPoint: "DiaToBaseD" 203 0 basechar 0
AnchorPoint: "DiaToBaseU" 300 0 basechar 0
AnchorPoint: "DiaToBase3" 310 0 basechar 0
AnchorPoint: "DiaToBase2" 355 0 basechar 0
AnchorPoint: "DiaToBase1" 365 0 basechar 0
LayerCount: 2
Fore
SplineSet
301 485 m 261
 10 485 l 257
 10 600 l 257
 523 600 l 261
 523 485 l 261
 440 485 l 261
 440 0 l 261
 301 0 l 261
 301 485 l 261
EndSplineSet
Validated: 1
Substitution2: "WideLetters" uniFB22
Comment: "%DiaToBase1+AD0A-365+AAoA%DiaToBase2+AD0A-355+AAoA%DiaToBase3+AD0A-310+AAoA%DiaToBaseO+AD0A-0+AAoA%DiaToBaseU+AD0A-300+AAoA" 
EndChar

StartChar: afii57668
Encoding: 1492 1492 225
Width: 653
VWidth: 1000
Flags: W
HStem: 0 21G<65 204 459 598> 485 115<65 401.343>
VStem: 65 139<0 316> 459 139<0 431.178>
AnchorPoint: "DiaToBaseD" 332 0 basechar 0
AnchorPoint: "DiaToBaseU" 315 0 basechar 0
AnchorPoint: "DiaToBase3" 331 0 basechar 0
AnchorPoint: "DiaToBase2" 331 0 basechar 0
AnchorPoint: "DiaToBase1" 331 0 basechar 0
LayerCount: 2
Back
SplineSet
340 485 m 262
 79 485 l 257
 79 600 l 257
 352 600 l 6
 495.65 600 612 498.865 612 374 c 390
 612 0 l 257
 473 0 l 257
 473 365 l 390
 473 431.3 413.482 485 340 485 c 262
79.3369 0 m 1
 79.3369 369.229 l 1
 218.337 369.229 l 1
 218.337 0 l 1
 79.3369 0 l 1
EndSplineSet
Fore
SplineSet
266 485 m 258
 65 485 l 257
 65 600 l 257
 287 600 l 2
 329 600 374 598 406 593 c 0
 447 587 485 572 517 549 c 0
 547 528 569 501 583 466 c 0
 593 441 598 400 598 344 c 258
 598 0 l 257
 459 0 l 257
 459 304 l 258
 459 339 460 368 452 396 c 0
 446 418 434 437 417 451 c 0
 399 465 374 475 351 479 c 0
 327 484 298 485 266 485 c 258
65 0 m 5
 65 316 l 5
 204 316 l 5
 204 0 l 5
 65 0 l 5
EndSplineSet
Validated: 33
Substitution2: "WideLetters" uniFB23
Comment: "%DiaToBase1+AD0A-331+AAoA%DiaToBase2+AD0A-331+AAoA%DiaToBase3+AD0A-331+AAoA%DiaToBaseO+AD0A-0+AAoA%DiaToBaseU+AD0A-315+AAoA" 
EndChar

StartChar: afii57669
Encoding: 1493 1493 226
Width: 274
VWidth: 1000
Flags: W
HStem: 0 21G<65 204> 580 20G<65 204>
VStem: 65 139<0 600>
AnchorPoint: "DiaToBaseD" 71 0 basechar 0
AnchorPoint: "DiaToBaseU" 125 0 basechar 0
AnchorPoint: "DiaToBase3" 130 0 basechar 0
AnchorPoint: "DiaToBase2" 130 0 basechar 0
AnchorPoint: "DiaToBase1" 135 0 basechar 0
LayerCount: 2
Fore
SplineSet
65 0 m 1
 65 600 l 1
 204 600 l 257
 204 0 l 5
 65 0 l 1
EndSplineSet
Validated: 1
Comment: "%DiaToBase1+AD0A-135+AAoA%DiaToBase2+AD0A-130+AAoA%DiaToBase3+AD0A-130+AAoA%DiaToBaseO+AD0A-0+AAoA%DiaToBaseU+AD0A-125+AAoA" 
EndChar

StartChar: afii57670
Encoding: 1494 1494 227
Width: 406
VWidth: 1000
Flags: W
HStem: 0 21G<130 269> 485 115<45 130 269 352>
VStem: 130 139<0 485>
AnchorPoint: "DiaToBaseD" 71 0 basechar 0
AnchorPoint: "DiaToBaseU" 190 0 basechar 0
AnchorPoint: "DiaToBase3" 198 0 basechar 0
AnchorPoint: "DiaToBase2" 195 0 basechar 0
AnchorPoint: "DiaToBase1" 198 0 basechar 0
LayerCount: 2
Fore
SplineSet
130 485 m 257
 45 485 l 257
 45 600 l 257
 352 600 l 257
 352 485 l 257
 269 485 l 257
 269 0 l 261
 130 0 l 257
 130 485 l 257
EndSplineSet
Validated: 1
Comment: "%DiaToBase1+AD0A-198+AAoA%DiaToBase2+AD0A-195+AAoA%DiaToBase3+AD0A-198+AAoA%DiaToBaseO+AD0A-0+AAoA%DiaToBaseU+AD0A-190+AAoA" 
EndChar

StartChar: afii57671
Encoding: 1495 1495 228
Width: 688
VWidth: 1000
Flags: W
HStem: 0 21G<80 219 494 633> 485 115<219 455.201>
VStem: 80 139<0 485> 494 139<0 447.779>
AnchorPoint: "DiaToBaseD" 354 0 basechar 0
AnchorPoint: "DiaToBaseU" 356 0 basechar 0
AnchorPoint: "DiaToBase3" 356 0 basechar 0
AnchorPoint: "DiaToBase2" 356 0 basechar 0
AnchorPoint: "DiaToBase1" 356 0 basechar 0
LayerCount: 2
Back
SplineSet
632 374 m 130
 632 0 l 1
 493 0 l 1
 493 365 l 130
 493 431.3 433.482 485 360 485 c 2
 218 485 l 1
 218 0 l 1
 79 0 l 1
 79 600 l 1
 372 600 l 2
 515.65 600 632 498.865 632 374 c 130
EndSplineSet
Fore
SplineSet
341 485 m 2
 219 485 l 1
 219 0 l 1
 80 0 l 1
 80 600 l 5
 351 600 l 2
 389 600 430 597 459 593 c 0
 496 587 530 575 559 554 c 0
 586 535 606 510 619 478 c 0
 628 455 633 418 633 367 c 2
 633 0 l 1
 494 0 l 1
 494 341 l 2
 494 369 494 392 488 415 c 0
 483 432 474 447 460 458 c 0
 446 469 426 476 408 480 c 0
 389 484 367 485 341 485 c 2
EndSplineSet
Validated: 1
Comment: "%DiaToBase1+AD0A-356+AAoA%DiaToBase2+AD0A-356+AAoA%DiaToBase3+AD0A-356+AAoA%DiaToBaseO+AD0A-0+AAoA%DiaToBaseU+AD0A-356+AAoA" 
EndChar

StartChar: afii57672
Encoding: 1496 1496 229
Width: 659
VWidth: 1000
Flags: W
HStem: -8 115<252.603 421.429> 488 120<295 440.417> 580 20G<61.002 200.002>
VStem: 61.002 139<154.373 600> 474.998 139<156.906 453.042>
AnchorPoint: "DiaToBaseD" 341 0 basechar 0
AnchorPoint: "DiaToBaseU" 337 0 basechar 0
AnchorPoint: "DiaToBase3" 337 0 basechar 0
AnchorPoint: "DiaToBase2" 340 0 basechar 0
AnchorPoint: "DiaToBase1" 340 0 basechar 0
LayerCount: 2
Back
SplineSet
300 604.178 m 21xb8
 330.602 607.202 359.818 608 388.947 608 c 4
 491.842 608 562.137 564 591.681 490 c 4
 606.962 453 609 407 609 364 c 6
 609 294 l 6
 609 232 609 172 579.455 118 c 4
 539.724 45 443.96 -8 336.99 -8 c 4
 230.021 -8 135.276 45 95.5449 118 c 4
 66 172 66 232 66 294 c 134
 66 600 l 5
 205.001 600 l 5
 205.001 251 l 134
 205.001 221 205.001 193 219.55 167 c 4
 238.256 132 285.02 107 336.98 107 c 4
 388.94 107 435.705 132 454.411 167 c 4
 468.96 193 469.999 221 469.999 251 c 6
 469.999 372 l 6
 469.999 392 467.921 414 460.646 432 c 4
 446.098 467 411.804 488 361.922 488 c 4
 337.536 488 318.864 487.297 300 482.949 c 13
 300 604.178 l 21xb8
289 480 m 9xb8
 289 603 l 1
 323 607 356 608 388 608 c 0
 489 608 558 564 587 490 c 0
 602 453 604 407 604 364 c 2
 604 294 l 2
 604 232 604 172 575 118 c 0
 536 45 442 -8 337 -8 c 0
 232 -8 139 45 100 118 c 0
 71 172 71 232 71 294 c 130
 71 600 l 1
 210 600 l 1
 210 251 l 130
 210 221 210 193 224 167 c 0
 242 132 287 107 337 107 c 0
 387 107 432 132 450 167 c 0
 464 193 465 221 465 251 c 2
 465 372 l 2
 465 392 463 414 456 432 c 0
 442 467 409 488 361 488 c 0
 333 488 311 487 289 480 c 9xb8
EndSplineSet
Fore
SplineSet
295 603.75 m 17xd8
 325.915 606.719 360.447 608 389.895 608 c 0xd8
 494.684 608 566.272 564 596.36 490 c 0
 611.923 453 613.998 407 613.998 364 c 2
 613.998 294 l 2
 613.998 232 613.998 172 583.909 118 c 0
 543.447 45 445.92 -8 336.98 -8 c 0
 228.042 -8 131.553 45 91.0908 118 c 0
 61.002 172 61.002 232 61.002 294 c 2
 61.002 600 l 1
 200.002 600 l 1xb8
 200.002 251 l 2
 200.002 221 200.002 193 215.1 167 c 0
 234.512 132 283.04 107 336.96 107 c 0
 390.881 107 439.41 132 458.822 167 c 0
 473.92 193 474.998 221 474.998 251 c 2
 474.998 372 l 2
 474.998 392 472.842 414 465.292 432 c 0
 450.195 467 414.607 488 362.844 488 c 0
 338.147 488 315 487 295 481.75 c 9
 295 603.75 l 17xd8
EndSplineSet
Validated: 1
Comment: "%DiaToBase1+AD0A-340+AAoA%DiaToBase2+AD0A-340+AAoA%DiaToBase3+AD0A-337+AAoA%DiaToBaseO+AD0A-0+AAoA%DiaToBaseU+AD0A-337+AAoA" 
EndChar

StartChar: afii57673
Encoding: 1497 1497 230
Width: 274
VWidth: 1000
Flags: W
HStem: 294 306<65 113.208>
VStem: 65 139<316 600>
AnchorPoint: "DiaToBaseD" 71 98 basechar 0
AnchorPoint: "DiaToBaseU" 134 0 basechar 0
AnchorPoint: "DiaToBase3" 134 0 basechar 0
AnchorPoint: "DiaToBase2" 134 0 basechar 0
AnchorPoint: "DiaToBase1" 134 0 basechar 0
LayerCount: 2
Back
SplineSet
212 332.839 m 257
 73 276.062 l 1
 73 600 l 1
 212 600 l 1
 212 332.839 l 257
EndSplineSet
Fore
SplineSet
65 600 m 1
 204 600 l 1
 204 316 l 1
 65 294 l 1
 65 600 l 1
EndSplineSet
Validated: 1
Comment: "%DiaToBase1+AD0A-134+AAoA%DiaToBase2+AD0A-134+AAoA%DiaToBase3+AD0A-134+AAoA%DiaToBaseO+AD0A-0+AAoA%DiaToBaseU+AD0A-134+AAoA" 
EndChar

StartChar: afii57636
Encoding: 8362 8362 231
Width: 1104
VWidth: 1000
Flags: W
HStem: 0 115<510 802.75> 485 115<264 593.684>
VStem: 125 139<0 485> 371 139<115 378> 613 139<218 464.468> 855.113 138.93<164.659 600>
LayerCount: 2
Back
SplineSet
979.043 306.113 m 2
 979.043 239.568 973.491 190.502 963.5 160.285 c 0
 949.069 118.241 926.868 85.3965 896.896 60.4336 c 0
 864.704 32.8447 826.96 17.0781 785.889 9.19434 c 0
 753.695 3.94043 708.182 0 666 0 c 2
 336 0 l 1
 336 378 l 1
 475 378 l 1
 475 115 l 1
 661 115 l 2
 691.438 115.043 717.193 116.189 739.439 120.955 c 0
 760.51 125.713 783.922 134.046 800.31 147.146 c 0
 816.696 160.24 827.235 178.098 833.084 198.338 c 0
 840.113 225.718 840.113 253.102 840.113 286.437 c 2
 840 600 l 1
 979 600 l 1
 979.043 306.113 l 2
587.997 380.997 m 18
 587.997 401.2 587.997 417.797 583.736 434.391 c 0
 580.192 446.657 573.805 457.479 563.873 465.416 c 0
 553.941 473.355 539.752 478.405 526.982 481.289 c 0
 513.5 484.178 497.891 484.898 479.443 484.898 c 10
 219 485 l 1
 219 0 l 1
 80 0 l 1
 80 600 l 1
 482.912 600.237 l 18
 515.803 600.237 551.291 597.165 576.393 593.067 c 0
 608.417 586.921 637.847 574.627 662.948 553.115 c 0
 686.318 533.651 703.629 508.041 714.881 475.259 c 0
 722.671 451.697 727 413.793 727 361.55 c 10
 727 218 l 1
 588 218 l 1
 587.997 380.997 l 18
EndSplineSet
Fore
SplineSet
994.043 306.113 m 2
 994.043 239.568 988.491 190.502 978.5 160.285 c 0
 964.069 118.241 941.868 85.3965 911.896 60.4336 c 0
 879.704 32.8447 841.96 17.0781 800.889 9.19434 c 0
 768.695 3.94043 723.182 0 681 0 c 2
 371 0 l 1
 371 378 l 1
 510 378 l 1
 510 115 l 1
 676 115 l 2
 706.438 115.043 732.193 116.189 754.439 120.955 c 0
 775.51 125.713 798.922 134.046 815.31 147.146 c 0
 831.696 160.24 842.235 178.098 848.084 198.338 c 0
 855.113 225.718 855.113 253.102 855.113 286.438 c 2
 855 600 l 1
 994 600 l 1
 994.043 306.113 l 2
612.997 380.997 m 18
 612.997 401.2 612.997 417.797 608.736 434.391 c 0
 605.192 446.657 598.805 457.479 588.873 465.416 c 0
 578.941 473.355 564.752 478.405 551.982 481.289 c 0
 538.5 484.178 522.891 484.898 504.443 484.898 c 10
 264 485 l 1
 264 0 l 1
 125 0 l 1
 125 600 l 1
 507.912 600.237 l 18
 540.803 600.237 576.291 597.165 601.393 593.067 c 0
 633.417 586.921 662.847 574.627 687.948 553.115 c 0
 711.318 533.651 728.629 508.041 739.881 475.259 c 0
 747.671 451.697 752 413.793 752 361.55 c 10
 752 218 l 1
 613 218 l 1
 612.997 380.997 l 18
EndSplineSet
Validated: 1
EndChar

StartChar: Euro
Encoding: 8364 8364 232
Width: 663
VWidth: 1000
Flags: W
HStem: -20 130<334.941 532.499> 250 68<69 109 260 441> 386 68<69 108 263 490> 594 130<336.236 530.34>
VStem: 107 140<318 386>
LayerCount: 2
Back
SplineSet
30 318 m 1
 70 318 l 1
 68 332 68 341 68 353 c 0
 68 365 68 374 69 386 c 1
 6 386 l 1
 30 454 l 1
 78 454 l 1
 115 625 220 724 364 724 c 0
 434 724 474 709 546 656 c 1
 501 527 l 1
 438 577 400 594 355 594 c 0
 293 594 248 546 224 454 c 1
 475 454 l 1
 451 386 l 1
 211 386 l 1
 209 370 208 359 208 345 c 0
 208 335 208 328 210 318 c 1
 427 318 l 1
 402 250 l 1
 221 250 l 1
 247 159 295 108 355 108 c 0
 395 108 423 118 501 160 c 1
 501 11 l 1
 422 -15 388 -23 349 -23 c 0
 270 -23 187 21 142 88 c 0
 111 134 91 186 78 250 c 1
 6 250 l 1
 30 318 l 1
EndSplineSet
Fore
SplineSet
117 250 m 1
 45 250 l 1
 69 318 l 1
 109 318 l 1
 107 332 107 341 107 353 c 0
 107 365 107 374 108 386 c 1
 45 386 l 1
 69 454 l 1
 117 454 l 1
 154 625 259 724 403 724 c 0
 473 724 532 715 591 674 c 1
 551 557 l 1
 512 586 475 594 421 594 c 0
 329 594 276 535 263 454 c 1
 514 454 l 1
 490 386 l 1
 250 386 l 1
 248 370 247 359 247 345 c 0
 247 335 247 328 249 318 c 1
 466 318 l 1
 441 250 l 1
 260 250 l 1
 274 178 326 110 418 110 c 0
 461.806 110 494.426 115.265 526 132.734 c 9
 577 22.7227 l 17
 521.626 -12.084 465.651 -20 400 -20 c 0
 256 -20 154 79 117 250 c 1
EndSplineSet
Validated: 1
EndChar

StartChar: SF110000
Encoding: 9474 9474 233
Width: 264
VWidth: 1000
Flags: W
VStem: 62 139<-300 900>
LayerCount: 2
Fore
SplineSet
62 -300 m 1
 62 900 l 1
 201 900 l 1
 201 -300 l 1
 62 -300 l 1
EndSplineSet
Validated: 1
EndChar

StartChar: uni25CC
Encoding: 9676 9676 234
Width: 615
VWidth: 1000
Flags: W
HStem: 27.0813 101.675<263.467 348.227> 471.244 101.675<263.467 348.227> 520.743 20G<141.686 172.689 439.005 470.053>
VStem: 32.9277 101.676<257.62 342.38> 477.09 101.676<257.62 342.38>
LayerCount: 2
Back
SplineSet
380.847 -3.0498 m 25
 230.847 603.05 l 25
 380.847 603.05 l 25
 230.847 -3.0498 l 25
 380.847 -3.0498 l 25
128.567 300 m 0
 128.567 202.671 207.988 123.68 305.847 123.68 c 0
 403.705 123.68 483.126 202.671 483.126 300 c 0
 483.126 397.329 403.705 476.32 305.847 476.32 c 0
 207.988 476.32 128.567 397.329 128.567 300 c 0
23.3066 300 m 0
 23.3066 455.117 149.885 581.01 305.847 581.01 c 0
 461.809 581.01 588.387 455.117 588.387 300 c 0
 588.387 144.883 461.809 18.9902 305.847 18.9902 c 0
 149.885 18.9902 23.3066 144.883 23.3066 300 c 0
EndSplineSet
Fore
SplineSet
65.1035 154.777 m 1x98
 154.792 208.88 l 1
 169.227 185.114 190.902 163.415 214.727 148.945 c 1
 160.624 59.2568 l 1
 122.748 82.2617 88.165 116.809 65.1035 154.777 c 1x98
451.069 540.743 m 1xb8
 489.038 517.682 523.585 483.099 546.59 445.223 c 1
 456.901 391.12 l 1
 442.432 414.944 420.732 436.62 396.967 451.055 c 1
 451.069 540.743 l 1xb8
578.766 232.457 m 1
 477.09 257.62 l 1
 483.688 284.631 483.704 315.303 477.09 342.38 c 1
 578.766 367.543 l 1
 589.28 324.494 589.307 275.612 578.766 232.457 c 1
32.9277 232.457 m 1
 22.3867 275.612 22.4131 324.494 32.9277 367.543 c 1
 134.604 342.38 l 1
 127.989 315.303 128.005 284.631 134.604 257.62 c 1
 32.9277 232.457 l 1
451.069 59.2568 m 1
 396.967 148.945 l 1
 420.732 163.38 442.432 185.056 456.901 208.88 c 1
 546.59 154.777 l 1
 523.585 116.901 489.038 82.3184 451.069 59.2568 c 1
65.1035 445.223 m 1
 88.165 483.191 122.748 517.738 160.624 540.743 c 1
 214.727 451.055 l 1
 190.902 436.585 169.227 414.886 154.792 391.12 c 1
 65.1035 445.223 l 1
238.304 27.0813 m 1
 263.467 128.756 l 1
 290.478 122.159 321.149 122.142 348.227 128.756 c 1
 373.39 27.0813 l 1
 330.341 16.566 281.459 16.5401 238.304 27.0813 c 1
238.304 572.919 m 1xd8
 281.459 583.46 330.341 583.434 373.39 572.919 c 1
 348.227 471.244 l 1
 321.149 477.858 290.478 477.841 263.467 471.244 c 1
 238.304 572.919 l 1xd8
EndSplineSet
Validated: 33
EndChar

StartChar: uniFB1E
Encoding: 64286 64286 239
Width: 0
VWidth: 1000
Flags: W
HStem: 659.941 84.059<-67.0968 66.4298>
VStem: -133.993 267.986
LayerCount: 2
Back
SplineSet
0 742.353 m 5
 200 742.353 l 5
 200 660 l 5
 0 660 l 5
 0 742.353 l 5
100 812.941 m 1
 0 812.941 l 1
 0 812.941 6.15625 760.115 23.5293 730.588 c 24
 37.0293 707.645 47.6455 697.029 70.5889 683.529 c 24
 100.115 666.155 118.682 660 152.941 660 c 24
 187.201 660 205.768 666.155 235.294 683.529 c 24
 258.238 697.029 268.854 707.645 282.354 730.588 c 24
 299.727 760.115 305.883 812.941 305.883 812.941 c 1
 205.883 812.941 l 1
 205.883 812.941 204.194 788.598 194.118 777.647 c 24
 181.984 764.46 170.861 760 152.941 760 c 24
 135.021 760 123.898 764.46 111.765 777.647 c 24
 101.688 788.598 100 812.941 100 812.941 c 1
EndSplineSet
Fore
SplineSet
-58.2998 774.5 m 1
 -45.6943 756.081 -24.5107 744 -0.493164 744 c 0
 23.7402 744 45.0889 756.3 57.6523 775 c 1
 133.993 739 l 1
 107.933 691.854 57.71 659.941 -0.000976562 659.941 c 0
 -57.709 659.941 -107.932 691.854 -133.993 739 c 1
 -58.2998 774.5 l 1
EndSplineSet
Validated: 1
EndChar

StartChar: uniFB20
Encoding: 64288 64288 241
Width: 625
VWidth: 1000
Flags: W
HStem: 0 115<50 148.5 289.407 373.263> 580 20G<40 184.512 436.564 580>
AnchorPoint: "DiaToBaseU" 310 0 basechar 0
AnchorPoint: "DiaToBase3" 310 0 basechar 0
AnchorPoint: "DiaToBase2" 300 0 basechar 0
AnchorPoint: "DiaToBase1" 300 0 basechar 0
LayerCount: 2
Back
SplineSet
590 600 m 17
 565 248 l 6
 556 124 471 47 363 22 c 6
 40 -55 l 1
 41 66 l 1
 163 96 l 1
 50 600 l 1
 190 600 l 1
 297 126 l 1
 339 138 l 6
 391 152 419 192 423 252 c 6
 448 600 l 1
 590 600 l 17
EndSplineSet
Fore
SplineSet
289.407 115 m 1
 304.963 115 318.417 116.36 332.017 119.76 c 0
 349.697 123.84 364.656 131.319 377.577 142.2 c 0
 389.816 153.08 398.656 166.68 403.417 181.64 c 0
 408.177 197.279 410.586 217.699 412.256 241.479 c 2
 438 600 l 1
 580 600 l 17
 555.112 249.301 l 2
 551.923 203.416 546.696 164.7 531.441 130.5 c 0
 518.054 99 493.034 70.2002 460.094 48.6006 c 0
 427.153 27 389.039 14.4004 345.658 7.2002 c 0
 313.124 1.80078 282.479 0 241.078 0 c 2
 50 0 l 1
 50 115 l 1
 148.5 115 l 1
 40 600 l 1
 180 600 l 1
 289.407 115 l 1
EndSplineSet
Validated: 1
Comment: "%DiaToBase1+AD0A-300+AAoA%DiaToBase2+AD0A-300+AAoA%DiaToBase3+AD0A-310+AAoA%DiaToBaseO+AD0A-0+AAoA%DiaToBaseU+AD0A-310+AAoA" 
EndChar

StartChar: uniFB21
Encoding: 64289 64289 242
Width: 1229
VWidth: 1000
Flags: W
HStem: 0 21G<55.1064 194.102 909.159 1184> 580 20G<45 319.788 1033.9 1172.89>
VStem: 55.1064 138.996<0 257.946> 1033.9 138.99<342.054 600>
LayerCount: 2
Back
SplineSet
287 448 m 1
 61 600 l 1
 306 600 l 1
 870 222 l 1
973 152 m 1
 1200 0 l 1
 955 0 l 1
 391 378 l 1
979.367 310.665 m 1
 1000.39 323.5 1013.99 340.315 1022.68 360 c 0
 1031.52 380 1033.49 405 1033.49 442 c 2
 1033.49 600 l 1
 1171.5 600 l 1
 1171.5 451 l 2
 1171.5 408 1168.55 373 1158.74 342 c 0
 1148.92 313 1133.2 288 1108.65 266 c 0
 1090.99 249.901 1070.89 237.5 1042.74 226.484 c 1
277.07 289.375 m 1
 246.014 270.303 226.699 238.619 217.957 204 c 0
 211.084 178 210.102 145 210.102 97 c 2
 210.102 0 l 1
 71.1064 0 l 1
 71.1064 88 l 2
 71.1064 141 73.0703 198 83.8721 232 c 0
 96.6377 272 115.296 300 140.827 325 c 0
 162.249 345.867 184 360.5 212.734 372.399 c 1
391 378 m 5
 318 332 228 247 228 115 c 2
 228 0 l 1
 89 0 l 1
 89 141 l 2
 89 278 189 391 287 448 c 5
 61 600 l 5
 306 600 l 5
 870 222 l 5
 942 268 1033 354 1033 485 c 2
 1033 600 l 1
 1172 600 l 1
 1172 459 l 2
 1172 322 1072 209 973 152 c 5
 1200 0 l 5
 955 0 l 5
 391 378 l 5
EndSplineSet
Fore
SplineSet
853.002 222 m 1
 936.232 249.845 989.418 296.236 1012.85 346.78 c 0
 1031.27 384.74 1033.9 432.92 1033.9 503 c 2
 1033.9 600 l 1
 1172.89 600 l 1
 1172.89 513.367 l 2
 1172.89 446.058 1169.91 373.667 1153.49 330.487 c 0
 1134.09 279.688 1105.73 244.127 1066.92 212.377 c 0
 1034.36 185.876 1000.67 167.111 957 152 c 1
 1184 0 l 1
 939 0 l 1
 374.998 378 l 1
 291.768 350.155 238.582 303.764 215.153 253.22 c 0
 196.733 215.26 194.102 167.08 194.102 97 c 2
 194.102 0 l 1
 55.1064 0 l 1
 55.1064 86.6328 l 2
 55.1064 153.942 58.0918 226.333 74.5107 269.513 c 0
 93.9141 320.312 122.274 355.873 161.082 387.623 c 0
 193.644 414.124 227.325 432.889 271 448 c 1
 45 600 l 1
 290 600 l 1
 853.002 222 l 1
EndSplineSet
Validated: 1
EndChar

StartChar: uniFB22
Encoding: 64290 64290 243
Width: 1091
VWidth: 1000
Flags: W
HStem: 0 21G<839.315 978.315> 485 115<10 839.315 978.315 1061.32>
VStem: 839.315 139<0 485>
LayerCount: 2
Back
SplineSet
894 485 m 1
 62.9414 485 l 1
 62.9414 600 l 1
 1115.69 600 l 1
 1115.69 485 l 1
 1033 485 l 1
 1033 0 l 1
 894 0 l 1
 894 485 l 1
EndSplineSet
Fore
SplineSet
839.315 485 m 261
 10 485 l 257
 10 600 l 257
 1061.32 600 l 261
 1061.32 485 l 261
 978.315 485 l 261
 978.315 0 l 261
 839.315 0 l 261
 839.315 485 l 261
EndSplineSet
Validated: 1
EndChar

StartChar: uniFB23
Encoding: 64291 64291 244
Width: 1204
VWidth: 1000
Flags: W
HStem: 0 21G<65 204 1010.25 1149.25> 485 115<65 952.593>
VStem: 65 139<0 316> 1010.25 139<0 431.178>
LayerCount: 2
Back
SplineSet
890 485 m 2
 79 485 l 1
 79 600 l 1
 902 600 l 2
 1046 600 1162 499 1162 374 c 130
 1162 0 l 1
 1023 0 l 1
 1023 365 l 130
 1023 431 963 485 890 485 c 2
79 0 m 1
 79 369 l 1
 218 369 l 1
 218 0 l 1
 79 0 l 1
EndSplineSet
Fore
SplineSet
817.25 485 m 262
 65 485 l 257
 65 600 l 257
 838.25 600 l 6
 880.25 600 925.25 598 957.25 593 c 4
 998.25 587 1036.25 572 1068.25 549 c 4
 1098.25 528 1120.25 501 1134.25 466 c 4
 1144.25 441 1149.25 400 1149.25 344 c 262
 1149.25 0 l 261
 1010.25 0 l 261
 1010.25 304 l 262
 1010.25 339 1011.25 368 1003.25 396 c 4
 997.25 418 985.25 437 968.25 451 c 4
 950.25 465 925.25 475 902.25 479 c 4
 878.25 484 849.25 485 817.25 485 c 262
65 0 m 1
 65 316 l 1
 204 316 l 1
 204 0 l 1
 65 0 l 1
EndSplineSet
Validated: 33
EndChar

StartChar: uni05A2
Encoding: 1442 1442 250
Width: 0
VWidth: 1000
Flags: W
HStem: -258 146.703<-40.9813 40.9813>
VStem: -124.953 73.6561<-101.037 -60> -41 82<-258 -166.505> 51.2969 73.6561<-101.037 -60>
CounterMasks: 1 70
LayerCount: 2
Fore
SplineSet
41 -177.89 m 1
 41 -258 l 1
 -41 -258 l 1
 -41 -177.89 l 1
 -89.5352 -160.659 -124.953 -113.938 -124.953 -60 c 9
 -51.2969 -60 l 17
 -51.2969 -87.9062 -27.9062 -111.297 0 -111.297 c 0
 27.9062 -111.297 51.2969 -87.9062 51.2969 -60 c 9
 124.953 -60 l 17
 124.953 -113.938 89.5352 -160.659 41 -177.89 c 1
EndSplineSet
Validated: 1
EndChar

StartChar: uni05BA
Encoding: 1466 1466 251
Width: 0
VWidth: 1000
Flags: W
HStem: 660 82.354<-41.1758 41.1758>
VStem: -41.1758 82.3516<660 742.354>
LayerCount: 2
Fore
SplineSet
-41.1758 742.354 m 5
 41.1758 742.354 l 5
 41.1758 660 l 5
 -41.1758 660 l 5
 -41.1758 742.354 l 5
EndSplineSet
Validated: 1
EndChar

StartChar: uni05C5
Encoding: 1477 1477 252
Width: 0
VWidth: 1000
Flags: W
HStem: -178.539 123.529<-61.7607 61.7666>
VStem: -61.7607 123.527<-178.539 -55.0098>
LayerCount: 2
Back
SplineSet
-41.1758 -60 m 1
 41.1758 -60 l 1
 41.1758 -142.353 l 1
 -41.1758 -142.353 l 1
 -41.1758 -60 l 1
EndSplineSet
Fore
SplineSet
-61.7607 -55.0098 m 5
 61.7666 -55.0098 l 5
 61.7666 -178.539 l 5
 -61.7607 -178.539 l 5
 -61.7607 -55.0098 l 5
EndSplineSet
Validated: 1
EndChar

StartChar: uni05C6
Encoding: 1478 1478 253
Width: 406
VWidth: 1000
Flags: W
HStem: 0 115<204 351> 485 115<229.16 340>
VStem: 65 139<115 459.041>
LayerCount: 2
Back
SplineSet
345 485 m 258
 271.518 485 212 431.3 212 365 c 258
 212 115 l 257
 359 115 l 257
 359 0 l 257
 73 0 l 1
 73 374 l 258
 73 498.865 189.35 600 333 600 c 2
 348 600 l 265
 348 485 l 277
 345 485 l 258
EndSplineSet
Fore
SplineSet
305 485 m 6
 290 485 278 484 267 481 c 4
 253 478 241 472 231 463 c 4
 221 454 214 444 210 432 c 4
 206 420 204 399 204 384 c 6
 204 115 l 5
 351 115 l 5
 351 0 l 5
 65 0 l 5
 65 390 l 6
 65 423 66 461 76 490 c 4
 85 517 101 541 124 559 c 4
 146 577 173 590 204 595 c 4
 227 599 248 600 277 600 c 6
 340 600 l 13
 340 485 l 21
 305 485 l 6
EndSplineSet
Validated: 1
EndChar

StartChar: uni05C7
Encoding: 1479 1479 254
Width: 0
VWidth: 1000
Flags: W
HStem: -137.354 82.354<-110 -41.1758 41.1768 110>
VStem: -41.1758 82.3526<-298.235 -137.354>
AnchorPoint: "DiaToBase2" 0 0 mark 0
LayerCount: 2
Fore
SplineSet
41.1768 -137.354 m 1
 41.1768 -298.235 l 1
 -41.1758 -298.235 l 5
 -41.1758 -137.354 l 1
 -110 -137.354 l 1
 -110 -55 l 1
 110 -55 l 1
 110 -137.354 l 1
 41.1768 -137.354 l 1
EndSplineSet
Validated: 1
EndChar

StartChar: ellipsis
Encoding: 8230 8230 257
Width: 906
VWidth: 1000
Flags: W
HStem: 0 146<64 214 364 514 664 814>
VStem: 64 150<0 146> 364 150<0 146> 664 150<0 146>
CounterMasks: 1 70
LayerCount: 2
Fore
SplineSet
814 146 m 5
 814 0 l 5
 664 0 l 5
 664 146 l 5
 814 146 l 5
514 146 m 1
 514 0 l 1
 364 0 l 1
 364 146 l 1
 514 146 l 1
214 146 m 1
 214 0 l 1
 64 0 l 1
 64 146 l 1
 214 146 l 1
EndSplineSet
Validated: 1
EndChar

StartChar: minus
Encoding: 8722 8722 258
Width: 663
VWidth: 1000
Flags: W
HStem: 282 119<90 573>
LayerCount: 2
Fore
SplineSet
573 282 m 1
 90 282 l 1
 90 401 l 5
 573 401 l 1
 573 282 l 1
EndSplineSet
Validated: 1
EndChar

StartChar: uni0000
Encoding: 0 0 260
Width: 736
VWidth: 1000
Flags: W
HStem: -80 90<150 586> 590 90<150 586>
VStem: 60 90<10 590> 586 90<10 590>
LayerCount: 2
Fore
SplineSet
150 590 m 1
 150 10 l 1
 586 10 l 5
 586 590 l 5
 150 590 l 1
60 680 m 1
 676 680 l 5
 676 -80 l 5
 60 -80 l 1
 60 680 l 1
EndSplineSet
Validated: 1
EndChar
